SplineFontDB: 3.0
FontName: mnicmp-Bold
FullName: mnicmp Bold
FamilyName: mnicmp
Weight: Bold
Copyright: Copyright (c) 2017, Stewart C. Russell - @scruss
UComments: "2017-2-4: Created with FontForge (http://fontforge.org)"
Version: 001.000
ItalicAngle: 0
UnderlinePosition: -100
UnderlineWidth: 50
Ascent: 800
Descent: 200
InvalidEm: 0
LayerCount: 2
Layer: 0 0 "Back" 1
Layer: 1 0 "Fore" 0
XUID: [1021 938 -1892517540 7083905]
StyleMap: 0x0000
FSType: 0
OS2Version: 0
OS2_WeightWidthSlopeOnly: 0
OS2_UseTypoMetrics: 1
CreationTime: 1486248193
ModificationTime: 1486413151
PfmFamily: 49
TTFWeight: 700
TTFWidth: 5
LineGap: 90
VLineGap: 0
OS2TypoAscent: 0
OS2TypoAOffset: 1
OS2TypoDescent: 0
OS2TypoDOffset: 1
OS2TypoLinegap: 90
OS2WinAscent: 0
OS2WinAOffset: 1
OS2WinDescent: 0
OS2WinDOffset: 1
HheadAscent: 0
HheadAOffset: 1
HheadDescent: 0
HheadDOffset: 1
OS2Vendor: 'PfEd'
MarkAttachClasses: 1
DEI: 91125

StartChar: glyph0
Encoding: 8593 8593 0
Width: 600
VWidth: 0
UnlinkRmOvrlpSave: 1
Flags: W
HStem: 200 21G<286 304.5 345.5 364> 200 21G<286 304.5 345.5 364> 533 100<98.4375 161.672 488.328 551.562> 617 100<221.328 271.624 378.376 428.672> 780 20G<286 304.5 345.5 364>
VStem: 90 150<541.438 621.574> 250 150<208.438 291.573 292.426 374.139 375.861 457.574 458.427 541.573 542.426 624.139 708.427 791.562> 410 150<541.438 621.574>
CounterMasks: 1 07
LayerCount: 2
Back
Fore
SplineSet
400 250 m 0x1f
 400 222 378 200 350 200 c 0
 341 200 332 203 325 207 c 1
 318 203 309 200 300 200 c 0
 272 200 250 222 250 250 c 0
 250 267 259 283 272 292 c 1
 259 301 250 316 250 333 c 1
 250 351 259 366 273 375 c 1
 259 384 250 399 250 417 c 0
 250 434 259 449 272 458 c 1
 259 467 250 483 250 500 c 1
 250 517 259 533 272 542 c 1
 259 551 250 566 250 583 c 0
 250 601 259 616 273 625 c 1
 272 626 l 0
 264 620 254 617 243 617 c 0x9f
 235 617 228 619 221 622 c 1
 232 613 240 599 240 583 c 1
 240 555 218 533 190 533 c 0
 181 533 172 536 165 540 c 1
 158 536 149 533 140 533 c 0
 112 533 90 555 90 583 c 0
 90 611 112 633 140 633 c 0x2f
 148 633 155 631 162 628 c 1
 151 637 143 651 143 667 c 1
 143 695 165 717 193 717 c 0
 202 717 211 714 218 710 c 1
 225 714 234 717 243 717 c 0
 254 717 264 714 272 708 c 0
 259 717 250 733 250 750 c 0
 250 778 272 800 300 800 c 0
 309 800 318 797 325 793 c 1
 332 797 341 800 350 800 c 0
 378 800 400 778 400 750 c 0
 400 733 391 717 378 708 c 1
 386 714 396 717 407 717 c 0
 416 717 425 714 432 710 c 1
 439 714 448 717 457 717 c 0x1f
 485 717 507 695 507 667 c 0
 507 651 499 637 488 628 c 1
 495 631 502 633 510 633 c 0
 538 633 560 611 560 583 c 0
 560 555 538 533 510 533 c 0
 501 533 492 536 485 540 c 1
 478 536 469 533 460 533 c 0x2f
 432 533 410 555 410 583 c 0
 410 599 418 613 429 622 c 1
 422 619 415 617 407 617 c 0
 396 617 386 620 378 626 c 0
 377 625 l 1
 391 616 400 601 400 583 c 0
 400 566 391 551 378 542 c 1
 391 533 400 517 400 500 c 0
 400 483 391 467 378 458 c 1
 391 449 400 434 400 417 c 0
 400 399 391 384 377 375 c 1
 391 366 400 351 400 333 c 0
 400 316 391 301 378 292 c 1
 391 283 400 267 400 250 c 0x1f
EndSplineSet
EndChar

StartChar: glyph1
Encoding: 8216 8216 1
Width: 600
VWidth: 0
UnlinkRmOvrlpSave: 1
Flags: W
HStem: 533 100<219.33 285.562> 780 20G<126 144.5 185.5 204>
VStem: 90 150<626.426 707.574 708.427 791.562> 144 150<541.438 623.574>
LayerCount: 2
Back
Fore
SplineSet
294 583 m 0xd0
 294 555 272 533 244 533 c 0
 235 533 226 536 219 540 c 1
 212 536 203 533 194 533 c 0
 166 533 144 555 144 583 c 0xd0
 144 600 152 615 165 624 c 1
 158 620 149 617 140 617 c 0
 112 617 90 639 90 667 c 0
 90 684 99 699 112 708 c 1
 99 717 90 733 90 750 c 0
 90 778 112 800 140 800 c 0
 149 800 158 797 165 793 c 1
 172 797 181 800 190 800 c 0
 218 800 240 778 240 750 c 0
 240 733 231 717 218 708 c 1
 231 699 240 684 240 667 c 0xe0
 240 650 232 635 219 626 c 1
 226 630 235 633 244 633 c 0
 272 633 294 611 294 583 c 0xd0
EndSplineSet
EndChar

StartChar: glyph2
Encoding: 8220 8220 2
Width: 600
VWidth: 0
UnlinkRmOvrlpSave: 1
Flags: W
HStem: 533 100<221.328 284.562 381.328 444.562> 617 183<112.88 161.672 272.88 321.672>
VStem: 90 150<628.426 707.574 708.427 791.562> 143 150<541.438 621.574> 250 150<628.426 707.574 708.427 791.562> 303 150<541.438 621.574>
LayerCount: 2
Back
Fore
SplineSet
453 583 m 0x84
 453 555 431 533 403 533 c 0
 394 533 385 536 378 540 c 1
 371 536 362 533 353 533 c 0
 325 533 303 555 303 583 c 0x84
 303 599 311 613 322 622 c 1
 315 619 308 617 300 617 c 0
 272 617 250 639 250 667 c 0
 250 684 259 699 272 708 c 1
 259 717 250 733 250 750 c 0
 250 778 272 800 300 800 c 0
 309 800 318 797 325 793 c 1
 332 797 341 800 350 800 c 0
 378 800 400 778 400 750 c 0
 400 733 391 717 378 708 c 1
 391 699 400 684 400 667 c 0x48
 400 651 392 637 381 628 c 1
 388 631 395 633 403 633 c 0
 431 633 453 611 453 583 c 0x84
293 583 m 0x90
 293 555 271 533 243 533 c 0
 234 533 225 536 218 540 c 1
 211 536 202 533 193 533 c 0
 165 533 143 555 143 583 c 0x90
 143 599 151 613 162 622 c 1
 155 619 148 617 140 617 c 0
 112 617 90 639 90 667 c 0
 90 684 99 699 112 708 c 1
 99 717 90 733 90 750 c 0
 90 778 112 800 140 800 c 0
 149 800 158 797 165 793 c 1
 172 797 181 800 190 800 c 0
 218 800 240 778 240 750 c 0
 240 733 231 717 218 708 c 1
 231 699 240 684 240 667 c 0x60
 240 651 232 637 221 628 c 1
 228 631 235 633 243 633 c 0
 271 633 293 611 293 583 c 0x90
EndSplineSet
EndChar

StartChar: dollar
Encoding: 36 36 4
Width: 600
VWidth: 0
UnlinkRmOvrlpSave: 1
Flags: W
HStem: 200 21G<286 304.5 345.5 364> 200 21G<286 304.5 345.5 364> 283 100<151.438 217.67 218.33 271.624 379.376 428.672> 367 100<491.285 551.562> 450 100<224.336 271.624 379.376 425.664> 533 100<98.4375 158.715> 617 100<221.328 271.624 378.376 431.67 432.33 498.562> 780 20G<286 304.5 345.5 364>
VStem: 90 150<546.667 621.574> 250 150<208.438 291.573 375.861 457.574 542.426 624.139 708.427 791.562> 410 150<378.426 453.333>
CounterMasks: 1 00e0
LayerCount: 2
Back
Fore
SplineSet
400 250 m 0x21e0
 400 222 378 200 350 200 c 0
 341 200 332 203 325 207 c 1
 318 203 309 200 300 200 c 0
 272 200 250 222 250 250 c 0
 250 267 259 283 272 292 c 1
 264 286 254 283 243 283 c 0
 234 283 225 286 218 290 c 1
 211 286 202 283 193 283 c 0
 165 283 143 305 143 333 c 0
 143 361 165 383 193 383 c 0
 202 383 211 380 218 376 c 1
 225 380 234 383 243 383 c 0
 254 383 264 380 272 374 c 0
 273 375 l 1
 259 384 250 399 250 417 c 0
 250 434 259 449 272 458 c 1
 272 459 l 0
 264 453 254 450 243 450 c 0
 234 450 225 453 218 457 c 1
 211 453 202 450 193 450 c 0xa9e0
 165 450 143 472 143 500 c 0
 143 515 149 528 159 537 c 1
 153 535 147 533 140 533 c 0
 112 533 90 555 90 583 c 0
 90 611 112 633 140 633 c 0x05e0
 148 633 155 631 162 628 c 1
 151 637 143 651 143 667 c 1
 143 695 165 717 193 717 c 0
 202 717 211 714 218 710 c 1
 225 714 234 717 243 717 c 0
 254 717 264 714 272 708 c 0
 259 717 250 733 250 750 c 0
 250 778 272 800 300 800 c 0
 309 800 318 797 325 793 c 1
 332 797 341 800 350 800 c 0
 378 800 400 778 400 750 c 0
 400 733 391 717 378 708 c 1
 386 714 396 717 407 717 c 0
 416 717 425 714 432 710 c 1
 439 714 448 717 457 717 c 0
 485 717 507 695 507 667 c 0
 507 639 485 617 457 617 c 0
 448 617 439 620 432 624 c 1
 425 620 416 617 407 617 c 0
 396 617 386 620 378 626 c 0
 377 625 l 1
 391 616 400 601 400 583 c 0
 400 566 391 551 378 542 c 1
 378 541 l 0
 386 547 396 550 407 550 c 0
 416 550 425 547 432 543 c 1
 439 547 448 550 457 550 c 0x0be0
 485 550 507 528 507 500 c 0
 507 485 501 472 491 463 c 1
 497 465 503 467 510 467 c 0
 538 467 560 445 560 417 c 0
 560 389 538 367 510 367 c 0x11e0
 502 367 495 369 488 372 c 1
 499 363 507 349 507 333 c 1
 507 305 485 283 457 283 c 0
 448 283 439 286 432 290 c 1
 425 286 416 283 407 283 c 0
 396 283 387 286 379 292 c 0
 378 292 l 1
 391 283 400 267 400 250 c 0x21e0
377 375 m 1
 379 374 l 0
 387 380 396 383 407 383 c 0
 415 383 422 381 429 378 c 1
 418 387 410 401 410 417 c 0
 410 432 416 445 426 454 c 1
 420 452 414 450 407 450 c 0
 396 450 387 453 379 459 c 0
 378 458 l 1
 391 449 400 434 400 417 c 0
 400 399 391 384 377 375 c 1
224 546 m 1
 230 548 236 550 243 550 c 0
 254 550 264 547 272 541 c 0
 272 542 l 1
 259 551 250 566 250 583 c 0
 250 601 259 616 273 625 c 1
 272 626 l 0
 264 620 254 617 243 617 c 0x0be0
 235 617 228 619 221 622 c 1
 232 613 240 599 240 583 c 1
 240 568 234 555 224 546 c 1
EndSplineSet
EndChar

StartChar: section
Encoding: 167 167 5
Width: 600
VWidth: 0
UnlinkRmOvrlpSave: 1
Flags: W
HStem: 200 100<98.4375 164.67 165.33 218.624 219.376 265.664> 450 100<151.438 213.718 436.282 498.562> 613 20G<233 251 399 417> 700 100<384.336 431.624 432.376 484.67 485.33 551.562>
VStem: 90 257<209.117 286.333> 143 150<462.426 537.574> 197 256<375.438 454.574 545.426 624.562> 250 150<296.667 371.574 628.426 703.333> 303 257<713.667 790.883> 357 150<462.426 537.574>
LayerCount: 2
Back
Fore
SplineSet
347 250 m 1xf8
 347 222 325 200 297 200 c 0
 288 200 279 203 272 207 c 1
 265 203 256 200 247 200 c 0
 236 200 227 203 219 209 c 1
 211 203 201 200 190 200 c 0
 181 200 172 203 165 207 c 1
 158 203 149 200 140 200 c 0
 112 200 90 222 90 250 c 0xf8
 90 278 112 300 140 300 c 0
 149 300 158 297 165 293 c 1
 172 297 181 300 190 300 c 0
 201 300 211 297 219 291 c 1
 227 297 236 300 247 300 c 0
 254 300 260 298 266 296 c 1
 256 305 250 318 250 333 c 0xf1
 250 349 258 363 269 372 c 1
 262 369 255 367 247 367 c 0
 219 367 197 389 197 417 c 0xf2
 197 432 204 446 214 455 c 1
 208 452 201 450 193 450 c 0
 165 450 143 472 143 500 c 0xf4
 143 528 165 550 193 550 c 0
 201 550 208 548 214 545 c 1
 204 554 197 568 197 583 c 1xf2
 197 611 219 633 247 633 c 0
 255 633 262 631 269 628 c 1
 258 637 250 651 250 667 c 1xf1
 250 695 272 717 300 717 c 0
 307 717 313 715 319 713 c 1
 309 722 303 735 303 750 c 1
 303 778 325 800 353 800 c 0
 362 800 371 797 378 793 c 1
 385 797 394 800 403 800 c 0
 414 800 424 797 432 791 c 1
 440 797 449 800 460 800 c 0
 469 800 478 797 485 793 c 1
 492 797 501 800 510 800 c 0
 538 800 560 778 560 750 c 0xf080
 560 722 538 700 510 700 c 0
 501 700 492 703 485 707 c 1
 478 703 469 700 460 700 c 0
 449 700 440 703 432 709 c 1
 424 703 414 700 403 700 c 0
 396 700 390 702 384 704 c 1
 394 695 400 682 400 667 c 1xf1
 400 651 392 637 381 628 c 1
 388 631 395 633 403 633 c 0
 431 633 453 611 453 583 c 0xf2
 453 568 446 554 436 545 c 1
 442 548 449 550 457 550 c 0
 485 550 507 528 507 500 c 0xf040
 507 472 485 450 457 450 c 0
 449 450 442 452 436 455 c 1
 446 446 453 432 453 417 c 0xf2
 453 389 431 367 403 367 c 0
 395 367 388 369 381 372 c 1
 392 363 400 349 400 333 c 1xf1
 400 305 378 283 350 283 c 0
 343 283 337 285 331 287 c 1
 341 278 347 265 347 250 c 1xf8
276 462 m 1
 282 465 289 467 297 467 c 0
 307 467 317 463 325 458 c 1
 333 463 343 467 353 467 c 0
 361 467 368 465 374 462 c 1
 364 471 357 485 357 500 c 0
 357 515 364 529 374 538 c 1
 368 535 361 533 353 533 c 0
 343 533 333 537 325 542 c 1
 317 537 307 533 297 533 c 0
 289 533 282 535 276 538 c 1
 286 529 293 515 293 500 c 0xf440
 293 485 286 471 276 462 c 1
EndSplineSet
EndChar

StartChar: parenleft
Encoding: 40 40 6
Width: 600
VWidth: 0
UnlinkRmOvrlpSave: 1
Flags: W
HStem: 200 100<277.336 337.562> 200 21G<232 250.5> 613 20G<126 144> 700 100<277.336 337.562>
VStem: 90 150<378.426 457.574 458.427 541.573 542.426 621.574> 143 150<296.667 371.574 628.426 703.333> 196 150<208.438 286.333 713.667 791.562>
LayerCount: 2
Back
Fore
SplineSet
346 250 m 0xb2
 346 222 324 200 296 200 c 0xb2
 287 200 278 203 271 207 c 1
 264 203 255 200 246 200 c 0
 218 200 196 222 196 250 c 0x72
 196 265 202 278 212 287 c 1
 206 285 200 283 193 283 c 0
 165 283 143 305 143 333 c 0x74
 143 349 151 363 162 372 c 1
 155 369 148 367 140 367 c 0
 112 367 90 389 90 417 c 0
 90 434 99 449 112 458 c 1
 99 467 90 483 90 500 c 1
 90 517 99 533 112 542 c 1
 99 551 90 566 90 583 c 0x78
 90 611 112 633 140 633 c 0
 148 633 155 631 162 628 c 1
 151 637 143 651 143 667 c 1x74
 143 695 165 717 193 717 c 0
 200 717 206 715 212 713 c 1
 202 722 196 735 196 750 c 1
 196 778 218 800 246 800 c 0
 255 800 264 797 271 793 c 1
 278 797 287 800 296 800 c 0
 324 800 346 778 346 750 c 0x72
 346 722 324 700 296 700 c 0
 289 700 283 702 277 704 c 1
 287 695 293 682 293 667 c 1x74
 293 639 271 617 243 617 c 0
 235 617 228 619 221 622 c 1
 232 613 240 599 240 583 c 1
 240 566 231 551 218 542 c 1
 231 533 240 517 240 500 c 0
 240 483 231 467 218 458 c 1
 231 449 240 434 240 417 c 0x78
 240 401 232 387 221 378 c 1
 228 381 235 383 243 383 c 0
 271 383 293 361 293 333 c 0x74
 293 318 287 305 277 296 c 1
 283 298 289 300 296 300 c 0
 324 300 346 278 346 250 c 0xb2
EndSplineSet
EndChar

StartChar: comma
Encoding: 44 44 7
Width: 600
VWidth: 0
UnlinkRmOvrlpSave: 1
Flags: W
HStem: 200 100<98.4375 158.664> 200 21G<185.5 204> 367 183<112.88 161.672 274.328 323.12>
VStem: 90 256<375.438 457.574 459.311 540.883> 90 150<208.438 286.333> 143 150<296.667 371.574>
LayerCount: 2
Back
Fore
SplineSet
240 250 m 1xa8
 240 222 218 200 190 200 c 0x68
 181 200 172 203 165 207 c 1
 158 203 149 200 140 200 c 0
 112 200 90 222 90 250 c 0xa8
 90 278 112 300 140 300 c 0
 147 300 153 298 159 296 c 1
 149 305 143 318 143 333 c 0xa4
 143 349 151 363 162 372 c 1
 155 369 148 367 140 367 c 0
 112 367 90 389 90 417 c 0
 90 434 99 449 112 458 c 1
 99 467 90 483 90 500 c 1
 90 528 112 550 140 550 c 0
 149 550 158 547 165 543 c 1
 172 547 181 550 190 550 c 0
 200 550 210 546 218 541 c 1
 226 546 236 550 246 550 c 0
 255 550 264 547 271 543 c 1
 278 547 287 550 296 550 c 0
 324 550 346 528 346 500 c 0
 346 483 337 467 324 458 c 1
 337 449 346 434 346 417 c 0xb0
 346 389 324 367 296 367 c 0
 288 367 281 369 274 372 c 1
 285 363 293 349 293 333 c 1xa4
 293 305 271 283 243 283 c 0
 236 283 230 285 224 287 c 1
 234 278 240 265 240 250 c 1xa8
218 458 m 1
 218 459 l 0
 218 458 l 1
EndSplineSet
EndChar

StartChar: zero
Encoding: 48 48 8
Width: 600
VWidth: 0
UnlinkRmOvrlpSave: 1
Flags: W
HStem: 200 183<221.941 271.67 378.33 428.059> 200 100<276.282 324.624 325.376 373.718> 613 20G<126 144 506 524> 617 183<221.941 271.67 378.33 428.059> 700 100<276.282 324.624 325.376 373.718>
VStem: 90 150<378.426 457.574 458.427 541.573 542.426 621.574> 143 150<295.426 371.574 628.426 704.574> 197 256<209.117 287.574 712.426 790.883> 357 150<295.426 371.574 628.426 704.574> 410 150<378.426 457.574 458.427 541.573 542.426 621.574>
LayerCount: 2
Back
Fore
SplineSet
453 250 m 0x21
 453 222 431 200 403 200 c 0xa1
 394 200 385 203 378 207 c 1
 371 203 362 200 353 200 c 0
 343 200 333 204 325 209 c 1
 317 204 307 200 297 200 c 0x41
 288 200 279 203 272 207 c 1
 265 203 256 200 247 200 c 0
 219 200 197 222 197 250 c 0x81
 197 265 204 279 214 288 c 1
 208 285 201 283 193 283 c 0
 165 283 143 305 143 333 c 0x82
 143 349 151 363 162 372 c 1
 155 369 148 367 140 367 c 0
 112 367 90 389 90 417 c 0
 90 434 99 449 112 458 c 1
 99 467 90 483 90 500 c 1
 90 517 99 533 112 542 c 1
 99 551 90 566 90 583 c 0x84
 90 611 112 633 140 633 c 0
 148 633 155 631 162 628 c 1
 151 637 143 651 143 667 c 1xa2
 143 695 165 717 193 717 c 0
 201 717 208 715 214 712 c 1
 204 721 197 735 197 750 c 1
 197 778 219 800 247 800 c 0x11
 256 800 265 797 272 793 c 1
 279 797 288 800 297 800 c 0
 307 800 317 796 325 791 c 1
 333 796 343 800 353 800 c 0x09
 362 800 371 797 378 793 c 1
 385 797 394 800 403 800 c 0
 431 800 453 778 453 750 c 0x11
 453 735 446 721 436 712 c 1
 442 715 449 717 457 717 c 0
 485 717 507 695 507 667 c 0x1080
 507 651 499 637 488 628 c 1
 495 631 502 633 510 633 c 0
 538 633 560 611 560 583 c 0
 560 566 551 551 538 542 c 1
 551 533 560 517 560 500 c 0
 560 483 551 467 538 458 c 1
 551 449 560 434 560 417 c 0x2040
 560 389 538 367 510 367 c 0
 502 367 495 369 488 372 c 1
 499 363 507 349 507 333 c 1x2080
 507 305 485 283 457 283 c 0
 449 283 442 285 436 288 c 1
 446 279 453 265 453 250 c 0x21
293 667 m 0x0a80
 293 639 271 617 243 617 c 0
 235 617 228 619 221 622 c 1
 232 613 240 599 240 583 c 1
 240 566 231 551 218 542 c 1
 231 533 240 517 240 500 c 0
 240 483 231 467 218 458 c 1
 231 449 240 434 240 417 c 0
 240 401 232 387 221 378 c 1
 228 381 235 383 243 383 c 0x94
 271 383 293 361 293 333 c 0
 293 318 286 304 276 295 c 1
 282 298 289 300 297 300 c 0
 307 300 317 296 325 291 c 1
 333 296 343 300 353 300 c 0
 361 300 368 298 374 295 c 1
 364 304 357 318 357 333 c 0x4280
 357 361 379 383 407 383 c 0
 415 383 422 381 429 378 c 1
 418 387 410 401 410 417 c 0
 410 434 419 449 432 458 c 1
 419 467 410 483 410 500 c 0
 410 517 419 533 432 542 c 1
 419 551 410 566 410 583 c 0
 410 599 418 613 429 622 c 1
 422 619 415 617 407 617 c 0x9040
 379 617 357 639 357 667 c 0
 357 682 364 696 374 705 c 1
 368 702 361 700 353 700 c 0
 343 700 333 704 325 709 c 1
 317 704 307 700 297 700 c 0
 289 700 282 702 276 705 c 1
 286 696 293 682 293 667 c 0x0a80
EndSplineSet
EndChar

StartChar: glyph9
Encoding: 9785 9785 9
Width: 600
VWidth: 0
UnlinkRmOvrlpSave: 1
Flags: W
HStem: 283 100<98.4375 161.672 488.328 551.562> 367 100<221.328 271.624 272.376 324.67 325.33 378.624 379.376 428.672> 617 100<151.438 217.67 218.33 284.562 365.438 431.67 432.33 498.562>
VStem: 90 150<291.438 371.574> 143 150<625.438 708.562> 357 150<625.438 708.562> 410 150<291.438 371.574>
LayerCount: 2
Back
Fore
SplineSet
560 333 m 0xa2
 560 305 538 283 510 283 c 0
 501 283 492 286 485 290 c 1
 478 286 469 283 460 283 c 0xa2
 432 283 410 305 410 333 c 0
 410 349 418 363 429 372 c 1
 422 369 415 367 407 367 c 0
 396 367 387 370 379 376 c 1
 371 370 361 367 350 367 c 0
 341 367 332 370 325 374 c 1
 318 370 309 367 300 367 c 0
 289 367 280 370 272 376 c 1
 264 370 254 367 243 367 c 0x62
 235 367 228 369 221 372 c 1
 232 363 240 349 240 333 c 1
 240 305 218 283 190 283 c 0
 181 283 172 286 165 290 c 1
 158 286 149 283 140 283 c 0
 112 283 90 305 90 333 c 0
 90 361 112 383 140 383 c 0xb2
 148 383 155 381 162 378 c 1
 151 387 143 401 143 417 c 0
 143 445 165 467 193 467 c 0
 202 467 211 464 218 460 c 1
 225 464 234 467 243 467 c 0
 254 467 264 464 272 458 c 1
 280 464 289 467 300 467 c 0
 309 467 318 464 325 460 c 1
 332 464 341 467 350 467 c 0
 361 467 371 464 379 458 c 1
 387 464 396 467 407 467 c 0
 416 467 425 464 432 460 c 1
 439 464 448 467 457 467 c 0
 485 467 507 445 507 417 c 0x6c
 507 401 499 387 488 378 c 1
 495 381 502 383 510 383 c 0
 538 383 560 361 560 333 c 0xa2
507 667 m 0x24
 507 639 485 617 457 617 c 0
 448 617 439 620 432 624 c 1
 425 620 416 617 407 617 c 0
 379 617 357 639 357 667 c 0
 357 695 379 717 407 717 c 0
 416 717 425 714 432 710 c 1
 439 714 448 717 457 717 c 0
 485 717 507 695 507 667 c 0x24
293 667 m 0x28
 293 639 271 617 243 617 c 0
 234 617 225 620 218 624 c 1
 211 620 202 617 193 617 c 0
 165 617 143 639 143 667 c 0
 143 695 165 717 193 717 c 0
 202 717 211 714 218 710 c 1
 225 714 234 717 243 717 c 0
 271 717 293 695 293 667 c 0x28
EndSplineSet
EndChar

StartChar: four
Encoding: 52 52 10
Width: 600
VWidth: 0
UnlinkRmOvrlpSave: 1
Flags: W
HStem: 200 21G<393 411.5 452.5 471> 200 21G<393 411.5 452.5 471> 367 100<98.4375 158.664 276.282 324.624 325.376 373.718 491.285 551.562> 613 20G<233 251> 780 20G<339 357.5 398.5 417>
VStem: 143 150<463.425 537.574> 197 150<545.426 621.574> 250 257<628.426 708.562> 303 150<713.425 791.562> 357 150<208.438 291.573 292.426 371.574 463.425 541.573 542.426 624.139>
LayerCount: 2
Back
Fore
SplineSet
507 250 m 0xb840
 507 222 485 200 457 200 c 0
 448 200 439 203 432 207 c 1
 425 203 416 200 407 200 c 0
 379 200 357 222 357 250 c 0
 357 267 366 283 379 292 c 1
 366 301 357 316 357 333 c 0
 357 350 365 365 378 374 c 1
 371 370 362 367 353 367 c 0
 343 367 333 371 325 376 c 1
 317 371 307 367 297 367 c 0
 288 367 279 370 272 374 c 1
 265 370 256 367 247 367 c 0
 236 367 227 370 219 376 c 1
 211 370 201 367 190 367 c 0
 181 367 172 370 165 374 c 1
 158 370 149 367 140 367 c 0
 112 367 90 389 90 417 c 0
 90 445 112 467 140 467 c 0
 147 467 153 465 159 463 c 1
 149 472 143 485 143 500 c 0xbc40
 143 528 165 550 193 550 c 0
 201 550 208 548 214 545 c 1
 204 554 197 568 197 583 c 1xba
 197 611 219 633 247 633 c 0
 255 633 262 631 269 628 c 1
 258 637 250 651 250 667 c 1xb9
 250 695 272 717 300 717 c 0
 307 717 313 715 319 713 c 1
 309 722 303 735 303 750 c 1
 303 778 325 800 353 800 c 0
 362 800 371 797 378 793 c 1
 385 797 394 800 403 800 c 0
 431 800 453 778 453 750 c 0xb880
 453 735 446 721 436 712 c 1
 442 715 449 717 457 717 c 0
 485 717 507 695 507 667 c 0xb9
 507 649 498 634 484 625 c 1
 498 616 507 601 507 583 c 0
 507 566 498 551 485 542 c 1
 498 533 507 517 507 500 c 0
 507 485 501 472 491 463 c 1
 497 465 503 467 510 467 c 0
 538 467 560 445 560 417 c 0
 560 389 538 367 510 367 c 0
 502 367 495 369 488 372 c 1
 499 363 507 349 507 333 c 1
 507 316 498 301 485 292 c 1
 498 283 507 267 507 250 c 0xb840
347 583 m 1x3a40
 347 555 325 533 297 533 c 0
 289 533 282 535 276 538 c 1
 286 529 293 515 293 500 c 0x3c
 293 485 286 471 276 462 c 1
 282 465 289 467 297 467 c 0
 307 467 317 463 325 458 c 1
 333 463 343 467 353 467 c 0
 361 467 368 465 374 462 c 1
 364 471 357 485 357 500 c 0
 357 517 366 533 379 542 c 1
 366 551 357 566 357 583 c 0
 357 601 366 616 380 625 c 1
 378 626 l 0
 370 620 361 617 350 617 c 0
 342 617 335 619 328 622 c 1
 339 613 347 599 347 583 c 1x3a40
EndSplineSet
EndChar

StartChar: periodcentered
Encoding: 183 183 11
Width: 600
VWidth: 0
UnlinkRmOvrlpSave: 1
Flags: W
HStem: 367 266<161.122 218.67 219.33 271.624 272.376 324.67 325.33 382.878> 450 100<98.4375 160.718 383.282 445.562>
VStem: 144 256<376.117 454.574 545.426 623.883>
LayerCount: 2
Back
Fore
SplineSet
400 417 m 0x60
 400 389 378 367 350 367 c 0
 341 367 332 370 325 374 c 1
 318 370 309 367 300 367 c 0
 290 367 280 371 272 376 c 1
 264 371 254 367 244 367 c 0
 235 367 226 370 219 374 c 1
 212 370 203 367 194 367 c 0xa0
 166 367 144 389 144 417 c 0
 144 432 151 446 161 455 c 1
 155 452 148 450 140 450 c 0
 112 450 90 472 90 500 c 0
 90 528 112 550 140 550 c 0x60
 148 550 155 548 161 545 c 1
 151 554 144 568 144 583 c 1
 144 611 166 633 194 633 c 0
 203 633 212 630 219 626 c 1
 226 630 235 633 244 633 c 0
 254 633 264 629 272 624 c 1
 280 629 290 633 300 633 c 0
 309 633 318 630 325 626 c 1
 332 630 341 633 350 633 c 0xa0
 378 633 400 611 400 583 c 0
 400 568 393 554 383 545 c 1
 389 548 396 550 404 550 c 0
 432 550 454 528 454 500 c 0
 454 472 432 450 404 450 c 0
 396 450 389 452 383 455 c 1
 393 446 400 432 400 417 c 0x60
EndSplineSet
EndChar

StartChar: eight
Encoding: 56 56 12
Width: 600
VWidth: 0
UnlinkRmOvrlpSave: 1
Flags: W
HStem: 200 100<224.336 271.624 272.376 324.67 325.33 378.624 379.376 425.664> 450 100<224.281 271.624 272.376 324.67 325.33 377.624 378.376 378.624 379.376 425.719> 700 100<224.336 271.624 272.376 324.67 325.33 377.624 378.376 425.664>
VStem: 90 150<296.667 374.139 375.861 453.333 546.667 624.139 625.861 703.333> 410 150<296.667 374.139 375.861 453.333 546.667 624.139 625.861 703.333>
CounterMasks: 1 e0
LayerCount: 2
Back
Fore
SplineSet
507 250 m 1
 507 222 485 200 457 200 c 0
 448 200 439 203 432 207 c 1
 425 203 416 200 407 200 c 0
 396 200 387 203 379 209 c 1
 371 203 361 200 350 200 c 0
 341 200 332 203 325 207 c 1
 318 203 309 200 300 200 c 0
 289 200 280 203 272 209 c 1
 264 203 254 200 243 200 c 0
 234 200 225 203 218 207 c 1
 211 203 202 200 193 200 c 0
 165 200 143 222 143 250 c 0
 143 265 149 278 159 287 c 1
 153 285 147 283 140 283 c 0
 112 283 90 305 90 333 c 0
 90 351 99 366 113 375 c 1
 99 384 90 399 90 417 c 0
 90 445 112 467 140 467 c 0
 147 467 153 465 159 463 c 1
 149 472 143 485 143 500 c 0
 143 515 149 528 159 537 c 1
 153 535 147 533 140 533 c 0
 112 533 90 555 90 583 c 0
 90 601 99 616 113 625 c 1
 99 634 90 649 90 667 c 0
 90 695 112 717 140 717 c 0
 147 717 153 715 159 713 c 1
 149 722 143 735 143 750 c 0
 143 778 165 800 193 800 c 0
 202 800 211 797 218 793 c 1
 225 797 234 800 243 800 c 0
 254 800 264 797 272 791 c 1
 280 797 289 800 300 800 c 0
 309 800 318 797 325 793 c 1
 332 797 341 800 350 800 c 0
 361 800 370 797 378 791 c 1
 386 797 396 800 407 800 c 0
 416 800 425 797 432 793 c 1
 439 797 448 800 457 800 c 0
 485 800 507 778 507 750 c 0
 507 735 501 722 491 713 c 1
 497 715 503 717 510 717 c 0
 538 717 560 695 560 667 c 0
 560 649 551 634 537 625 c 1
 551 616 560 601 560 583 c 0
 560 555 538 533 510 533 c 0
 503 533 497 535 491 537 c 1
 501 528 507 515 507 500 c 1
 507 485 501 472 491 463 c 1
 497 465 503 467 510 467 c 0
 538 467 560 445 560 417 c 0
 560 399 551 384 537 375 c 1
 551 366 560 351 560 333 c 0
 560 305 538 283 510 283 c 0
 503 283 497 285 491 287 c 1
 501 278 507 265 507 250 c 1
224 296 m 1
 230 298 236 300 243 300 c 0
 254 300 264 297 272 291 c 1
 280 297 289 300 300 300 c 0
 309 300 318 297 325 293 c 1
 332 297 341 300 350 300 c 0
 361 300 371 297 379 291 c 1
 387 297 396 300 407 300 c 0
 414 300 420 298 426 296 c 1
 416 305 410 318 410 333 c 1
 410 351 419 366 433 375 c 1
 419 384 410 399 410 417 c 1
 410 432 416 445 426 454 c 1
 420 452 414 450 407 450 c 0
 396 450 387 453 379 459 c 1
 371 453 361 450 350 450 c 0
 341 450 332 453 325 457 c 1
 318 453 309 450 300 450 c 0
 289 450 280 453 272 459 c 1
 264 453 254 450 243 450 c 0
 236 450 230 452 224 454 c 1
 234 445 240 432 240 417 c 1
 240 399 231 384 217 375 c 1
 231 366 240 351 240 333 c 1
 240 318 234 305 224 296 c 1
224 546 m 1
 230 548 236 550 243 550 c 0
 254 550 264 547 272 541 c 1
 280 547 289 550 300 550 c 0
 309 550 318 547 325 543 c 1
 332 547 341 550 350 550 c 0
 361 550 370 547 378 541 c 1
 386 547 396 550 407 550 c 0
 414 550 420 548 426 546 c 1
 416 555 410 568 410 583 c 1
 410 601 419 616 433 625 c 1
 419 634 410 649 410 667 c 0
 410 682 416 695 426 704 c 1
 420 702 414 700 407 700 c 0
 396 700 386 703 378 709 c 1
 370 703 361 700 350 700 c 0
 341 700 332 703 325 707 c 1
 318 703 309 700 300 700 c 0
 289 700 280 703 272 709 c 1
 264 703 254 700 243 700 c 0
 236 700 230 702 224 704 c 1
 234 695 240 682 240 667 c 1
 240 649 231 634 217 625 c 1
 231 616 240 601 240 583 c 1
 240 568 234 555 224 546 c 1
EndSplineSet
EndChar

StartChar: less
Encoding: 60 60 13
Width: 600
VWidth: 0
UnlinkRmOvrlpSave: 1
Flags: W
HStem: 200 100<418.438 484.67 485.33 551.562> 283 100<311.438 377.67 378.33 444.562> 367 100<205.438 271.67 272.33 338.562> 450 100<98.4375 164.67 165.33 231.562> 533 100<205.438 271.67 272.33 338.562> 617 100<311.438 377.67 378.33 444.562> 700 100<418.438 484.67 485.33 551.562>
VStem: 90 150<458.438 541.562> 197 150<375.438 458.562 541.438 624.562> 303 150<291.438 374.562 625.438 708.562> 410 150<208.438 291.562 708.438 791.562>
LayerCount: 2
Back
Fore
SplineSet
560 250 m 0x8020
 560 222 538 200 510 200 c 0
 501 200 492 203 485 207 c 1
 478 203 469 200 460 200 c 0
 432 200 410 222 410 250 c 0
 410 278 432 300 460 300 c 0
 469 300 478 297 485 293 c 1
 492 297 501 300 510 300 c 0
 538 300 560 278 560 250 c 0x8020
453 333 m 0x4040
 453 305 431 283 403 283 c 0
 394 283 385 286 378 290 c 1
 371 286 362 283 353 283 c 0
 325 283 303 305 303 333 c 0
 303 361 325 383 353 383 c 0
 362 383 371 380 378 376 c 1
 385 380 394 383 403 383 c 0
 431 383 453 361 453 333 c 0x4040
347 417 m 0x2080
 347 389 325 367 297 367 c 0
 288 367 279 370 272 374 c 1
 265 370 256 367 247 367 c 0
 219 367 197 389 197 417 c 0
 197 445 219 467 247 467 c 0
 256 467 265 464 272 460 c 1
 279 464 288 467 297 467 c 0
 325 467 347 445 347 417 c 0x2080
240 500 m 0x11
 240 472 218 450 190 450 c 0
 181 450 172 453 165 457 c 1
 158 453 149 450 140 450 c 0
 112 450 90 472 90 500 c 0
 90 528 112 550 140 550 c 0
 149 550 158 547 165 543 c 1
 172 547 181 550 190 550 c 0
 218 550 240 528 240 500 c 0x11
347 583 m 0x0880
 347 555 325 533 297 533 c 0
 288 533 279 536 272 540 c 1
 265 536 256 533 247 533 c 0
 219 533 197 555 197 583 c 0
 197 611 219 633 247 633 c 0
 256 633 265 630 272 626 c 1
 279 630 288 633 297 633 c 0
 325 633 347 611 347 583 c 0x0880
453 667 m 0x0440
 453 639 431 617 403 617 c 0
 394 617 385 620 378 624 c 1
 371 620 362 617 353 617 c 0
 325 617 303 639 303 667 c 0
 303 695 325 717 353 717 c 0
 362 717 371 714 378 710 c 1
 385 714 394 717 403 717 c 0
 431 717 453 695 453 667 c 0x0440
560 750 m 0x0220
 560 722 538 700 510 700 c 0
 501 700 492 703 485 707 c 1
 478 703 469 700 460 700 c 0
 432 700 410 722 410 750 c 0
 410 778 432 800 460 800 c 0
 469 800 478 797 485 793 c 1
 492 797 501 800 510 800 c 0
 538 800 560 778 560 750 c 0x0220
EndSplineSet
EndChar

StartChar: at
Encoding: 64 64 14
Width: 600
VWidth: 0
UnlinkRmOvrlpSave: 1
Flags: W
HStem: 200 100<224.336 271.624 272.376 324.67 325.33 378.624 379.376 431.67 432.33 498.562> 367 100<379.376 425.664> 533 100<384.336 431.624> 700 100<224.336 271.624 272.376 324.67 325.33 377.624 378.376 425.664>
VStem: 90 150<296.667 374.139 375.861 457.574 458.427 541.573 542.426 624.139 625.861 703.333> 250 257<376.117 453.575> 250 150<458.427 536.333> 410 150<463.667 541.573 625.861 703.333>
LayerCount: 2
Back
Fore
SplineSet
507 250 m 0xfc
 507 222 485 200 457 200 c 0
 448 200 439 203 432 207 c 1
 425 203 416 200 407 200 c 0
 396 200 387 203 379 209 c 1
 371 203 361 200 350 200 c 0
 341 200 332 203 325 207 c 1
 318 203 309 200 300 200 c 0
 289 200 280 203 272 209 c 1
 264 203 254 200 243 200 c 0
 234 200 225 203 218 207 c 1
 211 203 202 200 193 200 c 0
 165 200 143 222 143 250 c 0
 143 265 149 278 159 287 c 1
 153 285 147 283 140 283 c 0
 112 283 90 305 90 333 c 0
 90 351 99 366 113 375 c 1
 99 384 90 399 90 417 c 0
 90 434 99 449 112 458 c 1
 99 467 90 483 90 500 c 1
 90 517 99 533 112 542 c 1
 99 551 90 566 90 583 c 0
 90 601 99 616 113 625 c 1
 99 634 90 649 90 667 c 0
 90 695 112 717 140 717 c 0
 147 717 153 715 159 713 c 1
 149 722 143 735 143 750 c 0
 143 778 165 800 193 800 c 0
 202 800 211 797 218 793 c 1
 225 797 234 800 243 800 c 0
 254 800 264 797 272 791 c 1
 280 797 289 800 300 800 c 0
 309 800 318 797 325 793 c 1
 332 797 341 800 350 800 c 0
 361 800 370 797 378 791 c 1
 386 797 396 800 407 800 c 0
 416 800 425 797 432 793 c 1
 439 797 448 800 457 800 c 0
 485 800 507 778 507 750 c 0xfc
 507 735 501 722 491 713 c 1
 497 715 503 717 510 717 c 0
 538 717 560 695 560 667 c 0
 560 649 551 634 537 625 c 1
 551 616 560 601 560 583 c 0
 560 566 551 551 538 542 c 1
 551 533 560 517 560 500 c 0xf9
 560 472 538 450 510 450 c 0
 503 450 497 452 491 454 c 1
 501 445 507 432 507 417 c 1
 507 389 485 367 457 367 c 0
 448 367 439 370 432 374 c 1
 425 370 416 367 407 367 c 0
 396 367 387 370 379 376 c 1
 371 370 361 367 350 367 c 0
 341 367 332 370 325 374 c 1
 318 370 309 367 300 367 c 0
 272 367 250 389 250 417 c 0xfc
 250 434 259 449 272 458 c 1
 259 467 250 483 250 500 c 1
 250 528 272 550 300 550 c 0
 307 550 313 548 319 546 c 1
 309 555 303 568 303 583 c 1
 303 611 325 633 353 633 c 0
 362 633 371 630 378 626 c 1
 385 630 394 633 403 633 c 0
 414 633 424 630 432 624 c 0
 433 625 l 1
 419 634 410 649 410 667 c 0xfb
 410 682 416 695 426 704 c 1
 420 702 414 700 407 700 c 0
 396 700 386 703 378 709 c 1
 370 703 361 700 350 700 c 0
 341 700 332 703 325 707 c 1
 318 703 309 700 300 700 c 0
 289 700 280 703 272 709 c 1
 264 703 254 700 243 700 c 0
 236 700 230 702 224 704 c 1
 234 695 240 682 240 667 c 1
 240 649 231 634 217 625 c 1
 231 616 240 601 240 583 c 1
 240 566 231 551 218 542 c 1
 231 533 240 517 240 500 c 0
 240 483 231 467 218 458 c 1
 231 449 240 434 240 417 c 0
 240 399 231 384 217 375 c 1
 231 366 240 351 240 333 c 1
 240 318 234 305 224 296 c 1
 230 298 236 300 243 300 c 0
 254 300 264 297 272 291 c 1
 280 297 289 300 300 300 c 0
 309 300 318 297 325 293 c 1
 332 297 341 300 350 300 c 0
 361 300 371 297 379 291 c 1
 387 297 396 300 407 300 c 0
 416 300 425 297 432 293 c 1
 439 297 448 300 457 300 c 0
 485 300 507 278 507 250 c 0xfc
378 458 m 1
 379 458 l 0
 387 464 396 467 407 467 c 0
 414 467 420 465 426 463 c 1
 416 472 410 485 410 500 c 1
 410 517 419 533 432 542 c 1
 424 536 414 533 403 533 c 0
 396 533 390 535 384 537 c 1
 394 528 400 515 400 500 c 1xfb
 400 483 391 467 378 458 c 1
EndSplineSet
EndChar

StartChar: D
Encoding: 68 68 15
Width: 600
VWidth: 0
UnlinkRmOvrlpSave: 1
Flags: W
HStem: 200 100<98.4375 158.664 276.282 324.624 325.376 377.67 378.33 444.562> 700 100<98.4375 158.664 276.282 324.624 325.376 377.67 378.33 444.562>
VStem: 143 150<296.425 374.139 375.861 457.574 458.427 541.573 542.426 624.139 625.861 703.575> 410 150<291.438 374.139 375.861 457.574 458.427 541.573 542.426 624.139 625.861 708.562>
LayerCount: 2
Back
Fore
SplineSet
453 250 m 0
 453 222 431 200 403 200 c 0
 394 200 385 203 378 207 c 1
 371 203 362 200 353 200 c 0
 343 200 333 204 325 209 c 1
 317 204 307 200 297 200 c 0
 288 200 279 203 272 207 c 1
 265 203 256 200 247 200 c 0
 236 200 227 203 219 209 c 1
 211 203 201 200 190 200 c 0
 181 200 172 203 165 207 c 1
 158 203 149 200 140 200 c 0
 112 200 90 222 90 250 c 0
 90 278 112 300 140 300 c 0
 147 300 153 298 159 296 c 1
 149 305 143 318 143 333 c 0
 143 351 152 366 166 375 c 1
 152 384 143 399 143 417 c 0
 143 434 152 449 165 458 c 1
 152 467 143 483 143 500 c 1
 143 517 152 533 165 542 c 1
 152 551 143 566 143 583 c 0
 143 601 152 616 166 625 c 1
 152 634 143 649 143 667 c 0
 143 682 149 695 159 704 c 1
 153 702 147 700 140 700 c 0
 112 700 90 722 90 750 c 0
 90 778 112 800 140 800 c 0
 149 800 158 797 165 793 c 1
 172 797 181 800 190 800 c 0
 201 800 211 797 219 791 c 1
 227 797 236 800 247 800 c 0
 256 800 265 797 272 793 c 1
 279 797 288 800 297 800 c 0
 307 800 317 796 325 791 c 1
 333 796 343 800 353 800 c 0
 362 800 371 797 378 793 c 1
 385 797 394 800 403 800 c 0
 431 800 453 778 453 750 c 0
 453 722 431 700 403 700 c 0
 394 700 385 703 378 707 c 1
 371 703 362 700 353 700 c 0
 343 700 333 704 325 709 c 1
 317 704 307 700 297 700 c 0
 289 700 282 702 276 705 c 1
 286 696 293 682 293 667 c 0
 293 649 284 634 270 625 c 1
 284 616 293 601 293 583 c 1
 293 566 284 551 271 542 c 1
 284 533 293 517 293 500 c 0
 293 483 284 467 271 458 c 1
 284 449 293 434 293 417 c 0
 293 399 284 384 270 375 c 1
 284 366 293 351 293 333 c 1
 293 318 286 304 276 295 c 1
 282 298 289 300 297 300 c 0
 307 300 317 296 325 291 c 1
 333 296 343 300 353 300 c 0
 362 300 371 297 378 293 c 1
 385 297 394 300 403 300 c 0
 431 300 453 278 453 250 c 0
560 333 m 0
 560 305 538 283 510 283 c 0
 501 283 492 286 485 290 c 1
 478 286 469 283 460 283 c 0
 432 283 410 305 410 333 c 0
 410 351 419 366 433 375 c 1
 419 384 410 399 410 417 c 1
 410 434 419 449 432 458 c 1
 419 467 410 483 410 500 c 0
 410 517 419 533 432 542 c 1
 419 551 410 566 410 583 c 0
 410 601 419 616 433 625 c 1
 419 634 410 649 410 667 c 0
 410 695 432 717 460 717 c 0
 469 717 478 714 485 710 c 1
 492 714 501 717 510 717 c 0
 538 717 560 695 560 667 c 0
 560 649 551 634 537 625 c 1
 551 616 560 601 560 583 c 0
 560 566 551 551 538 542 c 1
 551 533 560 517 560 500 c 0
 560 483 551 467 538 458 c 1
 551 449 560 434 560 417 c 0
 560 399 551 384 537 375 c 1
 551 366 560 351 560 333 c 0
EndSplineSet
EndChar

StartChar: Ccedilla
Encoding: 199 199 16
Width: 600
VWidth: 0
UnlinkRmOvrlpSave: 1
Flags: W
HStem: 200 183<272.88 324.67 325.33 377.12> 283 100<221.328 271.624 379.376 428.672> 367 100<488.328 551.562> 617 100<491.336 551.562> 700 100<224.336 271.624 272.376 324.67 325.33 377.624 378.376 425.664>
VStem: 90 150<378.426 457.574 458.427 541.573 542.426 624.139 625.861 703.333> 250 150<208.438 291.573> 410 150<378.426 458.562 625.438 703.333>
CounterMasks: 1 07
LayerCount: 2
Back
Fore
SplineSet
400 250 m 0x47
 400 222 378 200 350 200 c 0
 341 200 332 203 325 207 c 1
 318 203 309 200 300 200 c 0x87
 272 200 250 222 250 250 c 0
 250 267 259 283 272 292 c 1
 264 286 254 283 243 283 c 0
 234 283 225 286 218 290 c 1
 211 286 202 283 193 283 c 0x47
 165 283 143 305 143 333 c 0
 143 349 151 363 162 372 c 1
 155 369 148 367 140 367 c 0
 112 367 90 389 90 417 c 0
 90 434 99 449 112 458 c 1
 99 467 90 483 90 500 c 1
 90 517 99 533 112 542 c 1
 99 551 90 566 90 583 c 0
 90 601 99 616 113 625 c 1
 99 634 90 649 90 667 c 0
 90 695 112 717 140 717 c 0x37
 147 717 153 715 159 713 c 1
 149 722 143 735 143 750 c 0
 143 778 165 800 193 800 c 0
 202 800 211 797 218 793 c 1
 225 797 234 800 243 800 c 0
 254 800 264 797 272 791 c 1
 280 797 289 800 300 800 c 0
 309 800 318 797 325 793 c 1
 332 797 341 800 350 800 c 0
 361 800 370 797 378 791 c 1
 386 797 396 800 407 800 c 0
 416 800 425 797 432 793 c 1
 439 797 448 800 457 800 c 0x0f
 485 800 507 778 507 750 c 0
 507 735 501 722 491 713 c 1
 497 715 503 717 510 717 c 0
 538 717 560 695 560 667 c 0
 560 639 538 617 510 617 c 0
 501 617 492 620 485 624 c 1
 478 620 469 617 460 617 c 0x17
 432 617 410 639 410 667 c 0
 410 682 416 695 426 704 c 1
 420 702 414 700 407 700 c 0
 396 700 386 703 378 709 c 1
 370 703 361 700 350 700 c 0
 341 700 332 703 325 707 c 1
 318 703 309 700 300 700 c 0
 289 700 280 703 272 709 c 1
 264 703 254 700 243 700 c 0
 236 700 230 702 224 704 c 1
 234 695 240 682 240 667 c 1
 240 649 231 634 217 625 c 1
 231 616 240 601 240 583 c 1
 240 566 231 551 218 542 c 1
 231 533 240 517 240 500 c 0
 240 483 231 467 218 458 c 1
 231 449 240 434 240 417 c 0
 240 401 232 387 221 378 c 1
 228 381 235 383 243 383 c 0x4f
 254 383 264 380 272 374 c 1
 280 380 289 383 300 383 c 0
 309 383 318 380 325 376 c 1
 332 380 341 383 350 383 c 0x87
 361 383 371 380 379 374 c 1
 387 380 396 383 407 383 c 0x47
 415 383 422 381 429 378 c 1
 418 387 410 401 410 417 c 0
 410 445 432 467 460 467 c 0
 469 467 478 464 485 460 c 1
 492 464 501 467 510 467 c 0
 538 467 560 445 560 417 c 0
 560 389 538 367 510 367 c 0x27
 502 367 495 369 488 372 c 1
 499 363 507 349 507 333 c 1
 507 305 485 283 457 283 c 0
 448 283 439 286 432 290 c 1
 425 286 416 283 407 283 c 0
 396 283 387 286 379 292 c 0
 378 292 l 1
 391 283 400 267 400 250 c 0x47
EndSplineSet
EndChar

StartChar: H
Encoding: 72 72 17
Width: 600
VWidth: 0
UnlinkRmOvrlpSave: 1
Flags: W
HStem: 200 21G<126 144.5 185.5 204 446 464.5 505.5 524> 200 21G<126 144.5 185.5 204 446 464.5 505.5 524> 450 100<219.376 271.67 272.33 324.624 325.376 377.67 378.33 431.624> 780 20G<126 144.5 185.5 204 446 464.5 505.5 524>
VStem: 90 150<208.438 291.573 292.426 374.139 375.861 457.574 542.426 624.139 625.861 707.574 708.427 791.562> 410 150<208.438 291.573 292.426 374.139 375.861 457.574 542.426 624.139 625.861 707.574 708.427 791.562> 432 128<417.795 457.574 542.426 582.205>
LayerCount: 2
Back
Fore
SplineSet
560 250 m 0xbc
 560 222 538 200 510 200 c 0
 501 200 492 203 485 207 c 1
 478 203 469 200 460 200 c 0
 432 200 410 222 410 250 c 0xbc
 410 267 419 283 432 292 c 1xba
 419 301 410 316 410 333 c 0
 410 351 419 366 433 375 c 1
 419 384 410 399 410 417 c 1xbc
 410 434 419 449 432 458 c 1
 432 459 l 0
 424 453 414 450 403 450 c 0
 394 450 385 453 378 457 c 1
 371 453 362 450 353 450 c 0
 343 450 333 454 325 459 c 1
 317 454 307 450 297 450 c 0
 288 450 279 453 272 457 c 1
 265 453 256 450 247 450 c 0
 236 450 227 453 219 459 c 0
 218 458 l 1
 231 449 240 434 240 417 c 0
 240 399 231 384 217 375 c 1
 231 366 240 351 240 333 c 1
 240 316 231 301 218 292 c 1
 231 283 240 267 240 250 c 0
 240 222 218 200 190 200 c 0
 181 200 172 203 165 207 c 1
 158 203 149 200 140 200 c 0
 112 200 90 222 90 250 c 0
 90 267 99 283 112 292 c 1
 99 301 90 316 90 333 c 1
 90 351 99 366 113 375 c 1
 99 384 90 399 90 417 c 0
 90 434 99 449 112 458 c 1
 99 467 90 483 90 500 c 1
 90 517 99 533 112 542 c 1
 99 551 90 566 90 583 c 0
 90 601 99 616 113 625 c 1
 99 634 90 649 90 667 c 0
 90 684 99 699 112 708 c 1
 99 717 90 733 90 750 c 0
 90 778 112 800 140 800 c 0
 149 800 158 797 165 793 c 1
 172 797 181 800 190 800 c 0
 218 800 240 778 240 750 c 0
 240 733 231 717 218 708 c 1
 231 699 240 684 240 667 c 0
 240 649 231 634 217 625 c 1
 231 616 240 601 240 583 c 1
 240 566 231 551 218 542 c 1
 219 541 l 0
 227 547 236 550 247 550 c 0
 256 550 265 547 272 543 c 1
 279 547 288 550 297 550 c 0
 307 550 317 546 325 541 c 1
 333 546 343 550 353 550 c 0
 362 550 371 547 378 543 c 1
 385 547 394 550 403 550 c 0
 414 550 424 547 432 541 c 0
 432 542 l 1xba
 419 551 410 566 410 583 c 0
 410 601 419 616 433 625 c 1
 419 634 410 649 410 667 c 0xbc
 410 684 419 699 432 708 c 1xba
 419 717 410 733 410 750 c 0
 410 778 432 800 460 800 c 0
 469 800 478 797 485 793 c 1
 492 797 501 800 510 800 c 0
 538 800 560 778 560 750 c 0
 560 733 551 717 538 708 c 1
 551 699 560 684 560 667 c 0
 560 649 551 634 537 625 c 1
 551 616 560 601 560 583 c 0xbc
 560 566 551 551 538 542 c 1
 551 533 560 517 560 500 c 0xba
 560 483 551 467 538 458 c 1
 551 449 560 434 560 417 c 0
 560 399 551 384 537 375 c 1
 551 366 560 351 560 333 c 0
 560 316 551 301 538 292 c 1
 551 283 560 267 560 250 c 0xbc
EndSplineSet
EndChar

StartChar: Edieresis
Encoding: 203 203 18
Width: 600
VWidth: 0
UnlinkRmOvrlpSave: 1
Flags: W
HStem: 200 100<219.376 271.67 272.33 324.624 325.376 377.67 378.33 431.624 432.376 484.67 485.33 551.562> 367 100<219.376 271.67 272.33 324.624 325.376 377.67 378.33 444.562> 533 100<219.376 271.67 272.33 324.624 325.376 377.67 378.33 431.624 432.376 484.67 485.33 551.562> 700 100<151.438 217.67 218.33 284.562 365.438 431.67 432.33 498.562>
VStem: 90 150<292.426 374.139 458.427 541.573> 143 150<708.438 791.562> 357 150<708.438 791.562>
LayerCount: 2
Back
Fore
SplineSet
560 250 m 0xfa
 560 222 538 200 510 200 c 0
 501 200 492 203 485 207 c 1
 478 203 469 200 460 200 c 0
 449 200 440 203 432 209 c 1
 424 203 414 200 403 200 c 0
 394 200 385 203 378 207 c 1
 371 203 362 200 353 200 c 0
 343 200 333 204 325 209 c 1
 317 204 307 200 297 200 c 0
 288 200 279 203 272 207 c 1
 265 203 256 200 247 200 c 0
 236 200 227 203 219 209 c 1
 211 203 201 200 190 200 c 0
 181 200 172 203 165 207 c 1
 158 203 149 200 140 200 c 0
 112 200 90 222 90 250 c 0
 90 267 99 283 112 292 c 1
 99 301 90 316 90 333 c 1
 90 351 99 366 113 375 c 1
 99 384 90 399 90 417 c 0
 90 434 99 449 112 458 c 1
 99 467 90 483 90 500 c 1
 90 517 99 533 112 542 c 1
 99 551 90 566 90 583 c 0
 90 611 112 633 140 633 c 0
 149 633 158 630 165 626 c 1
 172 630 181 633 190 633 c 0
 201 633 211 630 219 624 c 1
 227 630 236 633 247 633 c 0
 256 633 265 630 272 626 c 1
 279 630 288 633 297 633 c 0
 307 633 317 629 325 624 c 1
 333 629 343 633 353 633 c 0
 362 633 371 630 378 626 c 1
 385 630 394 633 403 633 c 0
 414 633 424 630 432 624 c 1
 440 630 449 633 460 633 c 0
 469 633 478 630 485 626 c 1
 492 630 501 633 510 633 c 0
 538 633 560 611 560 583 c 0
 560 555 538 533 510 533 c 0
 501 533 492 536 485 540 c 1
 478 536 469 533 460 533 c 0
 449 533 440 536 432 542 c 1
 424 536 414 533 403 533 c 0
 394 533 385 536 378 540 c 1
 371 536 362 533 353 533 c 0
 343 533 333 537 325 542 c 1
 317 537 307 533 297 533 c 0
 288 533 279 536 272 540 c 1
 265 536 256 533 247 533 c 0
 236 533 227 536 219 542 c 0
 218 542 l 1
 231 533 240 517 240 500 c 0
 240 483 231 467 218 458 c 1
 219 458 l 0
 227 464 236 467 247 467 c 0
 256 467 265 464 272 460 c 1
 279 464 288 467 297 467 c 0
 307 467 317 463 325 458 c 1
 333 463 343 467 353 467 c 0
 362 467 371 464 378 460 c 1
 385 464 394 467 403 467 c 0
 431 467 453 445 453 417 c 0
 453 389 431 367 403 367 c 0
 394 367 385 370 378 374 c 1
 371 370 362 367 353 367 c 0
 343 367 333 371 325 376 c 1
 317 371 307 367 297 367 c 0
 288 367 279 370 272 374 c 1
 265 370 256 367 247 367 c 0
 236 367 227 370 219 376 c 0
 217 375 l 1
 231 366 240 351 240 333 c 1
 240 316 231 301 218 292 c 1
 219 291 l 0
 227 297 236 300 247 300 c 0
 256 300 265 297 272 293 c 1
 279 297 288 300 297 300 c 0
 307 300 317 296 325 291 c 1
 333 296 343 300 353 300 c 0
 362 300 371 297 378 293 c 1
 385 297 394 300 403 300 c 0
 414 300 424 297 432 291 c 1
 440 297 449 300 460 300 c 0
 469 300 478 297 485 293 c 1
 492 297 501 300 510 300 c 0
 538 300 560 278 560 250 c 0xfa
507 750 m 0
 507 722 485 700 457 700 c 0
 448 700 439 703 432 707 c 1
 425 703 416 700 407 700 c 0
 379 700 357 722 357 750 c 0
 357 778 379 800 407 800 c 0
 416 800 425 797 432 793 c 1
 439 797 448 800 457 800 c 0
 485 800 507 778 507 750 c 0
293 750 m 0xf6
 293 722 271 700 243 700 c 0
 234 700 225 703 218 707 c 1
 211 703 202 700 193 700 c 0
 165 700 143 722 143 750 c 0
 143 778 165 800 193 800 c 0
 202 800 211 797 218 793 c 1
 225 797 234 800 243 800 c 0
 271 800 293 778 293 750 c 0xf6
EndSplineSet
EndChar

StartChar: L
Encoding: 76 76 19
Width: 600
VWidth: 0
UnlinkRmOvrlpSave: 1
Flags: W
HStem: 200 100<219.376 271.67 272.33 324.624 325.376 377.67 378.33 431.624 432.376 484.67 485.33 551.562> 780 20G<126 144.5 185.5 204>
VStem: 90 150<292.426 374.139 375.861 457.574 458.427 541.573 542.426 624.139 625.861 707.574 708.427 791.562>
LayerCount: 2
Back
Fore
SplineSet
560 250 m 0
 560 222 538 200 510 200 c 0
 501 200 492 203 485 207 c 1
 478 203 469 200 460 200 c 0
 449 200 440 203 432 209 c 1
 424 203 414 200 403 200 c 0
 394 200 385 203 378 207 c 1
 371 203 362 200 353 200 c 0
 343 200 333 204 325 209 c 1
 317 204 307 200 297 200 c 0
 288 200 279 203 272 207 c 1
 265 203 256 200 247 200 c 0
 236 200 227 203 219 209 c 1
 211 203 201 200 190 200 c 0
 181 200 172 203 165 207 c 1
 158 203 149 200 140 200 c 0
 112 200 90 222 90 250 c 0
 90 267 99 283 112 292 c 1
 99 301 90 316 90 333 c 1
 90 351 99 366 113 375 c 1
 99 384 90 399 90 417 c 0
 90 434 99 449 112 458 c 1
 99 467 90 483 90 500 c 1
 90 517 99 533 112 542 c 1
 99 551 90 566 90 583 c 0
 90 601 99 616 113 625 c 1
 99 634 90 649 90 667 c 0
 90 684 99 699 112 708 c 1
 99 717 90 733 90 750 c 0
 90 778 112 800 140 800 c 0
 149 800 158 797 165 793 c 1
 172 797 181 800 190 800 c 0
 218 800 240 778 240 750 c 0
 240 733 231 717 218 708 c 1
 231 699 240 684 240 667 c 0
 240 649 231 634 217 625 c 1
 231 616 240 601 240 583 c 1
 240 566 231 551 218 542 c 1
 231 533 240 517 240 500 c 0
 240 483 231 467 218 458 c 1
 231 449 240 434 240 417 c 0
 240 399 231 384 217 375 c 1
 231 366 240 351 240 333 c 1
 240 316 231 301 218 292 c 1
 219 291 l 0
 227 297 236 300 247 300 c 0
 256 300 265 297 272 293 c 1
 279 297 288 300 297 300 c 0
 307 300 317 296 325 291 c 1
 333 296 343 300 353 300 c 0
 362 300 371 297 378 293 c 1
 385 297 394 300 403 300 c 0
 414 300 424 297 432 291 c 1
 440 297 449 300 460 300 c 0
 469 300 478 297 485 293 c 1
 492 297 501 300 510 300 c 0
 538 300 560 278 560 250 c 0
EndSplineSet
EndChar

StartChar: P
Encoding: 80 80 20
Width: 600
VWidth: 0
UnlinkRmOvrlpSave: 1
Flags: W
HStem: 200 21G<126 144.5 185.5 204> 200 21G<126 144.5 185.5 204> 450 100<219.376 271.67 272.33 324.624 325.376 377.67 378.33 444.562> 533 184<433.902 484.67 485.33 536.098> 700 100<219.376 271.67 272.33 324.624 325.376 377.67 378.33 444.562>
VStem: 90 150<208.438 291.573 292.426 374.139 375.861 457.574 542.426 624.139 625.861 707.574> 410 150<541.438 624.139 625.861 708.562>
LayerCount: 2
Back
Fore
SplineSet
240 250 m 0xae
 240 222 218 200 190 200 c 0
 181 200 172 203 165 207 c 1
 158 203 149 200 140 200 c 0
 112 200 90 222 90 250 c 0
 90 267 99 283 112 292 c 1
 99 301 90 316 90 333 c 1
 90 351 99 366 113 375 c 1
 99 384 90 399 90 417 c 0
 90 434 99 449 112 458 c 1
 99 467 90 483 90 500 c 1
 90 517 99 533 112 542 c 1
 99 551 90 566 90 583 c 0
 90 601 99 616 113 625 c 1
 99 634 90 649 90 667 c 0
 90 684 99 699 112 708 c 1
 99 717 90 733 90 750 c 0
 90 778 112 800 140 800 c 0
 149 800 158 797 165 793 c 1
 172 797 181 800 190 800 c 0
 201 800 211 797 219 791 c 1
 227 797 236 800 247 800 c 0
 256 800 265 797 272 793 c 1
 279 797 288 800 297 800 c 0
 307 800 317 796 325 791 c 1
 333 796 343 800 353 800 c 0
 362 800 371 797 378 793 c 1
 385 797 394 800 403 800 c 0
 431 800 453 778 453 750 c 0
 453 722 431 700 403 700 c 0
 394 700 385 703 378 707 c 1
 371 703 362 700 353 700 c 0
 343 700 333 704 325 709 c 1
 317 704 307 700 297 700 c 0
 288 700 279 703 272 707 c 1
 265 703 256 700 247 700 c 0
 236 700 227 703 219 709 c 0
 218 708 l 1
 231 699 240 684 240 667 c 0
 240 649 231 634 217 625 c 1
 231 616 240 601 240 583 c 1
 240 566 231 551 218 542 c 1
 219 541 l 0
 227 547 236 550 247 550 c 0
 256 550 265 547 272 543 c 1
 279 547 288 550 297 550 c 0
 307 550 317 546 325 541 c 1
 333 546 343 550 353 550 c 0
 362 550 371 547 378 543 c 1
 385 547 394 550 403 550 c 0
 431 550 453 528 453 500 c 0
 453 472 431 450 403 450 c 0
 394 450 385 453 378 457 c 1
 371 453 362 450 353 450 c 0
 343 450 333 454 325 459 c 1
 317 454 307 450 297 450 c 0
 288 450 279 453 272 457 c 1
 265 453 256 450 247 450 c 0
 236 450 227 453 219 459 c 0
 218 458 l 1
 231 449 240 434 240 417 c 0
 240 399 231 384 217 375 c 1
 231 366 240 351 240 333 c 1
 240 316 231 301 218 292 c 1
 231 283 240 267 240 250 c 0xae
560 583 m 0
 560 555 538 533 510 533 c 0
 501 533 492 536 485 540 c 1
 478 536 469 533 460 533 c 0
 432 533 410 555 410 583 c 0
 410 601 419 616 433 625 c 1
 419 634 410 649 410 667 c 0
 410 695 432 717 460 717 c 0
 469 717 478 714 485 710 c 1
 492 714 501 717 510 717 c 0x16
 538 717 560 695 560 667 c 0
 560 649 551 634 537 625 c 1
 551 616 560 601 560 583 c 0
EndSplineSet
EndChar

StartChar: T
Encoding: 84 84 21
Width: 600
VWidth: 0
UnlinkRmOvrlpSave: 1
Flags: W
HStem: 200 21G<286 304.5 345.5 364> 200 21G<286 304.5 345.5 364> 700 100<98.4375 164.67 165.33 218.624 219.376 265.664 384.336 431.624 432.376 484.67 485.33 551.562>
VStem: 250 150<208.438 291.573 292.426 374.139 375.861 457.574 458.427 541.573 542.426 624.139 625.861 703.575>
LayerCount: 2
Back
Fore
SplineSet
400 250 m 0xb0
 400 222 378 200 350 200 c 0
 341 200 332 203 325 207 c 1
 318 203 309 200 300 200 c 0
 272 200 250 222 250 250 c 0
 250 267 259 283 272 292 c 1
 259 301 250 316 250 333 c 1
 250 351 259 366 273 375 c 1
 259 384 250 399 250 417 c 0
 250 434 259 449 272 458 c 1
 259 467 250 483 250 500 c 1
 250 517 259 533 272 542 c 1
 259 551 250 566 250 583 c 0
 250 601 259 616 273 625 c 1
 259 634 250 649 250 667 c 0
 250 682 256 695 266 704 c 1
 260 702 254 700 247 700 c 0
 236 700 227 703 219 709 c 1
 211 703 201 700 190 700 c 0
 181 700 172 703 165 707 c 1
 158 703 149 700 140 700 c 0
 112 700 90 722 90 750 c 0
 90 778 112 800 140 800 c 0
 149 800 158 797 165 793 c 1
 172 797 181 800 190 800 c 0
 201 800 211 797 219 791 c 1
 227 797 236 800 247 800 c 0
 256 800 265 797 272 793 c 1
 279 797 288 800 297 800 c 0
 307 800 317 796 325 791 c 1
 333 796 343 800 353 800 c 0
 362 800 371 797 378 793 c 1
 385 797 394 800 403 800 c 0
 414 800 424 797 432 791 c 1
 440 797 449 800 460 800 c 0
 469 800 478 797 485 793 c 1
 492 797 501 800 510 800 c 0
 538 800 560 778 560 750 c 0
 560 722 538 700 510 700 c 0
 501 700 492 703 485 707 c 1
 478 703 469 700 460 700 c 0
 449 700 440 703 432 709 c 1
 424 703 414 700 403 700 c 0
 396 700 390 702 384 704 c 1
 394 695 400 682 400 667 c 1
 400 649 391 634 377 625 c 1
 391 616 400 601 400 583 c 0
 400 566 391 551 378 542 c 1
 391 533 400 517 400 500 c 0
 400 483 391 467 378 458 c 1
 391 449 400 434 400 417 c 0
 400 399 391 384 377 375 c 1
 391 366 400 351 400 333 c 0
 400 316 391 301 378 292 c 1
 391 283 400 267 400 250 c 0xb0
EndSplineSet
EndChar

StartChar: multiply
Encoding: 215 215 22
Width: 600
VWidth: 0
UnlinkRmOvrlpSave: 1
Flags: W
HStem: 283 100<98.4375 164.67 379.33 445.562> 613 20G<239.5 249 295 304.5> 617 100<98.4375 164.67 379.33 445.562>
VStem: 90 150<291.438 373.574 626.426 708.562> 144 256<376.426 458.562 541.438 623.574> 197 150<463.425 536.575> 304 150<291.438 373.574 626.426 708.562>
LayerCount: 2
Back
Fore
SplineSet
454 333 m 0xa2
 454 305 432 283 404 283 c 0
 395 283 386 286 379 290 c 1
 372 286 363 283 354 283 c 0
 326 283 304 305 304 333 c 0
 304 350 312 365 325 374 c 1
 318 370 309 367 300 367 c 0
 290 367 280 371 272 376 c 1
 264 371 254 367 244 367 c 0
 235 367 226 370 219 374 c 1
 232 365 240 350 240 333 c 1
 240 305 218 283 190 283 c 0
 181 283 172 286 165 290 c 1
 158 286 149 283 140 283 c 0
 112 283 90 305 90 333 c 0xb2
 90 361 112 383 140 383 c 0
 149 383 158 380 165 376 c 1
 152 385 144 400 144 417 c 0xa8
 144 445 166 467 194 467 c 0
 201 467 207 465 213 463 c 1
 203 472 197 485 197 500 c 0xa4
 197 515 203 528 213 537 c 1
 207 535 201 533 194 533 c 0
 166 533 144 555 144 583 c 0xa8
 144 600 152 615 165 624 c 1
 158 620 149 617 140 617 c 0
 112 617 90 639 90 667 c 0
 90 695 112 717 140 717 c 0
 149 717 158 714 165 710 c 1
 172 714 181 717 190 717 c 0xb0
 218 717 240 695 240 667 c 0
 240 650 232 635 219 626 c 1
 226 630 235 633 244 633 c 0
 254 633 264 629 272 624 c 1
 280 629 290 633 300 633 c 0xd0
 309 633 318 630 325 626 c 1
 312 635 304 650 304 667 c 1
 304 695 326 717 354 717 c 0
 363 717 372 714 379 710 c 1
 386 714 395 717 404 717 c 0
 432 717 454 695 454 667 c 0xb2
 454 639 432 617 404 617 c 0
 395 617 386 620 379 624 c 1
 392 615 400 600 400 583 c 1xa8
 400 555 378 533 350 533 c 0
 343 533 337 535 331 537 c 1
 341 528 347 515 347 500 c 1xa4
 347 485 341 472 331 463 c 1
 337 465 343 467 350 467 c 0
 378 467 400 445 400 417 c 0xa8
 400 400 392 385 379 376 c 1
 386 380 395 383 404 383 c 0
 432 383 454 361 454 333 c 0xa2
EndSplineSet
EndChar

StartChar: X
Encoding: 88 88 23
Width: 600
VWidth: 0
UnlinkRmOvrlpSave: 1
Flags: W
HStem: 200 183<165.33 217.12 432.88 484.67> 200 100<98.4375 158.664 491.336 551.562> 613 20G<292.5 302 348 357.5> 617 183<165.33 217.12 432.88 484.67> 700 100<98.4375 158.664 491.336 551.562>
VStem: 90 150<208.438 286.333 713.667 791.562> 143 150<296.667 373.574 626.426 703.333> 197 256<376.426 458.562 541.438 623.574> 250 150<463.425 536.575> 357 150<296.667 373.574 626.426 703.333> 410 150<208.438 286.333 713.667 791.562>
LayerCount: 2
Back
Fore
SplineSet
560 250 m 0x4020
 560 222 538 200 510 200 c 0x4020
 501 200 492 203 485 207 c 1
 478 203 469 200 460 200 c 0
 432 200 410 222 410 250 c 0x8020
 410 265 416 278 426 287 c 1
 420 285 414 283 407 283 c 0
 379 283 357 305 357 333 c 0
 357 350 365 365 378 374 c 1
 371 370 362 367 353 367 c 0
 343 367 333 371 325 376 c 1
 317 371 307 367 297 367 c 0
 288 367 279 370 272 374 c 1
 285 365 293 350 293 333 c 1x8240
 293 305 271 283 243 283 c 0
 236 283 230 285 224 287 c 1
 234 278 240 265 240 250 c 1
 240 222 218 200 190 200 c 0x84
 181 200 172 203 165 207 c 1
 158 203 149 200 140 200 c 0
 112 200 90 222 90 250 c 0x44
 90 278 112 300 140 300 c 0
 147 300 153 298 159 296 c 1
 149 305 143 318 143 333 c 0x42
 143 361 165 383 193 383 c 0
 202 383 211 380 218 376 c 1
 205 385 197 400 197 417 c 0x81
 197 445 219 467 247 467 c 0
 254 467 260 465 266 463 c 1
 256 472 250 485 250 500 c 0x8080
 250 515 256 528 266 537 c 1
 260 535 254 533 247 533 c 0
 219 533 197 555 197 583 c 0x81
 197 600 205 615 218 624 c 1
 211 620 202 617 193 617 c 0
 165 617 143 639 143 667 c 0x92
 143 682 149 695 159 704 c 1
 153 702 147 700 140 700 c 0
 112 700 90 722 90 750 c 0
 90 778 112 800 140 800 c 0x0c
 149 800 158 797 165 793 c 1
 172 797 181 800 190 800 c 0
 218 800 240 778 240 750 c 0x14
 240 735 234 722 224 713 c 1
 230 715 236 717 243 717 c 0
 271 717 293 695 293 667 c 0
 293 650 285 635 272 626 c 1
 279 630 288 633 297 633 c 0
 307 633 317 629 325 624 c 1
 333 629 343 633 353 633 c 0
 362 633 371 630 378 626 c 1
 365 635 357 650 357 667 c 1x2240
 357 695 379 717 407 717 c 0
 414 717 420 715 426 713 c 1
 416 722 410 735 410 750 c 1
 410 778 432 800 460 800 c 0x1020
 469 800 478 797 485 793 c 1
 492 797 501 800 510 800 c 0
 538 800 560 778 560 750 c 0x0820
 560 722 538 700 510 700 c 0
 503 700 497 702 491 704 c 1
 501 695 507 682 507 667 c 1x0840
 507 639 485 617 457 617 c 0
 448 617 439 620 432 624 c 1
 445 615 453 600 453 583 c 1x11
 453 555 431 533 403 533 c 0
 396 533 390 535 384 537 c 1
 394 528 400 515 400 500 c 1x1080
 400 485 394 472 384 463 c 1
 390 465 396 467 403 467 c 0
 431 467 453 445 453 417 c 0x11
 453 400 445 385 432 376 c 1
 439 380 448 383 457 383 c 0
 485 383 507 361 507 333 c 0x9040
 507 318 501 305 491 296 c 1
 497 298 503 300 510 300 c 0
 538 300 560 278 560 250 c 0x4020
EndSplineSet
EndChar

StartChar: backslash
Encoding: 92 92 24
Width: 600
VWidth: 0
UnlinkRmOvrlpSave: 1
Flags: W
HStem: 200 100<491.336 551.562> 200 21G<446 464.5> 613 20G<292.5 311> 700 100<98.4375 158.664>
VStem: 90 150<713.667 791.562> 143 150<626.426 703.333> 197 150<546.667 623.574> 250 150<463.667 536.333> 303 150<376.426 453.333> 357 150<296.667 373.574> 410 150<208.438 286.333>
LayerCount: 2
Back
Fore
SplineSet
560 250 m 0xb020
 560 222 538 200 510 200 c 0xb020
 501 200 492 203 485 207 c 1
 478 203 469 200 460 200 c 0
 432 200 410 222 410 250 c 0x7020
 410 265 416 278 426 287 c 1
 420 285 414 283 407 283 c 0
 379 283 357 305 357 333 c 0x7040
 357 350 365 365 378 374 c 1
 371 370 362 367 353 367 c 0
 325 367 303 389 303 417 c 0x7080
 303 432 309 445 319 454 c 1
 313 452 307 450 300 450 c 0
 272 450 250 472 250 500 c 0x71
 250 515 256 528 266 537 c 1
 260 535 254 533 247 533 c 0
 219 533 197 555 197 583 c 0x72
 197 600 205 615 218 624 c 1
 211 620 202 617 193 617 c 0
 165 617 143 639 143 667 c 0x74
 143 682 149 695 159 704 c 1
 153 702 147 700 140 700 c 0
 112 700 90 722 90 750 c 0
 90 778 112 800 140 800 c 0
 149 800 158 797 165 793 c 1
 172 797 181 800 190 800 c 0
 218 800 240 778 240 750 c 0x78
 240 735 234 722 224 713 c 1
 230 715 236 717 243 717 c 0
 271 717 293 695 293 667 c 0x74
 293 650 285 635 272 626 c 1
 279 630 288 633 297 633 c 0
 325 633 347 611 347 583 c 0x72
 347 568 341 555 331 546 c 1
 337 548 343 550 350 550 c 0
 378 550 400 528 400 500 c 0x71
 400 485 394 472 384 463 c 1
 390 465 396 467 403 467 c 0
 431 467 453 445 453 417 c 0x7080
 453 400 445 385 432 376 c 1
 439 380 448 383 457 383 c 0
 485 383 507 361 507 333 c 0x7040
 507 318 501 305 491 296 c 1
 497 298 503 300 510 300 c 0
 538 300 560 278 560 250 c 0xb020
EndSplineSet
EndChar

StartChar: germandbls
Encoding: 223 223 25
Width: 600
VWidth: 0
UnlinkRmOvrlpSave: 1
Flags: W
HStem: 200 100<258.438 324.67 325.33 378.624 379.376 425.664> 450 100<219.376 265.664 384.336 444.562> 613 20G<286 304> 617 100<384.285 444.562> 700 100<224.336 271.624 272.376 318.664>
VStem: 90 150<208.438 291.573 292.426 374.139 375.861 457.574 542.426 624.139 625.861 703.333> 143 257<713.425 790.883> 250 257<209.117 286.333> 250 150<546.425 621.574> 303 150<628.426 703.333> 410 150<296.667 374.139 375.861 458.562>
LayerCount: 2
Back
Fore
SplineSet
507 250 m 1xc1
 507 222 485 200 457 200 c 0
 448 200 439 203 432 207 c 1
 425 203 416 200 407 200 c 0
 396 200 387 203 379 209 c 1
 371 203 361 200 350 200 c 0
 341 200 332 203 325 207 c 1
 318 203 309 200 300 200 c 0
 272 200 250 222 250 250 c 0xc1
 250 278 272 300 300 300 c 0
 309 300 318 297 325 293 c 1
 332 297 341 300 350 300 c 0
 361 300 371 297 379 291 c 1
 387 297 396 300 407 300 c 0
 414 300 420 298 426 296 c 1
 416 305 410 318 410 333 c 1
 410 351 419 366 433 375 c 1
 419 384 410 399 410 417 c 1
 410 445 432 467 460 467 c 0
 469 467 478 464 485 460 c 1
 492 464 501 467 510 467 c 0
 538 467 560 445 560 417 c 0
 560 399 551 384 537 375 c 1
 551 366 560 351 560 333 c 0xc020
 560 305 538 283 510 283 c 0
 503 283 497 285 491 287 c 1
 501 278 507 265 507 250 c 1xc1
240 250 m 0xd440
 240 222 218 200 190 200 c 0
 181 200 172 203 165 207 c 1
 158 203 149 200 140 200 c 0
 112 200 90 222 90 250 c 0
 90 267 99 283 112 292 c 1
 99 301 90 316 90 333 c 1
 90 351 99 366 113 375 c 1
 99 384 90 399 90 417 c 0
 90 434 99 449 112 458 c 1
 99 467 90 483 90 500 c 1
 90 517 99 533 112 542 c 1
 99 551 90 566 90 583 c 0
 90 601 99 616 113 625 c 1
 99 634 90 649 90 667 c 0
 90 695 112 717 140 717 c 0xd440
 147 717 153 715 159 713 c 1
 149 722 143 735 143 750 c 0
 143 778 165 800 193 800 c 0
 202 800 211 797 218 793 c 1
 225 797 234 800 243 800 c 0
 254 800 264 797 272 791 c 1
 280 797 289 800 300 800 c 0
 309 800 318 797 325 793 c 1
 332 797 341 800 350 800 c 0
 378 800 400 778 400 750 c 0xca
 400 735 394 722 384 713 c 1
 390 715 396 717 403 717 c 0
 431 717 453 695 453 667 c 0xd040
 453 639 431 617 403 617 c 0
 395 617 388 619 381 622 c 1
 392 613 400 599 400 583 c 1xd080
 400 568 394 555 384 546 c 1
 390 548 396 550 403 550 c 0
 431 550 453 528 453 500 c 0
 453 472 431 450 403 450 c 0
 394 450 385 453 378 457 c 1
 371 453 362 450 353 450 c 0
 343 450 333 454 325 459 c 1
 317 454 307 450 297 450 c 0
 288 450 279 453 272 457 c 1
 265 453 256 450 247 450 c 0
 236 450 227 453 219 459 c 0
 218 458 l 1
 231 449 240 434 240 417 c 0
 240 399 231 384 217 375 c 1
 231 366 240 351 240 333 c 1
 240 316 231 301 218 292 c 1
 231 283 240 267 240 250 c 0xd440
218 542 m 1
 219 541 l 0
 227 547 236 550 247 550 c 0
 254 550 260 548 266 546 c 1
 256 555 250 568 250 583 c 0xec80
 250 611 272 633 300 633 c 0
 308 633 315 631 322 628 c 1
 311 637 303 651 303 667 c 1
 303 682 309 695 319 704 c 1
 313 702 307 700 300 700 c 0
 289 700 280 703 272 709 c 1
 264 703 254 700 243 700 c 0xe840
 236 700 230 702 224 704 c 1
 234 695 240 682 240 667 c 1
 240 649 231 634 217 625 c 1
 231 616 240 601 240 583 c 1
 240 566 231 551 218 542 c 1
EndSplineSet
EndChar

StartChar: grave
Encoding: 96 96 26
Width: 600
VWidth: 0
UnlinkRmOvrlpSave: 1
Flags: W
HStem: 533 100<274.328 337.562> 700 100<98.4375 158.664>
VStem: 90 150<713.667 791.562> 143 150<628.426 703.333> 196 150<541.438 621.574>
LayerCount: 2
Back
Fore
SplineSet
346 583 m 0xc8
 346 555 324 533 296 533 c 0
 287 533 278 536 271 540 c 1
 264 536 255 533 246 533 c 0
 218 533 196 555 196 583 c 0xc8
 196 599 204 613 215 622 c 1
 208 619 201 617 193 617 c 0
 165 617 143 639 143 667 c 0xd0
 143 682 149 695 159 704 c 1
 153 702 147 700 140 700 c 0
 112 700 90 722 90 750 c 0
 90 778 112 800 140 800 c 0
 149 800 158 797 165 793 c 1
 172 797 181 800 190 800 c 0
 218 800 240 778 240 750 c 0xe0
 240 735 234 722 224 713 c 1
 230 715 236 717 243 717 c 0
 271 717 293 695 293 667 c 0xd0
 293 651 285 637 274 628 c 1
 281 631 288 633 296 633 c 0
 324 633 346 611 346 583 c 0xc8
EndSplineSet
EndChar

StartChar: d
Encoding: 100 100 27
Width: 600
VWidth: 0
UnlinkRmOvrlpSave: 1
Flags: W
HStem: 200 100<205.438 271.67 272.33 324.624 325.376 377.67 378.33 431.624> 533 100<224.336 271.624 272.376 324.67 325.33 377.624 378.376 425.715> 780 20G<446 464.5 505.5 524>
VStem: 90 150<291.438 374.139 375.861 457.574 458.427 536.333> 410 150<292.426 374.139 375.861 457.574 458.427 536.333 628.426 707.574 708.427 791.562>
LayerCount: 2
Back
Fore
SplineSet
560 250 m 0
 560 222 538 200 510 200 c 0
 501 200 492 203 485 207 c 1
 478 203 469 200 460 200 c 0
 449 200 440 203 432 209 c 1
 424 203 414 200 403 200 c 0
 394 200 385 203 378 207 c 1
 371 203 362 200 353 200 c 0
 343 200 333 204 325 209 c 1
 317 204 307 200 297 200 c 0
 288 200 279 203 272 207 c 1
 265 203 256 200 247 200 c 0
 219 200 197 222 197 250 c 0
 197 278 219 300 247 300 c 0
 256 300 265 297 272 293 c 1
 279 297 288 300 297 300 c 0
 307 300 317 296 325 291 c 1
 333 296 343 300 353 300 c 0
 362 300 371 297 378 293 c 1
 385 297 394 300 403 300 c 0
 414 300 424 297 432 291 c 0
 432 292 l 1
 419 301 410 316 410 333 c 0
 410 351 419 366 433 375 c 1
 419 384 410 399 410 417 c 1
 410 434 419 449 432 458 c 1
 419 467 410 483 410 500 c 0
 410 515 416 528 426 537 c 1
 420 535 414 533 407 533 c 0
 396 533 386 536 378 542 c 1
 370 536 361 533 350 533 c 0
 341 533 332 536 325 540 c 1
 318 536 309 533 300 533 c 0
 289 533 280 536 272 542 c 1
 264 536 254 533 243 533 c 0
 236 533 230 535 224 537 c 1
 234 528 240 515 240 500 c 1
 240 483 231 467 218 458 c 1
 231 449 240 434 240 417 c 0
 240 399 231 384 217 375 c 1
 231 366 240 351 240 333 c 1
 240 305 218 283 190 283 c 0
 181 283 172 286 165 290 c 1
 158 286 149 283 140 283 c 0
 112 283 90 305 90 333 c 0
 90 351 99 366 113 375 c 1
 99 384 90 399 90 417 c 0
 90 434 99 449 112 458 c 1
 99 467 90 483 90 500 c 1
 90 528 112 550 140 550 c 0
 147 550 153 548 159 546 c 1
 149 555 143 568 143 583 c 0
 143 611 165 633 193 633 c 0
 202 633 211 630 218 626 c 1
 225 630 234 633 243 633 c 0
 254 633 264 630 272 624 c 1
 280 630 289 633 300 633 c 0
 309 633 318 630 325 626 c 1
 332 630 341 633 350 633 c 0
 361 633 370 630 378 624 c 1
 386 630 396 633 407 633 c 0
 415 633 422 631 429 628 c 1
 418 637 410 651 410 667 c 1
 410 684 419 699 432 708 c 1
 419 717 410 733 410 750 c 0
 410 778 432 800 460 800 c 0
 469 800 478 797 485 793 c 1
 492 797 501 800 510 800 c 0
 538 800 560 778 560 750 c 0
 560 733 551 717 538 708 c 1
 551 699 560 684 560 667 c 0
 560 639 538 617 510 617 c 0
 502 617 495 619 488 622 c 1
 499 613 507 599 507 583 c 1
 507 568 501 555 491 546 c 1
 497 548 503 550 510 550 c 0
 538 550 560 528 560 500 c 0
 560 483 551 467 538 458 c 1
 551 449 560 434 560 417 c 0
 560 399 551 384 537 375 c 1
 551 366 560 351 560 333 c 0
 560 316 551 301 538 292 c 1
 551 283 560 267 560 250 c 0
EndSplineSet
EndChar

StartChar: ccedilla
Encoding: 231 231 28
Width: 600
VWidth: 0
UnlinkRmOvrlpSave: 1
Flags: W
HStem: 200 183<272.88 324.67 325.33 377.12> 283 100<221.328 271.624 379.376 431.67 432.33 498.562> 533 100<488.328 551.562> 617 100<221.328 271.624 272.376 324.67 325.33 377.624 378.376 428.672>
VStem: 90 150<378.426 457.574 458.427 541.573 542.426 621.574> 250 150<208.438 291.573> 410 150<541.438 621.574>
CounterMasks: 1 0e
LayerCount: 2
Back
Fore
SplineSet
400 250 m 0x4e
 400 222 378 200 350 200 c 0
 341 200 332 203 325 207 c 1
 318 203 309 200 300 200 c 0x8e
 272 200 250 222 250 250 c 0
 250 267 259 283 272 292 c 1
 264 286 254 283 243 283 c 0
 234 283 225 286 218 290 c 1
 211 286 202 283 193 283 c 0
 165 283 143 305 143 333 c 0
 143 349 151 363 162 372 c 1
 155 369 148 367 140 367 c 0
 112 367 90 389 90 417 c 0
 90 434 99 449 112 458 c 1
 99 467 90 483 90 500 c 1
 90 517 99 533 112 542 c 1
 99 551 90 566 90 583 c 0
 90 611 112 633 140 633 c 0x6e
 148 633 155 631 162 628 c 1
 151 637 143 651 143 667 c 1
 143 695 165 717 193 717 c 0
 202 717 211 714 218 710 c 1
 225 714 234 717 243 717 c 0
 254 717 264 714 272 708 c 1
 280 714 289 717 300 717 c 0
 309 717 318 714 325 710 c 1
 332 714 341 717 350 717 c 0
 361 717 370 714 378 708 c 1
 386 714 396 717 407 717 c 0
 416 717 425 714 432 710 c 1
 439 714 448 717 457 717 c 0x1e
 485 717 507 695 507 667 c 0
 507 651 499 637 488 628 c 1
 495 631 502 633 510 633 c 0
 538 633 560 611 560 583 c 0
 560 555 538 533 510 533 c 0
 501 533 492 536 485 540 c 1
 478 536 469 533 460 533 c 0x2e
 432 533 410 555 410 583 c 0
 410 599 418 613 429 622 c 1
 422 619 415 617 407 617 c 0
 396 617 386 620 378 626 c 1
 370 620 361 617 350 617 c 0
 341 617 332 620 325 624 c 1
 318 620 309 617 300 617 c 0
 289 617 280 620 272 626 c 1
 264 620 254 617 243 617 c 0
 235 617 228 619 221 622 c 1
 232 613 240 599 240 583 c 1
 240 566 231 551 218 542 c 1
 231 533 240 517 240 500 c 0
 240 483 231 467 218 458 c 1
 231 449 240 434 240 417 c 0
 240 401 232 387 221 378 c 1
 228 381 235 383 243 383 c 0x5e
 254 383 264 380 272 374 c 1
 280 380 289 383 300 383 c 0
 309 383 318 380 325 376 c 1
 332 380 341 383 350 383 c 0x8e
 361 383 371 380 379 374 c 1
 387 380 396 383 407 383 c 0
 416 383 425 380 432 376 c 1
 439 380 448 383 457 383 c 0
 485 383 507 361 507 333 c 0
 507 305 485 283 457 283 c 0
 448 283 439 286 432 290 c 1
 425 286 416 283 407 283 c 0
 396 283 387 286 379 292 c 0
 378 292 l 1
 391 283 400 267 400 250 c 0x4e
EndSplineSet
EndChar

StartChar: h
Encoding: 104 104 29
Width: 600
VWidth: 0
UnlinkRmOvrlpSave: 1
Flags: W
HStem: 200 21G<126 144.5 185.5 204 446 464.5 505.5 524> 200 21G<126 144.5 185.5 204 446 464.5 505.5 524> 533 100<224.285 271.624 272.376 324.67 325.33 377.624 378.376 425.664> 780 20G<126 144.5 185.5 204>
VStem: 90 150<208.438 291.573 292.426 374.139 375.861 457.574 458.427 536.333 628.426 707.574 708.427 791.562> 410 150<208.438 291.573 292.426 374.139 375.861 457.574 458.427 536.333>
LayerCount: 2
Back
Fore
SplineSet
560 250 m 0xbc
 560 222 538 200 510 200 c 0
 501 200 492 203 485 207 c 1
 478 203 469 200 460 200 c 0
 432 200 410 222 410 250 c 0
 410 267 419 283 432 292 c 1
 419 301 410 316 410 333 c 0
 410 351 419 366 433 375 c 1
 419 384 410 399 410 417 c 1
 410 434 419 449 432 458 c 1
 419 467 410 483 410 500 c 0
 410 515 416 528 426 537 c 1
 420 535 414 533 407 533 c 0
 396 533 386 536 378 542 c 1
 370 536 361 533 350 533 c 0
 341 533 332 536 325 540 c 1
 318 536 309 533 300 533 c 0
 289 533 280 536 272 542 c 1
 264 536 254 533 243 533 c 0
 236 533 230 535 224 537 c 1
 234 528 240 515 240 500 c 1
 240 483 231 467 218 458 c 1
 231 449 240 434 240 417 c 0
 240 399 231 384 217 375 c 1
 231 366 240 351 240 333 c 1
 240 316 231 301 218 292 c 1
 231 283 240 267 240 250 c 0
 240 222 218 200 190 200 c 0
 181 200 172 203 165 207 c 1
 158 203 149 200 140 200 c 0
 112 200 90 222 90 250 c 0
 90 267 99 283 112 292 c 1
 99 301 90 316 90 333 c 1
 90 351 99 366 113 375 c 1
 99 384 90 399 90 417 c 0
 90 434 99 449 112 458 c 1
 99 467 90 483 90 500 c 1
 90 528 112 550 140 550 c 0
 147 550 153 548 159 546 c 1
 149 555 143 568 143 583 c 0
 143 599 151 613 162 622 c 1
 155 619 148 617 140 617 c 0
 112 617 90 639 90 667 c 0
 90 684 99 699 112 708 c 1
 99 717 90 733 90 750 c 0
 90 778 112 800 140 800 c 0
 149 800 158 797 165 793 c 1
 172 797 181 800 190 800 c 0
 218 800 240 778 240 750 c 0
 240 733 231 717 218 708 c 1
 231 699 240 684 240 667 c 0
 240 651 232 637 221 628 c 1
 228 631 235 633 243 633 c 0
 254 633 264 630 272 624 c 1
 280 630 289 633 300 633 c 0
 309 633 318 630 325 626 c 1
 332 630 341 633 350 633 c 0
 361 633 370 630 378 624 c 1
 386 630 396 633 407 633 c 0
 416 633 425 630 432 626 c 1
 439 630 448 633 457 633 c 0
 485 633 507 611 507 583 c 0
 507 568 501 555 491 546 c 1
 497 548 503 550 510 550 c 0
 538 550 560 528 560 500 c 0
 560 483 551 467 538 458 c 1
 551 449 560 434 560 417 c 0
 560 399 551 384 537 375 c 1
 551 366 560 351 560 333 c 0
 560 316 551 301 538 292 c 1
 551 283 560 267 560 250 c 0xbc
EndSplineSet
EndChar

StartChar: edieresis
Encoding: 235 235 30
Width: 600
VWidth: 0
UnlinkRmOvrlpSave: 1
Flags: W
HStem: 200 100<224.336 271.624 272.376 324.67 325.33 378.624 379.376 431.67 432.33 498.562> 367 100<219.376 271.67 272.33 324.624 325.376 377.67 378.33 431.624> 533 100<224.336 271.624 272.376 324.67 325.33 377.624 378.376 425.664> 700 100<151.438 217.67 218.33 284.562 365.438 431.67 432.33 498.562>
VStem: 90 150<296.667 374.139 458.427 536.333> 143 150<708.438 791.562> 357 150<708.438 791.562> 410 150<458.427 536.333>
LayerCount: 2
Back
Fore
SplineSet
507 250 m 0xfa
 507 222 485 200 457 200 c 0
 448 200 439 203 432 207 c 1
 425 203 416 200 407 200 c 0
 396 200 387 203 379 209 c 1
 371 203 361 200 350 200 c 0
 341 200 332 203 325 207 c 1
 318 203 309 200 300 200 c 0
 289 200 280 203 272 209 c 1
 264 203 254 200 243 200 c 0
 234 200 225 203 218 207 c 1
 211 203 202 200 193 200 c 0
 165 200 143 222 143 250 c 0xf6
 143 265 149 278 159 287 c 1
 153 285 147 283 140 283 c 0
 112 283 90 305 90 333 c 0
 90 351 99 366 113 375 c 1
 99 384 90 399 90 417 c 0
 90 434 99 449 112 458 c 1
 99 467 90 483 90 500 c 1xf8
 90 528 112 550 140 550 c 0
 147 550 153 548 159 546 c 1
 149 555 143 568 143 583 c 0
 143 611 165 633 193 633 c 0
 202 633 211 630 218 626 c 1
 225 630 234 633 243 633 c 0
 254 633 264 630 272 624 c 1
 280 630 289 633 300 633 c 0
 309 633 318 630 325 626 c 1
 332 630 341 633 350 633 c 0
 361 633 370 630 378 624 c 1
 386 630 396 633 407 633 c 0
 416 633 425 630 432 626 c 1
 439 630 448 633 457 633 c 0
 485 633 507 611 507 583 c 0xf6
 507 568 501 555 491 546 c 1
 497 548 503 550 510 550 c 0
 538 550 560 528 560 500 c 0
 560 483 551 467 538 458 c 1
 551 449 560 434 560 417 c 0xf1
 560 389 538 367 510 367 c 0
 501 367 492 370 485 374 c 1
 478 370 469 367 460 367 c 0
 449 367 440 370 432 376 c 1
 424 370 414 367 403 367 c 0
 394 367 385 370 378 374 c 1
 371 370 362 367 353 367 c 0
 343 367 333 371 325 376 c 1
 317 371 307 367 297 367 c 0
 288 367 279 370 272 374 c 1
 265 370 256 367 247 367 c 0
 236 367 227 370 219 376 c 0
 217 375 l 1
 231 366 240 351 240 333 c 1
 240 318 234 305 224 296 c 1
 230 298 236 300 243 300 c 0
 254 300 264 297 272 291 c 1
 280 297 289 300 300 300 c 0
 309 300 318 297 325 293 c 1
 332 297 341 300 350 300 c 0
 361 300 371 297 379 291 c 1
 387 297 396 300 407 300 c 0
 416 300 425 297 432 293 c 1
 439 297 448 300 457 300 c 0
 485 300 507 278 507 250 c 0xfa
507 750 m 0
 507 722 485 700 457 700 c 0
 448 700 439 703 432 707 c 1
 425 703 416 700 407 700 c 0
 379 700 357 722 357 750 c 0
 357 778 379 800 407 800 c 0
 416 800 425 797 432 793 c 1
 439 797 448 800 457 800 c 0
 485 800 507 778 507 750 c 0
293 750 m 0
 293 722 271 700 243 700 c 0
 234 700 225 703 218 707 c 1
 211 703 202 700 193 700 c 0
 165 700 143 722 143 750 c 0
 143 778 165 800 193 800 c 0
 202 800 211 797 218 793 c 1
 225 797 234 800 243 800 c 0
 271 800 293 778 293 750 c 0
218 458 m 1
 219 458 l 0
 227 464 236 467 247 467 c 0
 256 467 265 464 272 460 c 1
 279 464 288 467 297 467 c 0
 307 467 317 463 325 458 c 1
 333 463 343 467 353 467 c 0
 362 467 371 464 378 460 c 1
 385 464 394 467 403 467 c 0
 414 467 424 464 432 458 c 0
 419 467 410 483 410 500 c 0
 410 515 416 528 426 537 c 1
 420 535 414 533 407 533 c 0
 396 533 386 536 378 542 c 1
 370 536 361 533 350 533 c 0
 341 533 332 536 325 540 c 1
 318 536 309 533 300 533 c 0
 289 533 280 536 272 542 c 1
 264 536 254 533 243 533 c 0
 236 533 230 535 224 537 c 1
 234 528 240 515 240 500 c 1xf9
 240 483 231 467 218 458 c 1
EndSplineSet
EndChar

StartChar: l
Encoding: 108 108 31
Width: 600
VWidth: 0
UnlinkRmOvrlpSave: 1
Flags: W
HStem: 200 100<98.4375 164.67 165.33 218.624 326.376 378.67 379.33 445.562> 700 100<98.4375 164.67 165.33 218.624>
VStem: 197 150<292.426 374.139 375.861 457.574 458.427 541.573 542.426 624.139 625.861 707.574> 219 128<292.426 332.205 667.795 707.574>
LayerCount: 2
Back
Fore
SplineSet
454 250 m 0xe0
 454 222 432 200 404 200 c 0
 395 200 386 203 379 207 c 1
 372 203 363 200 354 200 c 0
 343 200 334 203 326 209 c 1
 318 203 308 200 297 200 c 0
 288 200 279 203 272 207 c 1
 265 203 256 200 247 200 c 0
 236 200 227 203 219 209 c 1
 211 203 201 200 190 200 c 0
 181 200 172 203 165 207 c 1
 158 203 149 200 140 200 c 0
 112 200 90 222 90 250 c 0
 90 278 112 300 140 300 c 0
 149 300 158 297 165 293 c 1
 172 297 181 300 190 300 c 0
 201 300 211 297 219 291 c 0
 219 292 l 1xd0
 206 301 197 316 197 333 c 1
 197 351 206 366 220 375 c 1
 206 384 197 399 197 417 c 0xe0
 197 434 206 449 219 458 c 1xd0
 206 467 197 483 197 500 c 1xe0
 197 517 206 533 219 542 c 1xd0
 206 551 197 566 197 583 c 0
 197 601 206 616 220 625 c 1
 206 634 197 649 197 667 c 0xe0
 197 684 206 699 219 708 c 1
 219 709 l 0
 211 703 201 700 190 700 c 0
 181 700 172 703 165 707 c 1
 158 703 149 700 140 700 c 0
 112 700 90 722 90 750 c 0
 90 778 112 800 140 800 c 0
 149 800 158 797 165 793 c 1
 172 797 181 800 190 800 c 0
 201 800 211 797 219 791 c 1
 227 797 236 800 247 800 c 0
 256 800 265 797 272 793 c 1
 279 797 288 800 297 800 c 0
 325 800 347 778 347 750 c 0xd0
 347 733 338 717 325 708 c 1
 338 699 347 684 347 667 c 0
 347 649 338 634 324 625 c 1
 338 616 347 601 347 583 c 0
 347 566 338 551 325 542 c 1
 338 533 347 517 347 500 c 0
 347 483 338 467 325 458 c 1
 338 449 347 434 347 417 c 0
 347 399 338 384 324 375 c 1
 338 366 347 351 347 333 c 0
 347 316 338 301 325 292 c 1
 326 291 l 0
 334 297 343 300 354 300 c 0
 363 300 372 297 379 293 c 1
 386 297 395 300 404 300 c 0
 432 300 454 278 454 250 c 0xe0
EndSplineSet
EndChar

StartChar: p
Encoding: 112 112 32
Width: 600
VWidth: 0
UnlinkRmOvrlpSave: 1
Flags: W
HStem: 200 21G<126 144.5 185.5 204> 200 21G<126 144.5 185.5 204> 367 100<224.285 271.624 272.376 324.67 325.33 378.624 379.376 425.664> 450 100<491.336 551.562> 533 100<219.376 271.67 272.33 324.624 325.376 377.67 378.33 444.562>
VStem: 90 150<208.438 291.573 292.426 371.574 463.667 541.573> 410 150<463.667 541.562>
LayerCount: 2
Back
Fore
SplineSet
240 250 m 0x26
 240 222 218 200 190 200 c 0
 181 200 172 203 165 207 c 1
 158 203 149 200 140 200 c 0
 112 200 90 222 90 250 c 0
 90 267 99 283 112 292 c 1
 99 301 90 316 90 333 c 1
 90 361 112 383 140 383 c 0
 148 383 155 381 162 378 c 1
 151 387 143 401 143 417 c 0
 143 432 149 445 159 454 c 1
 153 452 147 450 140 450 c 0x96
 112 450 90 472 90 500 c 0
 90 517 99 533 112 542 c 1
 99 551 90 566 90 583 c 0
 90 611 112 633 140 633 c 0
 149 633 158 630 165 626 c 1
 172 630 181 633 190 633 c 0
 201 633 211 630 219 624 c 1
 227 630 236 633 247 633 c 0
 256 633 265 630 272 626 c 1
 279 630 288 633 297 633 c 0
 307 633 317 629 325 624 c 1
 333 629 343 633 353 633 c 0
 362 633 371 630 378 626 c 1
 385 630 394 633 403 633 c 0
 431 633 453 611 453 583 c 0
 453 555 431 533 403 533 c 0
 394 533 385 536 378 540 c 1
 371 536 362 533 353 533 c 0
 343 533 333 537 325 542 c 1
 317 537 307 533 297 533 c 0
 288 533 279 536 272 540 c 1
 265 536 256 533 247 533 c 0
 236 533 227 536 219 542 c 0
 218 542 l 1
 231 533 240 517 240 500 c 0
 240 485 234 472 224 463 c 1
 230 465 236 467 243 467 c 0
 254 467 264 464 272 458 c 1
 280 464 289 467 300 467 c 0
 309 467 318 464 325 460 c 1
 332 464 341 467 350 467 c 0
 361 467 371 464 379 458 c 1
 387 464 396 467 407 467 c 0x2e
 414 467 420 465 426 463 c 1
 416 472 410 485 410 500 c 1
 410 528 432 550 460 550 c 0
 469 550 478 547 485 543 c 1
 492 547 501 550 510 550 c 0
 538 550 560 528 560 500 c 0
 560 472 538 450 510 450 c 0x16
 503 450 497 452 491 454 c 1
 501 445 507 432 507 417 c 1
 507 389 485 367 457 367 c 0
 448 367 439 370 432 374 c 1
 425 370 416 367 407 367 c 0
 396 367 387 370 379 376 c 1
 371 370 361 367 350 367 c 0
 341 367 332 370 325 374 c 1
 318 370 309 367 300 367 c 0
 289 367 280 370 272 376 c 1
 264 370 254 367 243 367 c 0
 235 367 228 369 221 372 c 1
 232 363 240 349 240 333 c 1
 240 316 231 301 218 292 c 1
 231 283 240 267 240 250 c 0x26
EndSplineSet
EndChar

StartChar: t
Encoding: 116 116 33
Width: 600
VWidth: 0
UnlinkRmOvrlpSave: 1
Flags: W
HStem: 200 100<331.336 378.624 379.376 425.664> 283 100<491.336 551.562> 533 100<98.4375 164.67 165.33 218.624 325.376 377.67 378.33 444.562> 780 20G<233 251.5 292.5 311>
VStem: 197 150<296.667 374.139 375.861 457.574 458.427 541.573 625.861 707.574 708.427 791.562> 250 257<209.117 286.575> 410 150<296.667 374.562>
LayerCount: 2
Back
Fore
SplineSet
507 250 m 1x74
 507 222 485 200 457 200 c 0
 448 200 439 203 432 207 c 1
 425 203 416 200 407 200 c 0
 396 200 387 203 379 209 c 1
 371 203 361 200 350 200 c 0
 341 200 332 203 325 207 c 1
 318 203 309 200 300 200 c 0xb4
 272 200 250 222 250 250 c 0
 250 265 256 278 266 287 c 1
 260 285 254 283 247 283 c 0x74
 219 283 197 305 197 333 c 0
 197 351 206 366 220 375 c 1
 206 384 197 399 197 417 c 0
 197 434 206 449 219 458 c 1
 206 467 197 483 197 500 c 1
 197 517 206 533 219 542 c 1
 211 536 201 533 190 533 c 0
 181 533 172 536 165 540 c 1
 158 536 149 533 140 533 c 0
 112 533 90 555 90 583 c 0
 90 611 112 633 140 633 c 0
 149 633 158 630 165 626 c 1
 172 630 181 633 190 633 c 0
 201 633 211 630 219 624 c 0
 220 625 l 1
 206 634 197 649 197 667 c 0
 197 684 206 699 219 708 c 1
 206 717 197 733 197 750 c 0
 197 778 219 800 247 800 c 0
 256 800 265 797 272 793 c 1
 279 797 288 800 297 800 c 0
 325 800 347 778 347 750 c 0
 347 733 338 717 325 708 c 1
 338 699 347 684 347 667 c 0
 347 649 338 634 324 625 c 1
 325 624 l 0
 333 629 343 633 353 633 c 0
 362 633 371 630 378 626 c 1
 385 630 394 633 403 633 c 0
 431 633 453 611 453 583 c 0
 453 555 431 533 403 533 c 0
 394 533 385 536 378 540 c 1
 371 536 362 533 353 533 c 0
 343 533 333 537 325 542 c 0
 338 533 347 517 347 500 c 0
 347 483 338 467 325 458 c 1
 338 449 347 434 347 417 c 0
 347 399 338 384 324 375 c 1
 338 366 347 351 347 333 c 0
 347 318 341 305 331 296 c 1
 337 298 343 300 350 300 c 0
 361 300 371 297 379 291 c 1
 387 297 396 300 407 300 c 0xb8
 414 300 420 298 426 296 c 1
 416 305 410 318 410 333 c 1
 410 361 432 383 460 383 c 0
 469 383 478 380 485 376 c 1
 492 380 501 383 510 383 c 0
 538 383 560 361 560 333 c 0x7a
 560 305 538 283 510 283 c 0
 503 283 497 285 491 287 c 1
 501 278 507 265 507 250 c 1x74
EndSplineSet
EndChar

StartChar: divide
Encoding: 247 247 34
Width: 600
VWidth: 0
UnlinkRmOvrlpSave: 1
Flags: W
HStem: 283 100<258.438 324.67 325.33 391.562> 450 100<98.4375 164.67 165.33 218.624 219.376 271.67 272.33 324.624 325.376 377.67 378.33 431.624 432.376 484.67 485.33 551.562> 617 100<258.438 324.67 325.33 391.562>
VStem: 250 150<291.438 374.562 625.438 708.562>
CounterMasks: 1 e0
LayerCount: 2
Back
Fore
SplineSet
400 333 m 0
 400 305 378 283 350 283 c 0
 341 283 332 286 325 290 c 1
 318 286 309 283 300 283 c 0
 272 283 250 305 250 333 c 0
 250 361 272 383 300 383 c 0
 309 383 318 380 325 376 c 1
 332 380 341 383 350 383 c 0
 378 383 400 361 400 333 c 0
560 500 m 0
 560 472 538 450 510 450 c 0
 501 450 492 453 485 457 c 1
 478 453 469 450 460 450 c 0
 449 450 440 453 432 459 c 1
 424 453 414 450 403 450 c 0
 394 450 385 453 378 457 c 1
 371 453 362 450 353 450 c 0
 343 450 333 454 325 459 c 1
 317 454 307 450 297 450 c 0
 288 450 279 453 272 457 c 1
 265 453 256 450 247 450 c 0
 236 450 227 453 219 459 c 1
 211 453 201 450 190 450 c 0
 181 450 172 453 165 457 c 1
 158 453 149 450 140 450 c 0
 112 450 90 472 90 500 c 0
 90 528 112 550 140 550 c 0
 149 550 158 547 165 543 c 1
 172 547 181 550 190 550 c 0
 201 550 211 547 219 541 c 1
 227 547 236 550 247 550 c 0
 256 550 265 547 272 543 c 1
 279 547 288 550 297 550 c 0
 307 550 317 546 325 541 c 1
 333 546 343 550 353 550 c 0
 362 550 371 547 378 543 c 1
 385 547 394 550 403 550 c 0
 414 550 424 547 432 541 c 1
 440 547 449 550 460 550 c 0
 469 550 478 547 485 543 c 1
 492 547 501 550 510 550 c 0
 538 550 560 528 560 500 c 0
400 667 m 0
 400 639 378 617 350 617 c 0
 341 617 332 620 325 624 c 1
 318 620 309 617 300 617 c 0
 272 617 250 639 250 667 c 0
 250 695 272 717 300 717 c 0
 309 717 318 714 325 710 c 1
 332 714 341 717 350 717 c 0
 378 717 400 695 400 667 c 0
EndSplineSet
EndChar

StartChar: x
Encoding: 120 120 35
Width: 600
VWidth: 0
UnlinkRmOvrlpSave: 1
Flags: W
HStem: 200 100<98.4375 158.664 491.336 551.562> 283 100<224.336 284.562 365.438 425.664> 367 100<258.438 324.67 325.33 391.562> 450 100<224.336 284.562 365.438 425.664> 533 100<98.4375 158.664 491.336 551.562>
VStem: 90 150<208.438 286.333 546.667 624.562> 143 150<296.667 374.562 458.438 536.333> 250 150<375.438 458.562> 357 150<296.667 374.562 458.438 536.333> 410 150<208.438 286.333 546.667 624.562>
LayerCount: 2
Back
Fore
SplineSet
560 250 m 0x8040
 560 222 538 200 510 200 c 0
 501 200 492 203 485 207 c 1
 478 203 469 200 460 200 c 0
 432 200 410 222 410 250 c 0x8040
 410 265 416 278 426 287 c 1
 420 285 414 283 407 283 c 0
 379 283 357 305 357 333 c 0
 357 361 379 383 407 383 c 0
 416 383 425 380 432 376 c 1
 439 380 448 383 457 383 c 0
 485 383 507 361 507 333 c 0x4080
 507 318 501 305 491 296 c 1
 497 298 503 300 510 300 c 0
 538 300 560 278 560 250 c 0x8040
240 250 m 1x44
 240 222 218 200 190 200 c 0
 181 200 172 203 165 207 c 1
 158 203 149 200 140 200 c 0
 112 200 90 222 90 250 c 0
 90 278 112 300 140 300 c 0x84
 147 300 153 298 159 296 c 1
 149 305 143 318 143 333 c 0
 143 361 165 383 193 383 c 0
 202 383 211 380 218 376 c 1
 225 380 234 383 243 383 c 0
 271 383 293 361 293 333 c 0x42
 293 305 271 283 243 283 c 0
 236 283 230 285 224 287 c 1
 234 278 240 265 240 250 c 1x44
400 417 m 0x21
 400 389 378 367 350 367 c 0
 341 367 332 370 325 374 c 1
 318 370 309 367 300 367 c 0
 272 367 250 389 250 417 c 0
 250 445 272 467 300 467 c 0
 309 467 318 464 325 460 c 1
 332 464 341 467 350 467 c 0
 378 467 400 445 400 417 c 0x21
507 500 m 1x0880
 507 472 485 450 457 450 c 0
 448 450 439 453 432 457 c 1
 425 453 416 450 407 450 c 0
 379 450 357 472 357 500 c 0
 357 528 379 550 407 550 c 0x1080
 414 550 420 548 426 546 c 1
 416 555 410 568 410 583 c 1
 410 611 432 633 460 633 c 0
 469 633 478 630 485 626 c 1
 492 630 501 633 510 633 c 0
 538 633 560 611 560 583 c 0x0840
 560 555 538 533 510 533 c 0
 503 533 497 535 491 537 c 1
 501 528 507 515 507 500 c 1x0880
293 500 m 0x12
 293 472 271 450 243 450 c 0
 234 450 225 453 218 457 c 1
 211 453 202 450 193 450 c 0
 165 450 143 472 143 500 c 0x12
 143 515 149 528 159 537 c 1
 153 535 147 533 140 533 c 0
 112 533 90 555 90 583 c 0
 90 611 112 633 140 633 c 0
 149 633 158 630 165 626 c 1
 172 630 181 633 190 633 c 0
 218 633 240 611 240 583 c 0x0c
 240 568 234 555 224 546 c 1
 230 548 236 550 243 550 c 0
 271 550 293 528 293 500 c 0x12
EndSplineSet
EndChar

StartChar: bar
Encoding: 124 124 36
Width: 600
VWidth: 0
UnlinkRmOvrlpSave: 1
Flags: W
HStem: 200 21G<126 144.5 185.5 204> 200 21G<126 144.5 185.5 204> 780 20G<126 144.5 185.5 204>
VStem: 90 150<208.438 291.573 292.426 374.139 375.861 457.574 458.427 541.573 542.426 624.139 625.861 707.574 708.427 791.562>
LayerCount: 2
Back
Fore
SplineSet
240 250 m 0xb0
 240 222 218 200 190 200 c 0
 181 200 172 203 165 207 c 1
 158 203 149 200 140 200 c 0
 112 200 90 222 90 250 c 0
 90 267 99 283 112 292 c 1
 99 301 90 316 90 333 c 1
 90 351 99 366 113 375 c 1
 99 384 90 399 90 417 c 0
 90 434 99 449 112 458 c 1
 99 467 90 483 90 500 c 1
 90 517 99 533 112 542 c 1
 99 551 90 566 90 583 c 0
 90 601 99 616 113 625 c 1
 99 634 90 649 90 667 c 0
 90 684 99 699 112 708 c 1
 99 717 90 733 90 750 c 0
 90 778 112 800 140 800 c 0
 149 800 158 797 165 793 c 1
 172 797 181 800 190 800 c 0
 218 800 240 778 240 750 c 0
 240 733 231 717 218 708 c 1
 231 699 240 684 240 667 c 0
 240 649 231 634 217 625 c 1
 231 616 240 601 240 583 c 0
 240 566 231 551 218 542 c 1
 231 533 240 517 240 500 c 0
 240 483 231 467 218 458 c 1
 231 449 240 434 240 417 c 0
 240 399 231 384 217 375 c 1
 231 366 240 351 240 333 c 0
 240 316 231 301 218 292 c 1
 231 283 240 267 240 250 c 0xb0
EndSplineSet
EndChar

StartChar: glyph37
Encoding: 769 769 37
Width: 600
VWidth: 0
UnlinkRmOvrlpSave: 1
Flags: W
HStem: 533 100<98.4375 161.672> 700 100<277.336 337.562>
VStem: 90 150<541.438 621.574> 143 150<628.426 703.333> 196 150<713.667 791.562>
LayerCount: 2
Back
Fore
SplineSet
240 583 m 1xe0
 240 555 218 533 190 533 c 0
 181 533 172 536 165 540 c 1
 158 536 149 533 140 533 c 0
 112 533 90 555 90 583 c 0xe0
 90 611 112 633 140 633 c 0
 148 633 155 631 162 628 c 1
 151 637 143 651 143 667 c 1xd0
 143 695 165 717 193 717 c 0
 200 717 206 715 212 713 c 1
 202 722 196 735 196 750 c 1
 196 778 218 800 246 800 c 0
 255 800 264 797 271 793 c 1
 278 797 287 800 296 800 c 0
 324 800 346 778 346 750 c 0xc8
 346 722 324 700 296 700 c 0
 289 700 283 702 277 704 c 1
 287 695 293 682 293 667 c 1xd0
 293 639 271 617 243 617 c 0
 235 617 228 619 221 622 c 1
 232 613 240 599 240 583 c 1xe0
EndSplineSet
EndChar

StartChar: glyph38
Encoding: 8594 8594 38
Width: 600
VWidth: 0
UnlinkRmOvrlpSave: 1
Flags: W
HStem: 283 100<311.438 377.67> 450 100<98.4375 164.67 165.33 218.624 219.376 271.67 272.33 324.624 325.376 373.718 491.281 551.562> 613 20G<452.5 471> 617 100<311.438 377.67>
VStem: 303 150<291.438 373.574 626.426 708.562> 357 150<376.426 453.575 546.425 623.574>
LayerCount: 2
Back
Fore
SplineSet
453 333 m 1xe8
 453 305 431 283 403 283 c 0
 394 283 385 286 378 290 c 1
 371 286 362 283 353 283 c 0
 325 283 303 305 303 333 c 0xe8
 303 361 325 383 353 383 c 0
 362 383 371 380 378 376 c 1
 365 385 357 400 357 417 c 1
 357 432 364 446 374 455 c 1
 368 452 361 450 353 450 c 0
 343 450 333 454 325 459 c 1
 317 454 307 450 297 450 c 0
 288 450 279 453 272 457 c 1
 265 453 256 450 247 450 c 0
 236 450 227 453 219 459 c 1
 211 453 201 450 190 450 c 0
 181 450 172 453 165 457 c 1
 158 453 149 450 140 450 c 0
 112 450 90 472 90 500 c 0
 90 528 112 550 140 550 c 0
 149 550 158 547 165 543 c 1
 172 547 181 550 190 550 c 0
 201 550 211 547 219 541 c 1
 227 547 236 550 247 550 c 0
 256 550 265 547 272 543 c 1
 279 547 288 550 297 550 c 0
 307 550 317 546 325 541 c 1
 333 546 343 550 353 550 c 0
 361 550 368 548 374 545 c 1
 364 554 357 568 357 583 c 0xe4
 357 600 365 615 378 624 c 1
 371 620 362 617 353 617 c 0
 325 617 303 639 303 667 c 0
 303 695 325 717 353 717 c 0
 362 717 371 714 378 710 c 1
 385 714 394 717 403 717 c 0
 431 717 453 695 453 667 c 0xd8
 453 650 445 635 432 626 c 1
 439 630 448 633 457 633 c 0
 485 633 507 611 507 583 c 0
 507 568 501 555 491 546 c 1
 497 548 503 550 510 550 c 0
 538 550 560 528 560 500 c 0
 560 472 538 450 510 450 c 0
 503 450 497 452 491 454 c 1
 501 445 507 432 507 417 c 1xe4
 507 389 485 367 457 367 c 0
 448 367 439 370 432 374 c 1
 445 365 453 350 453 333 c 1xe8
EndSplineSet
EndChar

StartChar: numbersign
Encoding: 35 35 39
Width: 600
VWidth: 0
UnlinkRmOvrlpSave: 1
Flags: W
HStem: 200 21G<233 251.5 292.5 302 348 357.5 398.5 417> 200 21G<233 251.5 292.5 302 348 357.5 398.5 417> 367 100<98.4375 164.67 165.33 218.624 432.376 484.67 485.33 551.562> 533 100<98.4375 164.67 165.33 218.624 432.376 484.67 485.33 551.562> 780 20G<233 251.5 292.5 302 348 357.5 398.5 417>
VStem: 197 256<209.117 290.689 292.426 373.695 459.311 540.689 626.305 707.574 709.311 790.883>
LayerCount: 2
Back
Fore
SplineSet
453 250 m 0xbc
 453 222 431 200 403 200 c 0
 394 200 385 203 378 207 c 1
 371 203 362 200 353 200 c 0
 343 200 333 204 325 209 c 1
 317 204 307 200 297 200 c 0
 288 200 279 203 272 207 c 1
 265 203 256 200 247 200 c 0
 219 200 197 222 197 250 c 0
 197 267 206 283 219 292 c 1
 206 301 197 316 197 333 c 1
 197 351 206 366 220 375 c 1
 219 376 l 0
 211 370 201 367 190 367 c 0
 181 367 172 370 165 374 c 1
 158 370 149 367 140 367 c 0
 112 367 90 389 90 417 c 0
 90 445 112 467 140 467 c 0
 149 467 158 464 165 460 c 1
 172 464 181 467 190 467 c 0
 201 467 211 464 219 458 c 0
 206 467 197 483 197 500 c 1
 197 517 206 533 219 542 c 1
 211 536 201 533 190 533 c 0
 181 533 172 536 165 540 c 1
 158 536 149 533 140 533 c 0
 112 533 90 555 90 583 c 0
 90 611 112 633 140 633 c 0
 149 633 158 630 165 626 c 1
 172 630 181 633 190 633 c 0
 201 633 211 630 219 624 c 0
 220 625 l 1
 206 634 197 649 197 667 c 0
 197 684 206 699 219 708 c 1
 206 717 197 733 197 750 c 0
 197 778 219 800 247 800 c 0
 256 800 265 797 272 793 c 1
 279 797 288 800 297 800 c 0
 307 800 317 796 325 791 c 1
 333 796 343 800 353 800 c 0
 362 800 371 797 378 793 c 1
 385 797 394 800 403 800 c 0
 431 800 453 778 453 750 c 0
 453 733 444 717 431 708 c 1
 444 699 453 684 453 667 c 0
 453 649 444 634 430 625 c 1
 432 624 l 0
 440 630 449 633 460 633 c 0
 469 633 478 630 485 626 c 1
 492 630 501 633 510 633 c 0
 538 633 560 611 560 583 c 0
 560 555 538 533 510 533 c 0
 501 533 492 536 485 540 c 1
 478 536 469 533 460 533 c 0
 449 533 440 536 432 542 c 0
 431 542 l 1
 444 533 453 517 453 500 c 0
 453 483 444 467 431 458 c 1
 432 458 l 0
 440 464 449 467 460 467 c 0
 469 467 478 464 485 460 c 1
 492 464 501 467 510 467 c 0
 538 467 560 445 560 417 c 0
 560 389 538 367 510 367 c 0
 501 367 492 370 485 374 c 1
 478 370 469 367 460 367 c 0
 449 367 440 370 432 376 c 0
 430 375 l 1
 444 366 453 351 453 333 c 0
 453 316 444 301 431 292 c 1
 444 283 453 267 453 250 c 0xbc
325 292 m 1
 325 291 l 0
 325 292 l 1
324 375 m 1
 325 374 l 0
 326 375 l 1
 325 376 l 0
 324 375 l 1
325 458 m 1
 325 459 l 0
 325 458 l 1
325 542 m 1
 325 541 l 0
 325 542 l 1
324 625 m 1
 325 624 l 0
 326 625 l 1
 325 626 l 0
 324 625 l 1
325 708 m 1
 325 709 l 0
 325 708 l 1
EndSplineSet
EndChar

StartChar: glyph40
Encoding: 8356 8356 40
Width: 600
VWidth: 0
UnlinkRmOvrlpSave: 1
Flags: W
HStem: 200 100<98.4375 164.67 165.33 218.624 325.376 377.67 378.33 431.624 432.376 484.67 485.33 551.562> 367 100<98.4375 164.67 165.33 218.624 325.376 377.67 378.33 444.562> 533 100<98.4375 164.67 165.33 218.624 325.376 377.67 378.33 444.562> 617 100<491.336 551.562> 700 100<331.336 377.624 378.376 425.664>
VStem: 197 150<292.426 374.139 458.427 541.573 625.861 703.333> 250 257<713.425 790.883> 410 150<625.438 703.333>
LayerCount: 2
Back
Fore
SplineSet
560 250 m 0xed
 560 222 538 200 510 200 c 0
 501 200 492 203 485 207 c 1
 478 203 469 200 460 200 c 0
 449 200 440 203 432 209 c 1
 424 203 414 200 403 200 c 0
 394 200 385 203 378 207 c 1
 371 203 362 200 353 200 c 0
 343 200 333 204 325 209 c 1
 317 204 307 200 297 200 c 0
 288 200 279 203 272 207 c 1
 265 203 256 200 247 200 c 0
 236 200 227 203 219 209 c 1
 211 203 201 200 190 200 c 0
 181 200 172 203 165 207 c 1
 158 203 149 200 140 200 c 0
 112 200 90 222 90 250 c 0
 90 278 112 300 140 300 c 0
 149 300 158 297 165 293 c 1
 172 297 181 300 190 300 c 0
 201 300 211 297 219 291 c 0
 219 292 l 1
 206 301 197 316 197 333 c 1
 197 351 206 366 220 375 c 1
 219 376 l 0
 211 370 201 367 190 367 c 0
 181 367 172 370 165 374 c 1
 158 370 149 367 140 367 c 0
 112 367 90 389 90 417 c 0
 90 445 112 467 140 467 c 0
 149 467 158 464 165 460 c 1
 172 464 181 467 190 467 c 0
 201 467 211 464 219 458 c 0
 206 467 197 483 197 500 c 1
 197 517 206 533 219 542 c 1
 211 536 201 533 190 533 c 0
 181 533 172 536 165 540 c 1
 158 536 149 533 140 533 c 0
 112 533 90 555 90 583 c 0
 90 611 112 633 140 633 c 0
 149 633 158 630 165 626 c 1
 172 630 181 633 190 633 c 0xed
 201 633 211 630 219 624 c 0
 220 625 l 1
 206 634 197 649 197 667 c 0
 197 695 219 717 247 717 c 0xd5
 254 717 260 715 266 713 c 1
 256 722 250 735 250 750 c 0
 250 778 272 800 300 800 c 0
 309 800 318 797 325 793 c 1
 332 797 341 800 350 800 c 0
 361 800 370 797 378 791 c 1
 386 797 396 800 407 800 c 0
 416 800 425 797 432 793 c 1
 439 797 448 800 457 800 c 0
 485 800 507 778 507 750 c 0xca
 507 735 501 722 491 713 c 1
 497 715 503 717 510 717 c 0
 538 717 560 695 560 667 c 0
 560 639 538 617 510 617 c 0
 501 617 492 620 485 624 c 1
 478 620 469 617 460 617 c 0xd1
 432 617 410 639 410 667 c 0
 410 682 416 695 426 704 c 1
 420 702 414 700 407 700 c 0
 396 700 386 703 378 709 c 1
 370 703 361 700 350 700 c 0
 343 700 337 702 331 704 c 1
 341 695 347 682 347 667 c 1
 347 649 338 634 324 625 c 1
 325 624 l 0
 333 629 343 633 353 633 c 0
 362 633 371 630 378 626 c 1
 385 630 394 633 403 633 c 0
 431 633 453 611 453 583 c 0
 453 555 431 533 403 533 c 0
 394 533 385 536 378 540 c 1
 371 536 362 533 353 533 c 0
 343 533 333 537 325 542 c 0
 338 533 347 517 347 500 c 0
 347 483 338 467 325 458 c 1
 333 463 343 467 353 467 c 0
 362 467 371 464 378 460 c 1
 385 464 394 467 403 467 c 0
 431 467 453 445 453 417 c 0
 453 389 431 367 403 367 c 0
 394 367 385 370 378 374 c 1
 371 370 362 367 353 367 c 0
 343 367 333 371 325 376 c 0
 324 375 l 1
 338 366 347 351 347 333 c 0
 347 316 338 301 325 292 c 1
 325 291 l 0
 333 296 343 300 353 300 c 0
 362 300 371 297 378 293 c 1
 385 297 394 300 403 300 c 0
 414 300 424 297 432 291 c 1
 440 297 449 300 460 300 c 0
 469 300 478 297 485 293 c 1
 492 297 501 300 510 300 c 0
 538 300 560 278 560 250 c 0xed
EndSplineSet
EndChar

StartChar: quotesingle
Encoding: 39 39 41
Width: 600
VWidth: 0
UnlinkRmOvrlpSave: 1
Flags: W
HStem: 533 100<98.4375 161.672> 700 100<277.336 337.562>
VStem: 90 150<541.438 621.574> 143 150<628.426 703.333> 196 150<713.667 791.562>
LayerCount: 2
Back
Fore
SplineSet
240 583 m 1xe0
 240 555 218 533 190 533 c 0
 181 533 172 536 165 540 c 1
 158 536 149 533 140 533 c 0
 112 533 90 555 90 583 c 0xe0
 90 611 112 633 140 633 c 0
 148 633 155 631 162 628 c 1
 151 637 143 651 143 667 c 1xd0
 143 695 165 717 193 717 c 0
 200 717 206 715 212 713 c 1
 202 722 196 735 196 750 c 1
 196 778 218 800 246 800 c 0
 255 800 264 797 271 793 c 1
 278 797 287 800 296 800 c 0
 324 800 346 778 346 750 c 0xc8
 346 722 324 700 296 700 c 0
 289 700 283 702 277 704 c 1
 287 695 293 682 293 667 c 1xd0
 293 639 271 617 243 617 c 0
 235 617 228 619 221 622 c 1
 232 613 240 599 240 583 c 1xe0
EndSplineSet
EndChar

StartChar: plus
Encoding: 43 43 42
Width: 600
VWidth: 0
UnlinkRmOvrlpSave: 1
Flags: W
HStem: 200 21G<286 304.5 345.5 364> 200 21G<286 304.5 345.5 364> 450 100<98.4375 164.67 165.33 218.624 219.376 265.719 384.281 431.624 432.376 484.67 485.33 551.562> 780 20G<286 304.5 345.5 364>
VStem: 250 150<208.438 291.573 292.426 374.139 375.861 453.575 546.425 624.139 625.861 707.574 708.427 791.562>
LayerCount: 2
Back
Fore
SplineSet
400 250 m 0xb8
 400 222 378 200 350 200 c 0
 341 200 332 203 325 207 c 1
 318 203 309 200 300 200 c 0
 272 200 250 222 250 250 c 0
 250 267 259 283 272 292 c 1
 259 301 250 316 250 333 c 1
 250 351 259 366 273 375 c 1
 259 384 250 399 250 417 c 0
 250 432 256 445 266 454 c 1
 260 452 254 450 247 450 c 0
 236 450 227 453 219 459 c 1
 211 453 201 450 190 450 c 0
 181 450 172 453 165 457 c 1
 158 453 149 450 140 450 c 0
 112 450 90 472 90 500 c 0
 90 528 112 550 140 550 c 0
 149 550 158 547 165 543 c 1
 172 547 181 550 190 550 c 0
 201 550 211 547 219 541 c 1
 227 547 236 550 247 550 c 0
 254 550 260 548 266 546 c 1
 256 555 250 568 250 583 c 0
 250 601 259 616 273 625 c 1
 259 634 250 649 250 667 c 0
 250 684 259 699 272 708 c 1
 259 717 250 733 250 750 c 0
 250 778 272 800 300 800 c 0
 309 800 318 797 325 793 c 1
 332 797 341 800 350 800 c 0
 378 800 400 778 400 750 c 0
 400 733 391 717 378 708 c 1
 391 699 400 684 400 667 c 0
 400 649 391 634 377 625 c 1
 391 616 400 601 400 583 c 0
 400 568 394 555 384 546 c 1
 390 548 396 550 403 550 c 0
 414 550 424 547 432 541 c 1
 440 547 449 550 460 550 c 0
 469 550 478 547 485 543 c 1
 492 547 501 550 510 550 c 0
 538 550 560 528 560 500 c 0
 560 472 538 450 510 450 c 0
 501 450 492 453 485 457 c 1
 478 453 469 450 460 450 c 0
 449 450 440 453 432 459 c 1
 424 453 414 450 403 450 c 0
 396 450 390 452 384 454 c 1
 394 445 400 432 400 417 c 1
 400 399 391 384 377 375 c 1
 391 366 400 351 400 333 c 0
 400 316 391 301 378 292 c 1
 391 283 400 267 400 250 c 0xb8
EndSplineSet
EndChar

StartChar: glyph43
Encoding: 8364 8364 43
Width: 600
VWidth: 0
UnlinkRmOvrlpSave: 1
Flags: W
HStem: 200 100<331.336 378.624 379.376 425.664> 283 100<491.336 551.562> 367 100<98.4375 164.67 165.33 218.624 325.376 377.67 378.33 444.562> 533 100<98.4375 164.67 165.33 218.624 325.376 377.67 378.33 444.562> 617 100<491.336 551.562> 700 100<331.336 377.624 378.376 425.664>
VStem: 197 150<296.667 374.139 458.427 541.573 625.861 703.333> 410 150<296.667 374.562 625.438 703.333>
LayerCount: 2
Back
Fore
SplineSet
507 250 m 1x43
 507 222 485 200 457 200 c 0
 448 200 439 203 432 207 c 1
 425 203 416 200 407 200 c 0
 396 200 387 203 379 209 c 1
 371 203 361 200 350 200 c 0
 341 200 332 203 325 207 c 1
 318 203 309 200 300 200 c 0x83
 272 200 250 222 250 250 c 0
 250 265 256 278 266 287 c 1
 260 285 254 283 247 283 c 0x43
 219 283 197 305 197 333 c 0
 197 351 206 366 220 375 c 1
 219 376 l 0
 211 370 201 367 190 367 c 0
 181 367 172 370 165 374 c 1
 158 370 149 367 140 367 c 0
 112 367 90 389 90 417 c 0
 90 445 112 467 140 467 c 0
 149 467 158 464 165 460 c 1
 172 464 181 467 190 467 c 0
 201 467 211 464 219 458 c 0
 206 467 197 483 197 500 c 1
 197 517 206 533 219 542 c 1
 211 536 201 533 190 533 c 0
 181 533 172 536 165 540 c 1
 158 536 149 533 140 533 c 0
 112 533 90 555 90 583 c 0
 90 611 112 633 140 633 c 0
 149 633 158 630 165 626 c 1
 172 630 181 633 190 633 c 0x33
 201 633 211 630 219 624 c 0
 220 625 l 1
 206 634 197 649 197 667 c 0
 197 695 219 717 247 717 c 0x0b
 254 717 260 715 266 713 c 1
 256 722 250 735 250 750 c 0
 250 778 272 800 300 800 c 0
 309 800 318 797 325 793 c 1
 332 797 341 800 350 800 c 0
 361 800 370 797 378 791 c 1
 386 797 396 800 407 800 c 0
 416 800 425 797 432 793 c 1
 439 797 448 800 457 800 c 0x07
 485 800 507 778 507 750 c 0
 507 735 501 722 491 713 c 1
 497 715 503 717 510 717 c 0
 538 717 560 695 560 667 c 0
 560 639 538 617 510 617 c 0
 501 617 492 620 485 624 c 1
 478 620 469 617 460 617 c 0x0b
 432 617 410 639 410 667 c 0
 410 682 416 695 426 704 c 1
 420 702 414 700 407 700 c 0
 396 700 386 703 378 709 c 1
 370 703 361 700 350 700 c 0
 343 700 337 702 331 704 c 1
 341 695 347 682 347 667 c 1
 347 649 338 634 324 625 c 1
 325 624 l 0
 333 629 343 633 353 633 c 0
 362 633 371 630 378 626 c 1
 385 630 394 633 403 633 c 0
 431 633 453 611 453 583 c 0
 453 555 431 533 403 533 c 0
 394 533 385 536 378 540 c 1
 371 536 362 533 353 533 c 0
 343 533 333 537 325 542 c 0
 338 533 347 517 347 500 c 0
 347 483 338 467 325 458 c 1
 333 463 343 467 353 467 c 0
 362 467 371 464 378 460 c 1
 385 464 394 467 403 467 c 0
 431 467 453 445 453 417 c 0
 453 389 431 367 403 367 c 0
 394 367 385 370 378 374 c 1
 371 370 362 367 353 367 c 0
 343 367 333 371 325 376 c 0
 324 375 l 1
 338 366 347 351 347 333 c 0
 347 318 341 305 331 296 c 1
 337 298 343 300 350 300 c 0
 361 300 371 297 379 291 c 1
 387 297 396 300 407 300 c 0xb7
 414 300 420 298 426 296 c 1
 416 305 410 318 410 333 c 1
 410 361 432 383 460 383 c 0
 469 383 478 380 485 376 c 1
 492 380 501 383 510 383 c 0
 538 383 560 361 560 333 c 0
 560 305 538 283 510 283 c 0
 503 283 497 285 491 287 c 1
 501 278 507 265 507 250 c 1x43
EndSplineSet
EndChar

StartChar: slash
Encoding: 47 47 44
Width: 600
VWidth: 0
UnlinkRmOvrlpSave: 1
Flags: W
HStem: 200 100<98.4375 158.664> 200 21G<185.5 204> 613 20G<339 357.5> 700 100<491.336 551.562>
VStem: 90 150<208.438 286.333> 143 150<296.667 373.574> 197 150<376.426 453.333> 250 150<463.667 536.333> 303 150<546.667 623.574> 357 150<626.426 703.333> 410 150<713.667 791.562>
LayerCount: 2
Back
Fore
SplineSet
240 250 m 1xb8
 240 222 218 200 190 200 c 0x78
 181 200 172 203 165 207 c 1
 158 203 149 200 140 200 c 0
 112 200 90 222 90 250 c 0xb8
 90 278 112 300 140 300 c 0
 147 300 153 298 159 296 c 1
 149 305 143 318 143 333 c 0xb4
 143 361 165 383 193 383 c 0
 202 383 211 380 218 376 c 1
 205 385 197 400 197 417 c 0xb2
 197 445 219 467 247 467 c 0
 254 467 260 465 266 463 c 1
 256 472 250 485 250 500 c 0xb1
 250 528 272 550 300 550 c 0
 307 550 313 548 319 546 c 1
 309 555 303 568 303 583 c 1xb080
 303 611 325 633 353 633 c 0
 362 633 371 630 378 626 c 1
 365 635 357 650 357 667 c 1xb040
 357 695 379 717 407 717 c 0
 414 717 420 715 426 713 c 1
 416 722 410 735 410 750 c 1
 410 778 432 800 460 800 c 0
 469 800 478 797 485 793 c 1
 492 797 501 800 510 800 c 0
 538 800 560 778 560 750 c 0xb020
 560 722 538 700 510 700 c 0
 503 700 497 702 491 704 c 1
 501 695 507 682 507 667 c 1xb040
 507 639 485 617 457 617 c 0
 448 617 439 620 432 624 c 1
 445 615 453 600 453 583 c 1xb080
 453 555 431 533 403 533 c 0
 396 533 390 535 384 537 c 1
 394 528 400 515 400 500 c 1xb1
 400 472 378 450 350 450 c 0
 343 450 337 452 331 454 c 1
 341 445 347 432 347 417 c 1xb2
 347 389 325 367 297 367 c 0
 288 367 279 370 272 374 c 1
 285 365 293 350 293 333 c 1xb4
 293 305 271 283 243 283 c 0
 236 283 230 285 224 287 c 1
 234 278 240 265 240 250 c 1xb8
EndSplineSet
EndChar

StartChar: glyph45
Encoding: 305 305 45
Width: 600
VWidth: 0
UnlinkRmOvrlpSave: 1
Flags: W
HStem: 200 100<98.4375 164.67 165.33 218.624 326.376 378.67 379.33 445.562> 533 100<98.4375 164.67 165.33 218.624>
VStem: 90 257<542.426 623.883> 197 150<292.426 374.139 375.861 457.574 458.427 541.573>
LayerCount: 2
Back
Fore
SplineSet
454 250 m 0xd0
 454 222 432 200 404 200 c 0
 395 200 386 203 379 207 c 1
 372 203 363 200 354 200 c 0
 343 200 334 203 326 209 c 1
 318 203 308 200 297 200 c 0
 288 200 279 203 272 207 c 1
 265 203 256 200 247 200 c 0
 236 200 227 203 219 209 c 1
 211 203 201 200 190 200 c 0
 181 200 172 203 165 207 c 1
 158 203 149 200 140 200 c 0
 112 200 90 222 90 250 c 0xe0
 90 278 112 300 140 300 c 0
 149 300 158 297 165 293 c 1
 172 297 181 300 190 300 c 0
 201 300 211 297 219 291 c 0
 219 292 l 1
 206 301 197 316 197 333 c 1
 197 351 206 366 220 375 c 1
 206 384 197 399 197 417 c 0
 197 434 206 449 219 458 c 1
 206 467 197 483 197 500 c 1xd0
 197 517 206 533 219 542 c 1
 211 536 201 533 190 533 c 0
 181 533 172 536 165 540 c 1
 158 536 149 533 140 533 c 0
 112 533 90 555 90 583 c 0
 90 611 112 633 140 633 c 0
 149 633 158 630 165 626 c 1
 172 630 181 633 190 633 c 0
 201 633 211 630 219 624 c 1
 227 630 236 633 247 633 c 0
 256 633 265 630 272 626 c 1
 279 630 288 633 297 633 c 0
 325 633 347 611 347 583 c 0xe0
 347 566 338 551 325 542 c 1
 338 533 347 517 347 500 c 0
 347 483 338 467 325 458 c 1
 338 449 347 434 347 417 c 0
 347 399 338 384 324 375 c 1
 338 366 347 351 347 333 c 0
 347 316 338 301 325 292 c 1
 326 291 l 0
 334 297 343 300 354 300 c 0
 363 300 372 297 379 293 c 1
 386 297 395 300 404 300 c 0
 432 300 454 278 454 250 c 0xd0
EndSplineSet
EndChar

StartChar: degree
Encoding: 176 176 46
Width: 600
VWidth: 0
UnlinkRmOvrlpSave: 1
Flags: W
HStem: 533 100<219.33 271.624 272.376 324.67> 617 100<98.4375 160.718 383.282 445.562> 700 100<223.282 271.624 272.376 320.718>
VStem: 90 150<626.426 704.574> 144 256<542.117 623.574 712.426 790.883> 304 150<626.426 704.574>
LayerCount: 2
Back
Fore
SplineSet
400 583 m 1x48
 400 555 378 533 350 533 c 0
 341 533 332 536 325 540 c 1
 318 536 309 533 300 533 c 0
 290 533 280 537 272 542 c 1
 264 537 254 533 244 533 c 0
 235 533 226 536 219 540 c 1
 212 536 203 533 194 533 c 0
 166 533 144 555 144 583 c 0x88
 144 600 152 615 165 624 c 1
 158 620 149 617 140 617 c 0
 112 617 90 639 90 667 c 0
 90 695 112 717 140 717 c 0x50
 148 717 155 715 161 712 c 1
 151 721 144 735 144 750 c 1
 144 778 166 800 194 800 c 0
 203 800 212 797 219 793 c 1
 226 797 235 800 244 800 c 0
 254 800 264 796 272 791 c 1
 280 796 290 800 300 800 c 0
 309 800 318 797 325 793 c 1
 332 797 341 800 350 800 c 0
 378 800 400 778 400 750 c 0x28
 400 735 393 721 383 712 c 1
 389 715 396 717 404 717 c 0
 432 717 454 695 454 667 c 0x44
 454 639 432 617 404 617 c 0
 395 617 386 620 379 624 c 1
 392 615 400 600 400 583 c 1x48
219 626 m 1
 226 630 235 633 244 633 c 0
 254 633 264 629 272 624 c 1
 280 629 290 633 300 633 c 0
 309 633 318 630 325 626 c 1
 312 635 304 650 304 667 c 1
 304 682 311 696 321 705 c 1
 315 702 308 700 300 700 c 0
 290 700 280 704 272 709 c 1
 264 704 254 700 244 700 c 0
 236 700 229 702 223 705 c 1
 233 696 240 682 240 667 c 0xb4
 240 650 232 635 219 626 c 1
EndSplineSet
EndChar

StartChar: three
Encoding: 51 51 47
Width: 600
VWidth: 0
UnlinkRmOvrlpSave: 1
Flags: W
HStem: 200 100<224.336 271.624 272.376 324.67 325.33 378.624 379.376 425.664> 283 100<98.4375 158.664> 450 100<258.438 318.664> 613 20G<339 357.5> 700 100<98.4375 164.67 165.33 218.624 219.376 271.67 272.33 324.624 325.376 373.718 491.336 551.562>
VStem: 90 150<296.667 374.562> 250 257<463.667 541.562> 303 150<546.425 623.574> 357 150<626.426 703.575> 410 150<296.667 374.139 375.861 453.333>
LayerCount: 2
Back
Fore
SplineSet
507 250 m 1x7c80
 507 222 485 200 457 200 c 0
 448 200 439 203 432 207 c 1
 425 203 416 200 407 200 c 0
 396 200 387 203 379 209 c 1
 371 203 361 200 350 200 c 0
 341 200 332 203 325 207 c 1
 318 203 309 200 300 200 c 0
 289 200 280 203 272 209 c 1
 264 203 254 200 243 200 c 0
 234 200 225 203 218 207 c 1
 211 203 202 200 193 200 c 0xbc80
 165 200 143 222 143 250 c 0
 143 265 149 278 159 287 c 1
 153 285 147 283 140 283 c 0
 112 283 90 305 90 333 c 0
 90 361 112 383 140 383 c 0
 149 383 158 380 165 376 c 1
 172 380 181 383 190 383 c 0x7c80
 218 383 240 361 240 333 c 0
 240 318 234 305 224 296 c 1
 230 298 236 300 243 300 c 0
 254 300 264 297 272 291 c 1
 280 297 289 300 300 300 c 0
 309 300 318 297 325 293 c 1
 332 297 341 300 350 300 c 0
 361 300 371 297 379 291 c 1
 387 297 396 300 407 300 c 0
 414 300 420 298 426 296 c 1
 416 305 410 318 410 333 c 1
 410 351 419 366 433 375 c 1
 419 384 410 399 410 417 c 1xbc40
 410 432 416 445 426 454 c 1
 420 452 414 450 407 450 c 0
 396 450 387 453 379 459 c 1
 371 453 361 450 350 450 c 0
 341 450 332 453 325 457 c 1
 318 453 309 450 300 450 c 0
 272 450 250 472 250 500 c 0xbe
 250 528 272 550 300 550 c 0
 307 550 313 548 319 546 c 1
 309 555 303 568 303 583 c 1xbd
 303 611 325 633 353 633 c 0
 362 633 371 630 378 626 c 1
 365 635 357 650 357 667 c 1xbc80
 357 682 364 696 374 705 c 1
 368 702 361 700 353 700 c 0
 343 700 333 704 325 709 c 1
 317 704 307 700 297 700 c 0
 288 700 279 703 272 707 c 1
 265 703 256 700 247 700 c 0
 236 700 227 703 219 709 c 1
 211 703 201 700 190 700 c 0
 181 700 172 703 165 707 c 1
 158 703 149 700 140 700 c 0
 112 700 90 722 90 750 c 0
 90 778 112 800 140 800 c 0
 149 800 158 797 165 793 c 1
 172 797 181 800 190 800 c 0
 201 800 211 797 219 791 c 1
 227 797 236 800 247 800 c 0
 256 800 265 797 272 793 c 1
 279 797 288 800 297 800 c 0
 307 800 317 796 325 791 c 1
 333 796 343 800 353 800 c 0
 362 800 371 797 378 793 c 1
 385 797 394 800 403 800 c 0
 414 800 424 797 432 791 c 1
 440 797 449 800 460 800 c 0
 469 800 478 797 485 793 c 1
 492 797 501 800 510 800 c 0
 538 800 560 778 560 750 c 0xbc40
 560 722 538 700 510 700 c 0
 503 700 497 702 491 704 c 1
 501 695 507 682 507 667 c 1xbc80
 507 639 485 617 457 617 c 0
 448 617 439 620 432 624 c 1
 445 615 453 600 453 583 c 1xbd
 453 568 446 554 436 545 c 1
 442 548 449 550 457 550 c 0
 485 550 507 528 507 500 c 0xbe
 507 485 501 472 491 463 c 1
 497 465 503 467 510 467 c 0
 538 467 560 445 560 417 c 0
 560 399 551 384 537 375 c 1
 551 366 560 351 560 333 c 0xbc40
 560 305 538 283 510 283 c 0
 503 283 497 285 491 287 c 1
 501 278 507 265 507 250 c 1x7c80
EndSplineSet
EndChar

StartChar: seven
Encoding: 55 55 48
Width: 600
VWidth: 0
UnlinkRmOvrlpSave: 1
Flags: W
HStem: 200 100<151.438 213.718> 200 21G<238.5 257> 613 20G<393 411> 700 100<98.4375 164.67 165.33 218.624 219.376 271.67 272.33 324.624 325.376 377.67 378.33 431.624>
VStem: 143 150<208.438 287.574> 197 150<295.426 371.574> 250 150<378.426 453.333> 303 150<463.667 537.574> 357 150<545.426 621.574> 410 150<628.426 707.574>
LayerCount: 2
Back
Fore
SplineSet
293 250 m 0xb8
 293 222 271 200 243 200 c 0x78
 234 200 225 203 218 207 c 1
 211 203 202 200 193 200 c 0
 165 200 143 222 143 250 c 0xb8
 143 278 165 300 193 300 c 0
 201 300 208 298 214 295 c 1
 204 304 197 318 197 333 c 1xb4
 197 361 219 383 247 383 c 0
 255 383 262 381 269 378 c 1
 258 387 250 401 250 417 c 0xb2
 250 445 272 467 300 467 c 0
 307 467 313 465 319 463 c 1
 309 472 303 485 303 500 c 1xb1
 303 528 325 550 353 550 c 0
 361 550 368 548 374 545 c 1
 364 554 357 568 357 583 c 0xb080
 357 611 379 633 407 633 c 0
 415 633 422 631 429 628 c 1
 418 637 410 651 410 667 c 1
 410 684 419 699 432 708 c 1
 432 709 l 0
 424 703 414 700 403 700 c 0
 394 700 385 703 378 707 c 1
 371 703 362 700 353 700 c 0
 343 700 333 704 325 709 c 1
 317 704 307 700 297 700 c 0
 288 700 279 703 272 707 c 1
 265 703 256 700 247 700 c 0
 236 700 227 703 219 709 c 1
 211 703 201 700 190 700 c 0
 181 700 172 703 165 707 c 1
 158 703 149 700 140 700 c 0
 112 700 90 722 90 750 c 0
 90 778 112 800 140 800 c 0
 149 800 158 797 165 793 c 1
 172 797 181 800 190 800 c 0
 201 800 211 797 219 791 c 1
 227 797 236 800 247 800 c 0
 256 800 265 797 272 793 c 1
 279 797 288 800 297 800 c 0
 307 800 317 796 325 791 c 1
 333 796 343 800 353 800 c 0
 362 800 371 797 378 793 c 1
 385 797 394 800 403 800 c 0
 414 800 424 797 432 791 c 1
 440 797 449 800 460 800 c 0
 469 800 478 797 485 793 c 1
 492 797 501 800 510 800 c 0
 538 800 560 778 560 750 c 0
 560 733 551 717 538 708 c 1
 551 699 560 684 560 667 c 0xb040
 560 639 538 617 510 617 c 0
 502 617 495 619 488 622 c 1
 499 613 507 599 507 583 c 1xb080
 507 555 485 533 457 533 c 0
 449 533 442 535 436 538 c 1
 446 529 453 515 453 500 c 0xb1
 453 472 431 450 403 450 c 0
 396 450 390 452 384 454 c 1
 394 445 400 432 400 417 c 1xb2
 400 389 378 367 350 367 c 0
 342 367 335 369 328 372 c 1
 339 363 347 349 347 333 c 1xb4
 347 305 325 283 297 283 c 0
 289 283 282 285 276 288 c 1
 286 279 293 265 293 250 c 0xb8
EndSplineSet
EndChar

StartChar: semicolon
Encoding: 59 59 49
Width: 600
VWidth: 0
UnlinkRmOvrlpSave: 1
Flags: W
HStem: 200 100<98.4375 158.664> 200 21G<185.5 204> 367 183<112.88 161.672 274.328 323.12> 617 183<165.33 217.624 218.376 270.67> 617 100<98.4375 158.664 277.336 337.562>
VStem: 90 256<375.438 457.574 459.311 540.883 626.117 708.562> 90 150<208.438 286.333> 143 150<296.667 371.574 713.425 791.562>
LayerCount: 2
Back
Fore
SplineSet
240 250 m 1xa2
 240 222 218 200 190 200 c 0x62
 181 200 172 203 165 207 c 1
 158 203 149 200 140 200 c 0
 112 200 90 222 90 250 c 0xa2
 90 278 112 300 140 300 c 0
 147 300 153 298 159 296 c 1
 149 305 143 318 143 333 c 0xa1
 143 349 151 363 162 372 c 1
 155 369 148 367 140 367 c 0
 112 367 90 389 90 417 c 0
 90 434 99 449 112 458 c 1
 99 467 90 483 90 500 c 1
 90 528 112 550 140 550 c 0
 149 550 158 547 165 543 c 1
 172 547 181 550 190 550 c 0
 200 550 210 546 218 541 c 1
 226 546 236 550 246 550 c 0
 255 550 264 547 271 543 c 1
 278 547 287 550 296 550 c 0
 324 550 346 528 346 500 c 0
 346 483 337 467 324 458 c 1
 337 449 346 434 346 417 c 0xa4
 346 389 324 367 296 367 c 0
 288 367 281 369 274 372 c 1
 285 363 293 349 293 333 c 1xa1
 293 305 271 283 243 283 c 0
 236 283 230 285 224 287 c 1
 234 278 240 265 240 250 c 1xa2
346 667 m 0x2c
 346 639 324 617 296 617 c 0x2c
 287 617 278 620 271 624 c 1
 264 620 255 617 246 617 c 0
 236 617 226 621 218 626 c 1
 210 621 200 617 190 617 c 0x34
 181 617 172 620 165 624 c 1
 158 620 149 617 140 617 c 0
 112 617 90 639 90 667 c 0
 90 695 112 717 140 717 c 0x2c
 147 717 153 715 159 713 c 1
 149 722 143 735 143 750 c 0
 143 778 165 800 193 800 c 0
 202 800 211 797 218 793 c 1
 225 797 234 800 243 800 c 0
 271 800 293 778 293 750 c 0x31
 293 735 287 722 277 713 c 1
 283 715 289 717 296 717 c 0
 324 717 346 695 346 667 c 0x2c
218 458 m 1
 218 459 l 0
 218 458 l 1
EndSplineSet
EndChar

StartChar: question
Encoding: 63 63 50
Width: 600
VWidth: 0
UnlinkRmOvrlpSave: 1
Flags: W
HStem: 200 100<258.438 324.67 325.33 391.562> 533 100<378.376 428.672> 617 100<98.4375 158.664 491.285 551.562> 700 100<224.336 271.624 272.376 324.67 325.33 377.624 378.376 425.664>
VStem: 90 150<625.438 703.333> 250 257<542.426 621.574> 250 150<208.438 291.562 375.438 457.574 458.427 541.573> 410 150<628.426 703.333>
LayerCount: 2
Back
Fore
SplineSet
400 250 m 0x8a
 400 222 378 200 350 200 c 0
 341 200 332 203 325 207 c 1
 318 203 309 200 300 200 c 0
 272 200 250 222 250 250 c 0
 250 278 272 300 300 300 c 0
 309 300 318 297 325 293 c 1
 332 297 341 300 350 300 c 0
 378 300 400 278 400 250 c 0x8a
400 417 m 0
 400 389 378 367 350 367 c 0
 341 367 332 370 325 374 c 1
 318 370 309 367 300 367 c 0
 272 367 250 389 250 417 c 0
 250 434 259 449 272 458 c 1
 259 467 250 483 250 500 c 1xca
 250 517 259 533 272 542 c 1
 259 551 250 566 250 583 c 0xcc
 250 611 272 633 300 633 c 0
 309 633 318 630 325 626 c 1
 332 630 341 633 350 633 c 0
 361 633 370 630 378 624 c 1
 386 630 396 633 407 633 c 0
 415 633 422 631 429 628 c 1
 418 637 410 651 410 667 c 1
 410 682 416 695 426 704 c 1
 420 702 414 700 407 700 c 0
 396 700 386 703 378 709 c 1
 370 703 361 700 350 700 c 0
 341 700 332 703 325 707 c 1
 318 703 309 700 300 700 c 0
 289 700 280 703 272 709 c 1
 264 703 254 700 243 700 c 0xd9
 236 700 230 702 224 704 c 1
 234 695 240 682 240 667 c 1
 240 639 218 617 190 617 c 0
 181 617 172 620 165 624 c 1
 158 620 149 617 140 617 c 0
 112 617 90 639 90 667 c 0
 90 695 112 717 140 717 c 0xa9
 147 717 153 715 159 713 c 1
 149 722 143 735 143 750 c 0
 143 778 165 800 193 800 c 0
 202 800 211 797 218 793 c 1
 225 797 234 800 243 800 c 0
 254 800 264 797 272 791 c 1
 280 797 289 800 300 800 c 0
 309 800 318 797 325 793 c 1
 332 797 341 800 350 800 c 0
 361 800 370 797 378 791 c 1
 386 797 396 800 407 800 c 0
 416 800 425 797 432 793 c 1
 439 797 448 800 457 800 c 0
 485 800 507 778 507 750 c 0x9c
 507 735 501 722 491 713 c 1
 497 715 503 717 510 717 c 0
 538 717 560 695 560 667 c 0
 560 639 538 617 510 617 c 0xa9
 502 617 495 619 488 622 c 1
 499 613 507 599 507 583 c 1
 507 555 485 533 457 533 c 0
 448 533 439 536 432 540 c 1
 425 536 416 533 407 533 c 0xcc
 396 533 386 536 378 542 c 0
 391 533 400 517 400 500 c 0
 400 483 391 467 378 458 c 1
 391 449 400 434 400 417 c 0
EndSplineSet
EndChar

StartChar: Agrave
Encoding: 192 192 51
Width: 600
VWidth: 0
UnlinkRmOvrlpSave: 1
Flags: W
HStem: 200 183<112.88 161.672 488.328 537.12> 283 100<272.33 324.624 325.376 377.67> 613 20G<286 304> 617 100<384.285 444.562> 700 100<258.438 318.664>
VStem: 90 150<208.438 291.573> 143 150<378.426 454.574> 197 256<462.426 541.562> 250 150<546.425 621.574 713.667 791.562> 303 150<628.426 703.333> 357 150<378.426 454.574> 410 150<208.438 291.573>
LayerCount: 2
Back
Fore
SplineSet
560 250 m 0x9010
 560 222 538 200 510 200 c 0
 501 200 492 203 485 207 c 1
 478 203 469 200 460 200 c 0x9010
 432 200 410 222 410 250 c 0
 410 267 419 283 432 292 c 1
 424 286 414 283 403 283 c 0
 394 283 385 286 378 290 c 1
 371 286 362 283 353 283 c 0
 343 283 333 287 325 292 c 1
 317 287 307 283 297 283 c 0
 288 283 279 286 272 290 c 1
 265 286 256 283 247 283 c 0x4010
 236 283 227 286 219 292 c 0
 218 292 l 1
 231 283 240 267 240 250 c 0
 240 222 218 200 190 200 c 0
 181 200 172 203 165 207 c 1
 158 203 149 200 140 200 c 0
 112 200 90 222 90 250 c 0
 90 267 99 283 112 292 c 1
 99 301 90 316 90 333 c 1x8410
 90 361 112 383 140 383 c 0
 148 383 155 381 162 378 c 1
 151 387 143 401 143 417 c 0x82
 143 445 165 467 193 467 c 0
 201 467 208 465 214 462 c 1
 204 471 197 485 197 500 c 1x81
 197 528 219 550 247 550 c 0
 254 550 260 548 266 546 c 1
 256 555 250 568 250 583 c 0x8080
 250 611 272 633 300 633 c 0
 308 633 315 631 322 628 c 1
 311 637 303 651 303 667 c 1xa040
 303 682 309 695 319 704 c 1
 313 702 307 700 300 700 c 0
 272 700 250 722 250 750 c 0
 250 778 272 800 300 800 c 0
 309 800 318 797 325 793 c 1
 332 797 341 800 350 800 c 0
 378 800 400 778 400 750 c 0xa880
 400 735 394 722 384 713 c 1
 390 715 396 717 403 717 c 0
 431 717 453 695 453 667 c 0x1040
 453 639 431 617 403 617 c 0
 395 617 388 619 381 622 c 1
 392 613 400 599 400 583 c 1x1080
 400 568 394 555 384 546 c 1
 390 548 396 550 403 550 c 0
 431 550 453 528 453 500 c 0x11
 453 485 446 471 436 462 c 1
 442 465 449 467 457 467 c 0
 485 467 507 445 507 417 c 0x1020
 507 401 499 387 488 378 c 1
 495 381 502 383 510 383 c 0
 538 383 560 361 560 333 c 0
 560 316 551 301 538 292 c 1
 551 283 560 267 560 250 c 0x9010
272 376 m 1
 279 380 288 383 297 383 c 0
 307 383 317 379 325 374 c 1
 333 379 343 383 353 383 c 0
 362 383 371 380 378 376 c 1
 365 385 357 400 357 417 c 1
 357 432 364 446 374 455 c 1
 368 452 361 450 353 450 c 0
 343 450 333 454 325 459 c 1
 317 454 307 450 297 450 c 0
 289 450 282 452 276 455 c 1
 286 446 293 432 293 417 c 0x4220
 293 400 285 385 272 376 c 1
EndSplineSet
EndChar

StartChar: C
Encoding: 67 67 52
Width: 600
VWidth: 0
UnlinkRmOvrlpSave: 1
Flags: W
HStem: 200 100<224.336 271.624 272.376 324.67 325.33 378.624 379.376 425.664> 283 100<491.336 551.562> 617 100<491.336 551.562> 700 100<224.336 271.624 272.376 324.67 325.33 377.624 378.376 425.664>
VStem: 90 150<296.667 374.139 375.861 457.574 458.427 541.573 542.426 624.139 625.861 703.333> 410 150<296.667 374.562 625.438 703.333>
LayerCount: 2
Back
Fore
SplineSet
507 250 m 1x4c
 507 222 485 200 457 200 c 0
 448 200 439 203 432 207 c 1
 425 203 416 200 407 200 c 0
 396 200 387 203 379 209 c 1
 371 203 361 200 350 200 c 0
 341 200 332 203 325 207 c 1
 318 203 309 200 300 200 c 0
 289 200 280 203 272 209 c 1
 264 203 254 200 243 200 c 0
 234 200 225 203 218 207 c 1
 211 203 202 200 193 200 c 0x8c
 165 200 143 222 143 250 c 0
 143 265 149 278 159 287 c 1
 153 285 147 283 140 283 c 0
 112 283 90 305 90 333 c 0
 90 351 99 366 113 375 c 1
 99 384 90 399 90 417 c 0
 90 434 99 449 112 458 c 1
 99 467 90 483 90 500 c 1
 90 517 99 533 112 542 c 1
 99 551 90 566 90 583 c 0
 90 601 99 616 113 625 c 1
 99 634 90 649 90 667 c 0
 90 695 112 717 140 717 c 0x6c
 147 717 153 715 159 713 c 1
 149 722 143 735 143 750 c 0
 143 778 165 800 193 800 c 0
 202 800 211 797 218 793 c 1
 225 797 234 800 243 800 c 0
 254 800 264 797 272 791 c 1
 280 797 289 800 300 800 c 0
 309 800 318 797 325 793 c 1
 332 797 341 800 350 800 c 0
 361 800 370 797 378 791 c 1
 386 797 396 800 407 800 c 0
 416 800 425 797 432 793 c 1
 439 797 448 800 457 800 c 0x1c
 485 800 507 778 507 750 c 0
 507 735 501 722 491 713 c 1
 497 715 503 717 510 717 c 0
 538 717 560 695 560 667 c 0
 560 639 538 617 510 617 c 0
 501 617 492 620 485 624 c 1
 478 620 469 617 460 617 c 0x2c
 432 617 410 639 410 667 c 0
 410 682 416 695 426 704 c 1
 420 702 414 700 407 700 c 0
 396 700 386 703 378 709 c 1
 370 703 361 700 350 700 c 0
 341 700 332 703 325 707 c 1
 318 703 309 700 300 700 c 0
 289 700 280 703 272 709 c 1
 264 703 254 700 243 700 c 0
 236 700 230 702 224 704 c 1
 234 695 240 682 240 667 c 1
 240 649 231 634 217 625 c 1
 231 616 240 601 240 583 c 1
 240 566 231 551 218 542 c 1
 231 533 240 517 240 500 c 0
 240 483 231 467 218 458 c 1
 231 449 240 434 240 417 c 0
 240 399 231 384 217 375 c 1
 231 366 240 351 240 333 c 1
 240 318 234 305 224 296 c 1
 230 298 236 300 243 300 c 0
 254 300 264 297 272 291 c 1
 280 297 289 300 300 300 c 0
 309 300 318 297 325 293 c 1
 332 297 341 300 350 300 c 0
 361 300 371 297 379 291 c 1
 387 297 396 300 407 300 c 0x9c
 414 300 420 298 426 296 c 1
 416 305 410 318 410 333 c 1
 410 361 432 383 460 383 c 0
 469 383 478 380 485 376 c 1
 492 380 501 383 510 383 c 0
 538 383 560 361 560 333 c 0
 560 305 538 283 510 283 c 0
 503 283 497 285 491 287 c 1
 501 278 507 265 507 250 c 1x4c
EndSplineSet
EndChar

StartChar: Adieresis
Encoding: 196 196 53
Width: 600
VWidth: 0
UnlinkRmOvrlpSave: 1
Flags: W
HStem: 200 21G<126 144.5 185.5 204 446 464.5 505.5 524> 200 21G<126 144.5 185.5 204 446 464.5 505.5 524> 367 100<276.282 324.624 325.376 373.718> 613 20G<233 251 399 417> 700 100<151.438 217.67 218.33 284.562 365.438 431.67 432.33 498.562>
VStem: 90 150<208.438 291.573 292.426 374.139> 143 150<463.425 537.574 708.438 791.562> 250 150<628.426 708.562> 357 150<463.425 537.574 708.438 791.562> 410 150<208.438 291.573 292.426 374.139>
LayerCount: 2
Back
Fore
SplineSet
560 250 m 0xb840
 560 222 538 200 510 200 c 0
 501 200 492 203 485 207 c 1
 478 203 469 200 460 200 c 0
 432 200 410 222 410 250 c 0
 410 267 419 283 432 292 c 1
 419 301 410 316 410 333 c 0
 410 351 419 366 433 375 c 1
 432 376 l 0
 424 370 414 367 403 367 c 0
 394 367 385 370 378 374 c 1
 371 370 362 367 353 367 c 0
 343 367 333 371 325 376 c 1
 317 371 307 367 297 367 c 0
 288 367 279 370 272 374 c 1
 265 370 256 367 247 367 c 0
 236 367 227 370 219 376 c 0
 217 375 l 1
 231 366 240 351 240 333 c 1
 240 316 231 301 218 292 c 1
 231 283 240 267 240 250 c 0
 240 222 218 200 190 200 c 0
 181 200 172 203 165 207 c 1
 158 203 149 200 140 200 c 0
 112 200 90 222 90 250 c 0
 90 267 99 283 112 292 c 1
 99 301 90 316 90 333 c 1
 90 351 99 366 113 375 c 1
 99 384 90 399 90 417 c 0xbc40
 90 445 112 467 140 467 c 0
 147 467 153 465 159 463 c 1
 149 472 143 485 143 500 c 0xba
 143 528 165 550 193 550 c 0
 201 550 208 548 214 545 c 1
 204 554 197 568 197 583 c 1
 197 611 219 633 247 633 c 0
 255 633 262 631 269 628 c 1
 258 637 250 651 250 667 c 1
 250 695 272 717 300 717 c 0
 309 717 318 714 325 710 c 1
 332 714 341 717 350 717 c 0
 378 717 400 695 400 667 c 0xb9
 400 651 392 637 381 628 c 1
 388 631 395 633 403 633 c 0
 431 633 453 611 453 583 c 0
 453 568 446 554 436 545 c 1
 442 548 449 550 457 550 c 0
 485 550 507 528 507 500 c 0xb880
 507 485 501 472 491 463 c 1
 497 465 503 467 510 467 c 0
 538 467 560 445 560 417 c 0
 560 399 551 384 537 375 c 1
 551 366 560 351 560 333 c 0
 560 316 551 301 538 292 c 1
 551 283 560 267 560 250 c 0xb840
507 750 m 0x3880
 507 722 485 700 457 700 c 0
 448 700 439 703 432 707 c 1
 425 703 416 700 407 700 c 0
 379 700 357 722 357 750 c 0
 357 778 379 800 407 800 c 0
 416 800 425 797 432 793 c 1
 439 797 448 800 457 800 c 0
 485 800 507 778 507 750 c 0x3880
293 750 m 0x3a
 293 722 271 700 243 700 c 0
 234 700 225 703 218 707 c 1
 211 703 202 700 193 700 c 0
 165 700 143 722 143 750 c 0
 143 778 165 800 193 800 c 0
 202 800 211 797 218 793 c 1
 225 797 234 800 243 800 c 0
 271 800 293 778 293 750 c 0x3a
276 462 m 1
 282 465 289 467 297 467 c 0
 307 467 317 463 325 458 c 1
 333 463 343 467 353 467 c 0
 361 467 368 465 374 462 c 1
 364 471 357 485 357 500 c 0x3a80
 357 515 364 529 374 538 c 1
 368 535 361 533 353 533 c 0
 343 533 333 537 325 542 c 1
 317 537 307 533 297 533 c 0
 289 533 282 535 276 538 c 1
 286 529 293 515 293 500 c 0
 293 485 286 471 276 462 c 1
EndSplineSet
EndChar

StartChar: G
Encoding: 71 71 54
Width: 600
VWidth: 0
UnlinkRmOvrlpSave: 1
Flags: W
HStem: 200 100<224.336 271.624 272.376 324.67 325.33 378.624 379.376 425.664> 450 100<311.438 377.67 378.33 431.624> 617 100<491.336 551.562> 700 100<224.336 271.624 272.376 324.67 325.33 377.624 378.376 425.664>
VStem: 90 150<296.667 374.139 375.861 457.574 458.427 541.573 542.426 624.139 625.861 703.333> 410 150<296.667 374.139 375.861 457.574 625.438 703.333>
LayerCount: 2
Back
Fore
SplineSet
507 250 m 1xdc
 507 222 485 200 457 200 c 0
 448 200 439 203 432 207 c 1
 425 203 416 200 407 200 c 0
 396 200 387 203 379 209 c 1
 371 203 361 200 350 200 c 0
 341 200 332 203 325 207 c 1
 318 203 309 200 300 200 c 0
 289 200 280 203 272 209 c 1
 264 203 254 200 243 200 c 0
 234 200 225 203 218 207 c 1
 211 203 202 200 193 200 c 0
 165 200 143 222 143 250 c 0
 143 265 149 278 159 287 c 1
 153 285 147 283 140 283 c 0
 112 283 90 305 90 333 c 0
 90 351 99 366 113 375 c 1
 99 384 90 399 90 417 c 0
 90 434 99 449 112 458 c 1
 99 467 90 483 90 500 c 1
 90 517 99 533 112 542 c 1
 99 551 90 566 90 583 c 0
 90 601 99 616 113 625 c 1
 99 634 90 649 90 667 c 0
 90 695 112 717 140 717 c 0xec
 147 717 153 715 159 713 c 1
 149 722 143 735 143 750 c 0
 143 778 165 800 193 800 c 0
 202 800 211 797 218 793 c 1
 225 797 234 800 243 800 c 0
 254 800 264 797 272 791 c 1
 280 797 289 800 300 800 c 0
 309 800 318 797 325 793 c 1
 332 797 341 800 350 800 c 0
 361 800 370 797 378 791 c 1
 386 797 396 800 407 800 c 0
 416 800 425 797 432 793 c 1
 439 797 448 800 457 800 c 0xdc
 485 800 507 778 507 750 c 0
 507 735 501 722 491 713 c 1
 497 715 503 717 510 717 c 0
 538 717 560 695 560 667 c 0
 560 639 538 617 510 617 c 0
 501 617 492 620 485 624 c 1
 478 620 469 617 460 617 c 0xec
 432 617 410 639 410 667 c 0
 410 682 416 695 426 704 c 1
 420 702 414 700 407 700 c 0
 396 700 386 703 378 709 c 1
 370 703 361 700 350 700 c 0
 341 700 332 703 325 707 c 1
 318 703 309 700 300 700 c 0
 289 700 280 703 272 709 c 1
 264 703 254 700 243 700 c 0
 236 700 230 702 224 704 c 1
 234 695 240 682 240 667 c 1
 240 649 231 634 217 625 c 1
 231 616 240 601 240 583 c 1
 240 566 231 551 218 542 c 1
 231 533 240 517 240 500 c 0
 240 483 231 467 218 458 c 1
 231 449 240 434 240 417 c 0
 240 399 231 384 217 375 c 1
 231 366 240 351 240 333 c 1
 240 318 234 305 224 296 c 1
 230 298 236 300 243 300 c 0
 254 300 264 297 272 291 c 1
 280 297 289 300 300 300 c 0
 309 300 318 297 325 293 c 1
 332 297 341 300 350 300 c 0
 361 300 371 297 379 291 c 1
 387 297 396 300 407 300 c 0
 414 300 420 298 426 296 c 1
 416 305 410 318 410 333 c 1
 410 351 419 366 433 375 c 1
 419 384 410 399 410 417 c 1
 410 434 419 449 432 458 c 1
 432 459 l 0
 424 453 414 450 403 450 c 0
 394 450 385 453 378 457 c 1
 371 453 362 450 353 450 c 0
 325 450 303 472 303 500 c 0
 303 528 325 550 353 550 c 0
 362 550 371 547 378 543 c 1
 385 547 394 550 403 550 c 0
 414 550 424 547 432 541 c 1
 440 547 449 550 460 550 c 0
 469 550 478 547 485 543 c 1
 492 547 501 550 510 550 c 0
 538 550 560 528 560 500 c 0
 560 483 551 467 538 458 c 1
 551 449 560 434 560 417 c 0
 560 399 551 384 537 375 c 1
 551 366 560 351 560 333 c 0
 560 305 538 283 510 283 c 0
 503 283 497 285 491 287 c 1
 501 278 507 265 507 250 c 1xdc
EndSplineSet
EndChar

StartChar: Egrave
Encoding: 200 200 55
Width: 600
VWidth: 0
UnlinkRmOvrlpSave: 1
Flags: W
HStem: 200 100<219.376 271.67 272.33 324.624 325.376 377.67 378.33 431.624 432.376 484.67 485.33 551.562> 367 100<219.376 271.67 272.33 324.624 325.376 377.67 378.33 444.562> 533 100<219.376 271.67 272.33 324.624 432.376 484.67 485.33 551.562> 700 100<258.438 318.664>
VStem: 90 150<292.426 374.139 458.427 541.573> 250 150<713.667 791.562> 303 150<625.861 703.333>
LayerCount: 2
Back
Fore
SplineSet
560 250 m 0xfa
 560 222 538 200 510 200 c 0
 501 200 492 203 485 207 c 1
 478 203 469 200 460 200 c 0
 449 200 440 203 432 209 c 1
 424 203 414 200 403 200 c 0
 394 200 385 203 378 207 c 1
 371 203 362 200 353 200 c 0
 343 200 333 204 325 209 c 1
 317 204 307 200 297 200 c 0
 288 200 279 203 272 207 c 1
 265 203 256 200 247 200 c 0
 236 200 227 203 219 209 c 1
 211 203 201 200 190 200 c 0
 181 200 172 203 165 207 c 1
 158 203 149 200 140 200 c 0
 112 200 90 222 90 250 c 0
 90 267 99 283 112 292 c 1
 99 301 90 316 90 333 c 1
 90 351 99 366 113 375 c 1
 99 384 90 399 90 417 c 0
 90 434 99 449 112 458 c 1
 99 467 90 483 90 500 c 1
 90 517 99 533 112 542 c 1
 99 551 90 566 90 583 c 0
 90 611 112 633 140 633 c 0
 149 633 158 630 165 626 c 1
 172 630 181 633 190 633 c 0
 201 633 211 630 219 624 c 1
 227 630 236 633 247 633 c 0
 256 633 265 630 272 626 c 1
 279 630 288 633 297 633 c 0
 307 633 317 629 325 624 c 0
 326 625 l 1
 312 634 303 649 303 667 c 0xfa
 303 682 309 695 319 704 c 1
 313 702 307 700 300 700 c 0
 272 700 250 722 250 750 c 0
 250 778 272 800 300 800 c 0
 309 800 318 797 325 793 c 1
 332 797 341 800 350 800 c 0
 378 800 400 778 400 750 c 0xfc
 400 735 394 722 384 713 c 1
 390 715 396 717 403 717 c 0
 431 717 453 695 453 667 c 0
 453 649 444 634 430 625 c 1
 432 624 l 0
 440 630 449 633 460 633 c 0
 469 633 478 630 485 626 c 1
 492 630 501 633 510 633 c 0
 538 633 560 611 560 583 c 0
 560 555 538 533 510 533 c 0
 501 533 492 536 485 540 c 1
 478 536 469 533 460 533 c 0
 449 533 440 536 432 542 c 1
 424 536 414 533 403 533 c 0
 394 533 385 536 378 540 c 1
 371 536 362 533 353 533 c 0
 343 533 333 537 325 542 c 1
 317 537 307 533 297 533 c 0
 288 533 279 536 272 540 c 1
 265 536 256 533 247 533 c 0
 236 533 227 536 219 542 c 0
 218 542 l 1
 231 533 240 517 240 500 c 0
 240 483 231 467 218 458 c 1
 219 458 l 0
 227 464 236 467 247 467 c 0
 256 467 265 464 272 460 c 1
 279 464 288 467 297 467 c 0
 307 467 317 463 325 458 c 1
 333 463 343 467 353 467 c 0
 362 467 371 464 378 460 c 1
 385 464 394 467 403 467 c 0
 431 467 453 445 453 417 c 0
 453 389 431 367 403 367 c 0
 394 367 385 370 378 374 c 1
 371 370 362 367 353 367 c 0
 343 367 333 371 325 376 c 1
 317 371 307 367 297 367 c 0
 288 367 279 370 272 374 c 1
 265 370 256 367 247 367 c 0
 236 367 227 370 219 376 c 0
 217 375 l 1
 231 366 240 351 240 333 c 1
 240 316 231 301 218 292 c 1
 219 291 l 0
 227 297 236 300 247 300 c 0
 256 300 265 297 272 293 c 1
 279 297 288 300 297 300 c 0
 307 300 317 296 325 291 c 1
 333 296 343 300 353 300 c 0
 362 300 371 297 378 293 c 1
 385 297 394 300 403 300 c 0
 414 300 424 297 432 291 c 1
 440 297 449 300 460 300 c 0
 469 300 478 297 485 293 c 1
 492 297 501 300 510 300 c 0
 538 300 560 278 560 250 c 0xfa
EndSplineSet
EndChar

StartChar: K
Encoding: 75 75 56
Width: 600
VWidth: 0
UnlinkRmOvrlpSave: 1
Flags: W
HStem: 200 100<491.336 551.562> 533 100<219.376 265.664> 617 100<311.438 377.67 378.33 444.562> 700 100<418.438 484.67 485.33 551.562>
VStem: 90 150<208.438 291.573 292.426 374.139 375.861 457.574 458.427 541.573 625.861 707.574 708.427 791.562> 250 150<463.667 536.333> 303 150<376.426 453.333 625.438 708.562> 357 150<296.667 373.574> 410 150<208.438 286.333 708.438 791.562>
LayerCount: 2
Back
Fore
SplineSet
560 250 m 0xd880
 560 222 538 200 510 200 c 0
 501 200 492 203 485 207 c 1
 478 203 469 200 460 200 c 0
 432 200 410 222 410 250 c 0xd880
 410 265 416 278 426 287 c 1
 420 285 414 283 407 283 c 0
 379 283 357 305 357 333 c 0xd9
 357 350 365 365 378 374 c 1
 371 370 362 367 353 367 c 0
 325 367 303 389 303 417 c 0xda
 303 432 309 445 319 454 c 1
 313 452 307 450 300 450 c 0
 272 450 250 472 250 500 c 0
 250 515 256 528 266 537 c 1
 260 535 254 533 247 533 c 0
 236 533 227 536 219 542 c 0
 218 542 l 1
 231 533 240 517 240 500 c 0
 240 483 231 467 218 458 c 1
 231 449 240 434 240 417 c 0
 240 399 231 384 217 375 c 1
 231 366 240 351 240 333 c 1
 240 316 231 301 218 292 c 1
 231 283 240 267 240 250 c 0
 240 222 218 200 190 200 c 0
 181 200 172 203 165 207 c 1
 158 203 149 200 140 200 c 0
 112 200 90 222 90 250 c 0
 90 267 99 283 112 292 c 1
 99 301 90 316 90 333 c 1
 90 351 99 366 113 375 c 1
 99 384 90 399 90 417 c 0
 90 434 99 449 112 458 c 1
 99 467 90 483 90 500 c 1
 90 517 99 533 112 542 c 1
 99 551 90 566 90 583 c 0
 90 601 99 616 113 625 c 1
 99 634 90 649 90 667 c 0
 90 684 99 699 112 708 c 1
 99 717 90 733 90 750 c 0
 90 778 112 800 140 800 c 0
 149 800 158 797 165 793 c 1
 172 797 181 800 190 800 c 0
 218 800 240 778 240 750 c 0
 240 733 231 717 218 708 c 1
 231 699 240 684 240 667 c 0
 240 649 231 634 217 625 c 1
 219 624 l 0
 227 630 236 633 247 633 c 0
 256 633 265 630 272 626 c 1
 279 630 288 633 297 633 c 0
 325 633 347 611 347 583 c 0
 347 568 341 555 331 546 c 1
 337 548 343 550 350 550 c 0
 378 550 400 528 400 500 c 0xdc
 400 485 394 472 384 463 c 1
 390 465 396 467 403 467 c 0
 431 467 453 445 453 417 c 0xda
 453 400 445 385 432 376 c 1
 439 380 448 383 457 383 c 0
 485 383 507 361 507 333 c 0xd9
 507 318 501 305 491 296 c 1
 497 298 503 300 510 300 c 0
 538 300 560 278 560 250 c 0xd880
453 667 m 0xaa
 453 639 431 617 403 617 c 0
 394 617 385 620 378 624 c 1
 371 620 362 617 353 617 c 0
 325 617 303 639 303 667 c 0
 303 695 325 717 353 717 c 0
 362 717 371 714 378 710 c 1
 385 714 394 717 403 717 c 0
 431 717 453 695 453 667 c 0xaa
560 750 m 0x9880
 560 722 538 700 510 700 c 0
 501 700 492 703 485 707 c 1
 478 703 469 700 460 700 c 0
 432 700 410 722 410 750 c 0
 410 778 432 800 460 800 c 0
 469 800 478 797 485 793 c 1
 492 797 501 800 510 800 c 0
 538 800 560 778 560 750 c 0x9880
EndSplineSet
EndChar

StartChar: O
Encoding: 79 79 57
Width: 600
VWidth: 0
UnlinkRmOvrlpSave: 1
Flags: W
HStem: 200 100<224.336 271.624 272.376 324.67 325.33 378.624 379.376 425.664> 700 100<224.336 271.624 272.376 324.67 325.33 377.624 378.376 425.664>
VStem: 90 150<296.667 374.139 375.861 457.574 458.427 541.573 542.426 624.139 625.861 703.333> 410 150<296.667 374.139 375.861 457.574 458.427 541.573 542.426 624.139 625.861 703.333>
LayerCount: 2
Back
Fore
SplineSet
507 250 m 1
 507 222 485 200 457 200 c 0
 448 200 439 203 432 207 c 1
 425 203 416 200 407 200 c 0
 396 200 387 203 379 209 c 1
 371 203 361 200 350 200 c 0
 341 200 332 203 325 207 c 1
 318 203 309 200 300 200 c 0
 289 200 280 203 272 209 c 1
 264 203 254 200 243 200 c 0
 234 200 225 203 218 207 c 1
 211 203 202 200 193 200 c 0
 165 200 143 222 143 250 c 0
 143 265 149 278 159 287 c 1
 153 285 147 283 140 283 c 0
 112 283 90 305 90 333 c 0
 90 351 99 366 113 375 c 1
 99 384 90 399 90 417 c 0
 90 434 99 449 112 458 c 1
 99 467 90 483 90 500 c 1
 90 517 99 533 112 542 c 1
 99 551 90 566 90 583 c 0
 90 601 99 616 113 625 c 1
 99 634 90 649 90 667 c 0
 90 695 112 717 140 717 c 0
 147 717 153 715 159 713 c 1
 149 722 143 735 143 750 c 0
 143 778 165 800 193 800 c 0
 202 800 211 797 218 793 c 1
 225 797 234 800 243 800 c 0
 254 800 264 797 272 791 c 1
 280 797 289 800 300 800 c 0
 309 800 318 797 325 793 c 1
 332 797 341 800 350 800 c 0
 361 800 370 797 378 791 c 1
 386 797 396 800 407 800 c 0
 416 800 425 797 432 793 c 1
 439 797 448 800 457 800 c 0
 485 800 507 778 507 750 c 0
 507 735 501 722 491 713 c 1
 497 715 503 717 510 717 c 0
 538 717 560 695 560 667 c 0
 560 649 551 634 537 625 c 1
 551 616 560 601 560 583 c 0
 560 566 551 551 538 542 c 1
 551 533 560 517 560 500 c 0
 560 483 551 467 538 458 c 1
 551 449 560 434 560 417 c 0
 560 399 551 384 537 375 c 1
 551 366 560 351 560 333 c 0
 560 305 538 283 510 283 c 0
 503 283 497 285 491 287 c 1
 501 278 507 265 507 250 c 1
224 296 m 1
 230 298 236 300 243 300 c 0
 254 300 264 297 272 291 c 1
 280 297 289 300 300 300 c 0
 309 300 318 297 325 293 c 1
 332 297 341 300 350 300 c 0
 361 300 371 297 379 291 c 1
 387 297 396 300 407 300 c 0
 414 300 420 298 426 296 c 1
 416 305 410 318 410 333 c 1
 410 351 419 366 433 375 c 1
 419 384 410 399 410 417 c 1
 410 434 419 449 432 458 c 1
 419 467 410 483 410 500 c 0
 410 517 419 533 432 542 c 1
 419 551 410 566 410 583 c 0
 410 601 419 616 433 625 c 1
 419 634 410 649 410 667 c 0
 410 682 416 695 426 704 c 1
 420 702 414 700 407 700 c 0
 396 700 386 703 378 709 c 1
 370 703 361 700 350 700 c 0
 341 700 332 703 325 707 c 1
 318 703 309 700 300 700 c 0
 289 700 280 703 272 709 c 1
 264 703 254 700 243 700 c 0
 236 700 230 702 224 704 c 1
 234 695 240 682 240 667 c 1
 240 649 231 634 217 625 c 1
 231 616 240 601 240 583 c 1
 240 566 231 551 218 542 c 1
 231 533 240 517 240 500 c 0
 240 483 231 467 218 458 c 1
 231 449 240 434 240 417 c 0
 240 399 231 384 217 375 c 1
 231 366 240 351 240 333 c 1
 240 318 234 305 224 296 c 1
EndSplineSet
EndChar

StartChar: S
Encoding: 83 83 58
Width: 600
VWidth: 0
UnlinkRmOvrlpSave: 1
Flags: W
HStem: 200 100<224.336 271.624 272.376 324.67 325.33 378.624 379.376 425.664> 283 100<98.4375 158.664> 450 100<224.336 271.624 272.376 324.67 325.33 377.624 378.376 378.624 379.376 425.664> 617 100<491.336 551.562> 700 100<224.336 271.624 272.376 324.67 325.33 377.624 378.376 425.664>
VStem: 90 150<296.667 374.562 546.667 624.139 625.861 703.333> 410 150<296.667 374.139 375.861 453.333 625.438 703.333>
LayerCount: 2
Back
Fore
SplineSet
507 250 m 1x6e
 507 222 485 200 457 200 c 0
 448 200 439 203 432 207 c 1
 425 203 416 200 407 200 c 0
 396 200 387 203 379 209 c 1
 371 203 361 200 350 200 c 0
 341 200 332 203 325 207 c 1
 318 203 309 200 300 200 c 0
 289 200 280 203 272 209 c 1
 264 203 254 200 243 200 c 0
 234 200 225 203 218 207 c 1
 211 203 202 200 193 200 c 0xa6
 165 200 143 222 143 250 c 0
 143 265 149 278 159 287 c 1
 153 285 147 283 140 283 c 0
 112 283 90 305 90 333 c 0
 90 361 112 383 140 383 c 0
 149 383 158 380 165 376 c 1
 172 380 181 383 190 383 c 0x66
 218 383 240 361 240 333 c 0
 240 318 234 305 224 296 c 1
 230 298 236 300 243 300 c 0
 254 300 264 297 272 291 c 1
 280 297 289 300 300 300 c 0
 309 300 318 297 325 293 c 1
 332 297 341 300 350 300 c 0
 361 300 371 297 379 291 c 1
 387 297 396 300 407 300 c 0
 414 300 420 298 426 296 c 1
 416 305 410 318 410 333 c 1
 410 351 419 366 433 375 c 1
 419 384 410 399 410 417 c 1
 410 432 416 445 426 454 c 1
 420 452 414 450 407 450 c 0
 396 450 387 453 379 459 c 1
 371 453 361 450 350 450 c 0
 341 450 332 453 325 457 c 1
 318 453 309 450 300 450 c 0
 289 450 280 453 272 459 c 1
 264 453 254 450 243 450 c 0
 234 450 225 453 218 457 c 1
 211 453 202 450 193 450 c 0
 165 450 143 472 143 500 c 0
 143 515 149 528 159 537 c 1
 153 535 147 533 140 533 c 0
 112 533 90 555 90 583 c 0
 90 601 99 616 113 625 c 1
 99 634 90 649 90 667 c 0
 90 695 112 717 140 717 c 0xb6
 147 717 153 715 159 713 c 1
 149 722 143 735 143 750 c 0
 143 778 165 800 193 800 c 0
 202 800 211 797 218 793 c 1
 225 797 234 800 243 800 c 0
 254 800 264 797 272 791 c 1
 280 797 289 800 300 800 c 0
 309 800 318 797 325 793 c 1
 332 797 341 800 350 800 c 0
 361 800 370 797 378 791 c 1
 386 797 396 800 407 800 c 0
 416 800 425 797 432 793 c 1
 439 797 448 800 457 800 c 0x2e
 485 800 507 778 507 750 c 0
 507 735 501 722 491 713 c 1
 497 715 503 717 510 717 c 0
 538 717 560 695 560 667 c 0
 560 639 538 617 510 617 c 0
 501 617 492 620 485 624 c 1
 478 620 469 617 460 617 c 0x36
 432 617 410 639 410 667 c 0
 410 682 416 695 426 704 c 1
 420 702 414 700 407 700 c 0
 396 700 386 703 378 709 c 1
 370 703 361 700 350 700 c 0
 341 700 332 703 325 707 c 1
 318 703 309 700 300 700 c 0
 289 700 280 703 272 709 c 1
 264 703 254 700 243 700 c 0
 236 700 230 702 224 704 c 1
 234 695 240 682 240 667 c 1
 240 649 231 634 217 625 c 1
 231 616 240 601 240 583 c 1
 240 568 234 555 224 546 c 1
 230 548 236 550 243 550 c 0
 254 550 264 547 272 541 c 1
 280 547 289 550 300 550 c 0
 309 550 318 547 325 543 c 1
 332 547 341 550 350 550 c 0
 361 550 370 547 378 541 c 1
 386 547 396 550 407 550 c 0
 416 550 425 547 432 543 c 1
 439 547 448 550 457 550 c 0
 485 550 507 528 507 500 c 0
 507 485 501 472 491 463 c 1
 497 465 503 467 510 467 c 0
 538 467 560 445 560 417 c 0
 560 399 551 384 537 375 c 1
 551 366 560 351 560 333 c 0
 560 305 538 283 510 283 c 0
 503 283 497 285 491 287 c 1
 501 278 507 265 507 250 c 1x6e
EndSplineSet
EndChar

StartChar: W
Encoding: 87 87 59
Width: 600
VWidth: 0
UnlinkRmOvrlpSave: 1
Flags: W
HStem: 200 183<219.376 268.059 381.941 431.624> 780 20G<126 144.5 185.5 204 446 464.5 505.5 524>
VStem: 90 150<375.861 457.574 458.427 541.573 542.426 624.139 625.861 707.574 708.427 791.562> 143 150<208.438 286.575> 250 150<378.426 457.574 458.427 541.562> 357 150<208.438 286.575> 410 150<375.861 457.574 458.427 541.573 542.426 624.139 625.861 707.574 708.427 791.562>
LayerCount: 2
Back
Fore
SplineSet
507 250 m 1xc4
 507 222 485 200 457 200 c 0
 448 200 439 203 432 207 c 1
 425 203 416 200 407 200 c 0
 379 200 357 222 357 250 c 0
 357 265 364 279 374 288 c 1
 368 285 361 283 353 283 c 0
 343 283 333 287 325 292 c 1
 317 287 307 283 297 283 c 0
 289 283 282 285 276 288 c 1
 286 279 293 265 293 250 c 0
 293 222 271 200 243 200 c 0
 234 200 225 203 218 207 c 1
 211 203 202 200 193 200 c 0
 165 200 143 222 143 250 c 0xd4
 143 265 149 278 159 287 c 1
 153 285 147 283 140 283 c 0
 112 283 90 305 90 333 c 0
 90 351 99 366 113 375 c 1
 99 384 90 399 90 417 c 0
 90 434 99 449 112 458 c 1
 99 467 90 483 90 500 c 1
 90 517 99 533 112 542 c 1
 99 551 90 566 90 583 c 0
 90 601 99 616 113 625 c 1
 99 634 90 649 90 667 c 0
 90 684 99 699 112 708 c 1
 99 717 90 733 90 750 c 0
 90 778 112 800 140 800 c 0
 149 800 158 797 165 793 c 1
 172 797 181 800 190 800 c 0
 218 800 240 778 240 750 c 0
 240 733 231 717 218 708 c 1
 231 699 240 684 240 667 c 0
 240 649 231 634 217 625 c 1
 231 616 240 601 240 583 c 1
 240 566 231 551 218 542 c 1
 231 533 240 517 240 500 c 0
 240 483 231 467 218 458 c 1
 231 449 240 434 240 417 c 0
 240 399 231 384 217 375 c 1
 219 374 l 0
 227 380 236 383 247 383 c 0
 255 383 262 381 269 378 c 1
 258 387 250 401 250 417 c 0
 250 434 259 449 272 458 c 1
 259 467 250 483 250 500 c 1
 250 528 272 550 300 550 c 0
 309 550 318 547 325 543 c 1
 332 547 341 550 350 550 c 0
 378 550 400 528 400 500 c 0
 400 483 391 467 378 458 c 1
 391 449 400 434 400 417 c 0
 400 401 392 387 381 378 c 1
 388 381 395 383 403 383 c 0
 414 383 424 380 432 374 c 0
 433 375 l 1
 419 384 410 399 410 417 c 1
 410 434 419 449 432 458 c 1
 419 467 410 483 410 500 c 0
 410 517 419 533 432 542 c 1
 419 551 410 566 410 583 c 0
 410 601 419 616 433 625 c 1
 419 634 410 649 410 667 c 0
 410 684 419 699 432 708 c 1
 419 717 410 733 410 750 c 0
 410 778 432 800 460 800 c 0
 469 800 478 797 485 793 c 1
 492 797 501 800 510 800 c 0
 538 800 560 778 560 750 c 0
 560 733 551 717 538 708 c 1
 551 699 560 684 560 667 c 0
 560 649 551 634 537 625 c 1
 551 616 560 601 560 583 c 0
 560 566 551 551 538 542 c 1
 551 533 560 517 560 500 c 0
 560 483 551 467 538 458 c 1
 551 449 560 434 560 417 c 0
 560 399 551 384 537 375 c 1
 551 366 560 351 560 333 c 0xea
 560 305 538 283 510 283 c 0
 503 283 497 285 491 287 c 1
 501 278 507 265 507 250 c 1xc4
EndSplineSet
EndChar

StartChar: Oslash
Encoding: 216 216 60
Width: 600
VWidth: 0
UnlinkRmOvrlpSave: 1
Flags: W
HStem: 200 100<276.282 324.624 325.376 373.718> 613 20G<126 144 339 357.5 506 524> 700 100<276.282 324.624 325.376 373.718>
VStem: 90 150<458.427 541.573 542.426 621.574> 143 150<295.426 371.574 628.426 704.574> 197 256<209.117 287.574 712.426 790.883> 250 150<463.667 536.333> 357 150<295.426 371.574 628.426 704.574> 410 150<378.426 457.574 458.427 541.573>
LayerCount: 2
Back
Fore
SplineSet
453 250 m 0xe4
 453 222 431 200 403 200 c 0
 394 200 385 203 378 207 c 1
 371 203 362 200 353 200 c 0
 343 200 333 204 325 209 c 1
 317 204 307 200 297 200 c 0
 288 200 279 203 272 207 c 1
 265 203 256 200 247 200 c 0
 219 200 197 222 197 250 c 0xe4
 197 265 204 279 214 288 c 1
 208 285 201 283 193 283 c 0
 165 283 143 305 143 333 c 0xe8
 143 349 151 363 162 372 c 1
 155 369 148 367 140 367 c 0
 112 367 90 389 90 417 c 0
 90 434 99 449 112 458 c 1
 99 467 90 483 90 500 c 1
 90 517 99 533 112 542 c 1
 99 551 90 566 90 583 c 0xf0
 90 611 112 633 140 633 c 0
 148 633 155 631 162 628 c 1
 151 637 143 651 143 667 c 1xe8
 143 695 165 717 193 717 c 0
 201 717 208 715 214 712 c 1
 204 721 197 735 197 750 c 1
 197 778 219 800 247 800 c 0
 256 800 265 797 272 793 c 1
 279 797 288 800 297 800 c 0
 307 800 317 796 325 791 c 1
 333 796 343 800 353 800 c 0
 362 800 371 797 378 793 c 1
 385 797 394 800 403 800 c 0
 431 800 453 778 453 750 c 0xe4
 453 735 446 721 436 712 c 1
 442 715 449 717 457 717 c 0
 485 717 507 695 507 667 c 0xe1
 507 651 499 637 488 628 c 1
 495 631 502 633 510 633 c 0
 538 633 560 611 560 583 c 0
 560 566 551 551 538 542 c 1
 551 533 560 517 560 500 c 0
 560 483 551 467 538 458 c 1
 551 449 560 434 560 417 c 0xe080
 560 389 538 367 510 367 c 0
 502 367 495 369 488 372 c 1
 499 363 507 349 507 333 c 1xe1
 507 305 485 283 457 283 c 0
 449 283 442 285 436 288 c 1
 446 279 453 265 453 250 c 0xe4
347 417 m 1
 347 389 325 367 297 367 c 0
 288 367 279 370 272 374 c 1
 285 365 293 350 293 333 c 1
 293 318 286 304 276 295 c 1
 282 298 289 300 297 300 c 0
 307 300 317 296 325 291 c 1
 333 296 343 300 353 300 c 0
 361 300 368 298 374 295 c 1
 364 304 357 318 357 333 c 0xe9
 357 361 379 383 407 383 c 0
 415 383 422 381 429 378 c 1
 418 387 410 401 410 417 c 0
 410 434 419 449 432 458 c 1
 419 467 410 483 410 500 c 0
 410 517 419 533 432 542 c 1
 424 536 414 533 403 533 c 0
 396 533 390 535 384 537 c 1
 394 528 400 515 400 500 c 1xe280
 400 472 378 450 350 450 c 0
 343 450 337 452 331 454 c 1
 341 445 347 432 347 417 c 1
293 667 m 0
 293 639 271 617 243 617 c 0
 235 617 228 619 221 622 c 1
 232 613 240 599 240 583 c 1
 240 566 231 551 218 542 c 1
 231 533 240 517 240 500 c 0
 240 483 231 467 218 458 c 1
 219 458 l 0
 227 464 236 467 247 467 c 0
 254 467 260 465 266 463 c 1
 256 472 250 485 250 500 c 0xf2
 250 528 272 550 300 550 c 0
 307 550 313 548 319 546 c 1
 309 555 303 568 303 583 c 1
 303 611 325 633 353 633 c 0
 362 633 371 630 378 626 c 1
 365 635 357 650 357 667 c 1
 357 682 364 696 374 705 c 1
 368 702 361 700 353 700 c 0
 343 700 333 704 325 709 c 1
 317 704 307 700 297 700 c 0
 289 700 282 702 276 705 c 1
 286 696 293 682 293 667 c 0
EndSplineSet
EndChar

StartChar: bracketleft
Encoding: 91 91 61
Width: 600
VWidth: 0
UnlinkRmOvrlpSave: 1
Flags: W
HStem: 200 100<219.376 271.67 272.33 325.624 326.376 378.67 379.33 445.562> 700 100<219.376 271.67 272.33 324.624 325.376 378.67 379.33 445.562>
VStem: 90 150<292.426 374.139 375.861 457.574 458.427 541.573 542.426 624.139 625.861 707.574>
LayerCount: 2
Back
Fore
SplineSet
454 250 m 0
 454 222 432 200 404 200 c 0
 395 200 386 203 379 207 c 1
 372 203 363 200 354 200 c 0
 343 200 334 203 326 209 c 1
 318 203 308 200 297 200 c 0
 288 200 279 203 272 207 c 1
 265 203 256 200 247 200 c 0
 236 200 227 203 219 209 c 1
 211 203 201 200 190 200 c 0
 181 200 172 203 165 207 c 1
 158 203 149 200 140 200 c 0
 112 200 90 222 90 250 c 0
 90 267 99 283 112 292 c 1
 99 301 90 316 90 333 c 1
 90 351 99 366 113 375 c 1
 99 384 90 399 90 417 c 0
 90 434 99 449 112 458 c 1
 99 467 90 483 90 500 c 1
 90 517 99 533 112 542 c 1
 99 551 90 566 90 583 c 0
 90 601 99 616 113 625 c 1
 99 634 90 649 90 667 c 0
 90 684 99 699 112 708 c 1
 99 717 90 733 90 750 c 0
 90 778 112 800 140 800 c 0
 149 800 158 797 165 793 c 1
 172 797 181 800 190 800 c 0
 201 800 211 797 219 791 c 1
 227 797 236 800 247 800 c 0
 256 800 265 797 272 793 c 1
 279 797 288 800 297 800 c 0
 308 800 317 797 325 791 c 1
 333 797 343 800 354 800 c 0
 363 800 372 797 379 793 c 1
 386 797 395 800 404 800 c 0
 432 800 454 778 454 750 c 0
 454 722 432 700 404 700 c 0
 395 700 386 703 379 707 c 1
 372 703 363 700 354 700 c 0
 343 700 333 703 325 709 c 1
 317 703 308 700 297 700 c 0
 288 700 279 703 272 707 c 1
 265 703 256 700 247 700 c 0
 236 700 227 703 219 709 c 0
 218 708 l 1
 231 699 240 684 240 667 c 0
 240 649 231 634 217 625 c 1
 231 616 240 601 240 583 c 1
 240 566 231 551 218 542 c 1
 231 533 240 517 240 500 c 0
 240 483 231 467 218 458 c 1
 231 449 240 434 240 417 c 0
 240 399 231 384 217 375 c 1
 231 366 240 351 240 333 c 1
 240 316 231 301 218 292 c 1
 219 291 l 0
 227 297 236 300 247 300 c 0
 256 300 265 297 272 293 c 1
 279 297 288 300 297 300 c 0
 308 300 318 297 326 291 c 1
 334 297 343 300 354 300 c 0
 363 300 372 297 379 293 c 1
 386 297 395 300 404 300 c 0
 432 300 454 278 454 250 c 0
EndSplineSet
EndChar

StartChar: Udieresis
Encoding: 220 220 62
Width: 600
VWidth: 0
UnlinkRmOvrlpSave: 1
Flags: W
HStem: 200 100<224.336 271.624 272.376 324.67 325.33 378.624 379.376 425.664> 613 20G<126 144.5 185.5 204 446 464.5 505.5 524> 700 100<98.4375 164.67 165.33 231.562 418.438 484.67 485.33 551.562>
VStem: 90 150<296.667 374.139 375.861 457.574 458.427 541.573 542.426 624.562 708.438 791.562> 410 150<296.667 374.139 375.861 457.574 458.427 541.573 542.426 624.562 708.438 791.562>
LayerCount: 2
Back
Fore
SplineSet
507 250 m 1
 507 222 485 200 457 200 c 0
 448 200 439 203 432 207 c 1
 425 203 416 200 407 200 c 0
 396 200 387 203 379 209 c 1
 371 203 361 200 350 200 c 0
 341 200 332 203 325 207 c 1
 318 203 309 200 300 200 c 0
 289 200 280 203 272 209 c 1
 264 203 254 200 243 200 c 0
 234 200 225 203 218 207 c 1
 211 203 202 200 193 200 c 0
 165 200 143 222 143 250 c 0
 143 265 149 278 159 287 c 1
 153 285 147 283 140 283 c 0
 112 283 90 305 90 333 c 0
 90 351 99 366 113 375 c 1
 99 384 90 399 90 417 c 0
 90 434 99 449 112 458 c 1
 99 467 90 483 90 500 c 1
 90 517 99 533 112 542 c 1
 99 551 90 566 90 583 c 0
 90 611 112 633 140 633 c 0
 149 633 158 630 165 626 c 1
 172 630 181 633 190 633 c 0
 218 633 240 611 240 583 c 0
 240 566 231 551 218 542 c 1
 231 533 240 517 240 500 c 0
 240 483 231 467 218 458 c 1
 231 449 240 434 240 417 c 0
 240 399 231 384 217 375 c 1
 231 366 240 351 240 333 c 1
 240 318 234 305 224 296 c 1
 230 298 236 300 243 300 c 0
 254 300 264 297 272 291 c 1
 280 297 289 300 300 300 c 0
 309 300 318 297 325 293 c 1
 332 297 341 300 350 300 c 0
 361 300 371 297 379 291 c 1
 387 297 396 300 407 300 c 0
 414 300 420 298 426 296 c 1
 416 305 410 318 410 333 c 1
 410 351 419 366 433 375 c 1
 419 384 410 399 410 417 c 1
 410 434 419 449 432 458 c 1
 419 467 410 483 410 500 c 0
 410 517 419 533 432 542 c 1
 419 551 410 566 410 583 c 0
 410 611 432 633 460 633 c 0
 469 633 478 630 485 626 c 1
 492 630 501 633 510 633 c 0
 538 633 560 611 560 583 c 0
 560 566 551 551 538 542 c 1
 551 533 560 517 560 500 c 0
 560 483 551 467 538 458 c 1
 551 449 560 434 560 417 c 0
 560 399 551 384 537 375 c 1
 551 366 560 351 560 333 c 0
 560 305 538 283 510 283 c 0
 503 283 497 285 491 287 c 1
 501 278 507 265 507 250 c 1
560 750 m 0
 560 722 538 700 510 700 c 0
 501 700 492 703 485 707 c 1
 478 703 469 700 460 700 c 0
 432 700 410 722 410 750 c 0
 410 778 432 800 460 800 c 0
 469 800 478 797 485 793 c 1
 492 797 501 800 510 800 c 0
 538 800 560 778 560 750 c 0
240 750 m 0
 240 722 218 700 190 700 c 0
 181 700 172 703 165 707 c 1
 158 703 149 700 140 700 c 0
 112 700 90 722 90 750 c 0
 90 778 112 800 140 800 c 0
 149 800 158 797 165 793 c 1
 172 797 181 800 190 800 c 0
 218 800 240 778 240 750 c 0
EndSplineSet
EndChar

StartChar: underscore
Encoding: 95 95 63
Width: 600
VWidth: 0
UnlinkRmOvrlpSave: 1
Flags: W
HStem: 200 100<98.4375 164.67 165.33 218.624 219.376 271.67 272.33 324.624 325.376 377.67 378.33 431.624 432.376 484.67 485.33 551.562>
LayerCount: 2
Back
Fore
SplineSet
560 250 m 0
 560 222 538 200 510 200 c 0
 501 200 492 203 485 207 c 1
 478 203 469 200 460 200 c 0
 449 200 440 203 432 209 c 1
 424 203 414 200 403 200 c 0
 394 200 385 203 378 207 c 1
 371 203 362 200 353 200 c 0
 343 200 333 204 325 209 c 1
 317 204 307 200 297 200 c 0
 288 200 279 203 272 207 c 1
 265 203 256 200 247 200 c 0
 236 200 227 203 219 209 c 1
 211 203 201 200 190 200 c 0
 181 200 172 203 165 207 c 1
 158 203 149 200 140 200 c 0
 112 200 90 222 90 250 c 0
 90 278 112 300 140 300 c 0
 149 300 158 297 165 293 c 1
 172 297 181 300 190 300 c 0
 201 300 211 297 219 291 c 1
 227 297 236 300 247 300 c 0
 256 300 265 297 272 293 c 1
 279 297 288 300 297 300 c 0
 307 300 317 296 325 291 c 1
 333 296 343 300 353 300 c 0
 362 300 371 297 378 293 c 1
 385 297 394 300 403 300 c 0
 414 300 424 297 432 291 c 1
 440 297 449 300 460 300 c 0
 469 300 478 297 485 293 c 1
 492 297 501 300 510 300 c 0
 538 300 560 278 560 250 c 0
EndSplineSet
EndChar

StartChar: glyph64
Encoding: 567 567 64
Width: 600
VWidth: 0
UnlinkRmOvrlpSave: 1
Flags: W
HStem: 200 100<224.336 271.624 272.376 324.67 325.33 378.624 379.376 425.664> 283 100<98.4375 158.664> 613 20G<446 464.5 505.5 524>
VStem: 90 150<296.667 374.562> 410 150<296.667 374.139 375.861 457.574 458.427 541.573 542.426 624.562>
LayerCount: 2
Back
Fore
SplineSet
507 250 m 1x78
 507 222 485 200 457 200 c 0
 448 200 439 203 432 207 c 1
 425 203 416 200 407 200 c 0
 396 200 387 203 379 209 c 1
 371 203 361 200 350 200 c 0
 341 200 332 203 325 207 c 1
 318 203 309 200 300 200 c 0
 289 200 280 203 272 209 c 1
 264 203 254 200 243 200 c 0
 234 200 225 203 218 207 c 1
 211 203 202 200 193 200 c 0xb8
 165 200 143 222 143 250 c 0
 143 265 149 278 159 287 c 1
 153 285 147 283 140 283 c 0
 112 283 90 305 90 333 c 0
 90 361 112 383 140 383 c 0
 149 383 158 380 165 376 c 1
 172 380 181 383 190 383 c 0x78
 218 383 240 361 240 333 c 0
 240 318 234 305 224 296 c 1
 230 298 236 300 243 300 c 0
 254 300 264 297 272 291 c 1
 280 297 289 300 300 300 c 0
 309 300 318 297 325 293 c 1
 332 297 341 300 350 300 c 0
 361 300 371 297 379 291 c 1
 387 297 396 300 407 300 c 0xb8
 414 300 420 298 426 296 c 1
 416 305 410 318 410 333 c 1
 410 351 419 366 433 375 c 1
 419 384 410 399 410 417 c 1
 410 434 419 449 432 458 c 1
 419 467 410 483 410 500 c 0
 410 517 419 533 432 542 c 1
 419 551 410 566 410 583 c 0
 410 611 432 633 460 633 c 0
 469 633 478 630 485 626 c 1
 492 630 501 633 510 633 c 0
 538 633 560 611 560 583 c 0
 560 566 551 551 538 542 c 1
 551 533 560 517 560 500 c 0
 560 483 551 467 538 458 c 1
 551 449 560 434 560 417 c 0
 560 399 551 384 537 375 c 1
 551 366 560 351 560 333 c 0
 560 305 538 283 510 283 c 0
 503 283 497 285 491 287 c 1
 501 278 507 265 507 250 c 1x78
EndSplineSet
EndChar

StartChar: agrave
Encoding: 224 224 65
Width: 600
VWidth: 0
UnlinkRmOvrlpSave: 1
Flags: W
HStem: 200 100<224.336 271.624 272.376 324.67 325.33 378.624 379.376 425.664> 283 100<98.4375 158.715 491.285 551.562> 367 100<221.328 271.624 272.376 324.67 325.33 378.624 379.376 425.715> 450 100<491.281 551.562> 533 100<151.438 217.67 218.33 271.624 272.376 321.672> 700 100<258.438 318.664>
VStem: 90 150<296.667 371.574> 250 150<713.667 791.562> 303 150<628.426 703.333> 410 150<296.667 371.574 463.667 536.333>
LayerCount: 2
Back
Fore
SplineSet
507 250 m 1x5640
 507 222 485 200 457 200 c 0
 448 200 439 203 432 207 c 1
 425 203 416 200 407 200 c 0
 396 200 387 203 379 209 c 1
 371 203 361 200 350 200 c 0
 341 200 332 203 325 207 c 1
 318 203 309 200 300 200 c 0
 289 200 280 203 272 209 c 1
 264 203 254 200 243 200 c 0
 234 200 225 203 218 207 c 1
 211 203 202 200 193 200 c 0x8640
 165 200 143 222 143 250 c 0
 143 265 149 278 159 287 c 1
 153 285 147 283 140 283 c 0
 112 283 90 305 90 333 c 0
 90 361 112 383 140 383 c 0x4640
 148 383 155 381 162 378 c 1
 151 387 143 401 143 417 c 0
 143 445 165 467 193 467 c 0
 202 467 211 464 218 460 c 1
 225 464 234 467 243 467 c 0
 254 467 264 464 272 458 c 1
 280 464 289 467 300 467 c 0
 309 467 318 464 325 460 c 1
 332 464 341 467 350 467 c 0
 361 467 371 464 379 458 c 1
 387 464 396 467 407 467 c 0
 414 467 420 465 426 463 c 1
 416 472 410 485 410 500 c 1x2640
 410 515 416 528 426 537 c 1
 420 535 414 533 407 533 c 0
 396 533 386 536 378 542 c 1
 370 536 361 533 350 533 c 0
 341 533 332 536 325 540 c 1
 318 536 309 533 300 533 c 0
 289 533 280 536 272 542 c 1
 264 536 254 533 243 533 c 0
 234 533 225 536 218 540 c 1
 211 536 202 533 193 533 c 0
 165 533 143 555 143 583 c 0
 143 611 165 633 193 633 c 0
 202 633 211 630 218 626 c 1
 225 630 234 633 243 633 c 0
 254 633 264 630 272 624 c 1
 280 630 289 633 300 633 c 0
 308 633 315 631 322 628 c 1
 311 637 303 651 303 667 c 1x2e80
 303 682 309 695 319 704 c 1
 313 702 307 700 300 700 c 0
 272 700 250 722 250 750 c 0
 250 778 272 800 300 800 c 0
 309 800 318 797 325 793 c 1
 332 797 341 800 350 800 c 0
 378 800 400 778 400 750 c 0x2f
 400 735 394 722 384 713 c 1
 390 715 396 717 403 717 c 0
 431 717 453 695 453 667 c 0
 453 650 445 635 432 626 c 1
 439 630 448 633 457 633 c 0x2e80
 485 633 507 611 507 583 c 0
 507 568 501 555 491 546 c 1
 497 548 503 550 510 550 c 0
 538 550 560 528 560 500 c 0
 560 472 538 450 510 450 c 0
 503 450 497 452 491 454 c 1
 501 445 507 432 507 417 c 1
 507 401 499 387 488 378 c 1
 495 381 502 383 510 383 c 0
 538 383 560 361 560 333 c 0
 560 305 538 283 510 283 c 0
 503 283 497 285 491 287 c 1
 501 278 507 265 507 250 c 1x5640
224 296 m 1
 230 298 236 300 243 300 c 0
 254 300 264 297 272 291 c 1
 280 297 289 300 300 300 c 0
 309 300 318 297 325 293 c 1
 332 297 341 300 350 300 c 0
 361 300 371 297 379 291 c 1
 387 297 396 300 407 300 c 0
 414 300 420 298 426 296 c 1
 416 305 410 318 410 333 c 1
 410 349 418 363 429 372 c 1
 422 369 415 367 407 367 c 0
 396 367 387 370 379 376 c 1
 371 370 361 367 350 367 c 0
 341 367 332 370 325 374 c 1
 318 370 309 367 300 367 c 0
 289 367 280 370 272 376 c 1
 264 370 254 367 243 367 c 0xa640
 235 367 228 369 221 372 c 1
 232 363 240 349 240 333 c 1
 240 318 234 305 224 296 c 1
EndSplineSet
EndChar

StartChar: c
Encoding: 99 99 66
Width: 600
VWidth: 0
UnlinkRmOvrlpSave: 1
Flags: W
HStem: 200 100<224.336 271.624 272.376 324.67 325.33 378.624 379.376 431.67 432.33 498.562> 450 100<491.336 551.562> 533 100<224.336 271.624 272.376 324.67 325.33 377.624 378.376 425.664>
VStem: 90 150<296.667 374.139 375.861 457.574 458.427 536.333> 410 150<458.438 536.333>
LayerCount: 2
Back
Fore
SplineSet
507 250 m 0xb8
 507 222 485 200 457 200 c 0
 448 200 439 203 432 207 c 1
 425 203 416 200 407 200 c 0
 396 200 387 203 379 209 c 1
 371 203 361 200 350 200 c 0
 341 200 332 203 325 207 c 1
 318 203 309 200 300 200 c 0
 289 200 280 203 272 209 c 1
 264 203 254 200 243 200 c 0
 234 200 225 203 218 207 c 1
 211 203 202 200 193 200 c 0
 165 200 143 222 143 250 c 0
 143 265 149 278 159 287 c 1
 153 285 147 283 140 283 c 0
 112 283 90 305 90 333 c 0
 90 351 99 366 113 375 c 1
 99 384 90 399 90 417 c 0
 90 434 99 449 112 458 c 1
 99 467 90 483 90 500 c 1
 90 528 112 550 140 550 c 0xd8
 147 550 153 548 159 546 c 1
 149 555 143 568 143 583 c 0
 143 611 165 633 193 633 c 0
 202 633 211 630 218 626 c 1
 225 630 234 633 243 633 c 0
 254 633 264 630 272 624 c 1
 280 630 289 633 300 633 c 0
 309 633 318 630 325 626 c 1
 332 630 341 633 350 633 c 0
 361 633 370 630 378 624 c 1
 386 630 396 633 407 633 c 0
 416 633 425 630 432 626 c 1
 439 630 448 633 457 633 c 0xb8
 485 633 507 611 507 583 c 0
 507 568 501 555 491 546 c 1
 497 548 503 550 510 550 c 0
 538 550 560 528 560 500 c 0
 560 472 538 450 510 450 c 0
 501 450 492 453 485 457 c 1
 478 453 469 450 460 450 c 0xd8
 432 450 410 472 410 500 c 0
 410 515 416 528 426 537 c 1
 420 535 414 533 407 533 c 0
 396 533 386 536 378 542 c 1
 370 536 361 533 350 533 c 0
 341 533 332 536 325 540 c 1
 318 536 309 533 300 533 c 0
 289 533 280 536 272 542 c 1
 264 536 254 533 243 533 c 0
 236 533 230 535 224 537 c 1
 234 528 240 515 240 500 c 1
 240 483 231 467 218 458 c 1
 231 449 240 434 240 417 c 0
 240 399 231 384 217 375 c 1
 231 366 240 351 240 333 c 1
 240 318 234 305 224 296 c 1
 230 298 236 300 243 300 c 0
 254 300 264 297 272 291 c 1
 280 297 289 300 300 300 c 0
 309 300 318 297 325 293 c 1
 332 297 341 300 350 300 c 0
 361 300 371 297 379 291 c 1
 387 297 396 300 407 300 c 0
 416 300 425 297 432 293 c 1
 439 297 448 300 457 300 c 0
 485 300 507 278 507 250 c 0xb8
EndSplineSet
EndChar

StartChar: adieresis
Encoding: 228 228 67
Width: 600
VWidth: 0
UnlinkRmOvrlpSave: 1
Flags: W
HStem: 200 100<224.336 271.624 272.376 324.67 325.33 378.624 379.376 425.664> 283 100<98.4375 158.715 491.285 551.562> 367 100<221.328 271.624 272.376 324.67 325.33 378.624 379.376 425.715> 450 100<491.281 551.562> 533 100<151.438 217.67 218.33 271.624 272.376 324.67 325.33 377.624 378.376 425.664> 700 100<151.438 217.67 218.33 284.562 365.438 431.67 432.33 498.562>
VStem: 90 150<296.667 371.574> 143 150<708.438 791.562> 357 150<708.438 791.562> 410 150<296.667 371.574 463.667 536.333>
LayerCount: 2
Back
Fore
SplineSet
507 250 m 1x5480
 507 222 485 200 457 200 c 0
 448 200 439 203 432 207 c 1
 425 203 416 200 407 200 c 0
 396 200 387 203 379 209 c 1
 371 203 361 200 350 200 c 0
 341 200 332 203 325 207 c 1
 318 203 309 200 300 200 c 0
 289 200 280 203 272 209 c 1
 264 203 254 200 243 200 c 0
 234 200 225 203 218 207 c 1
 211 203 202 200 193 200 c 0
 165 200 143 222 143 250 c 0x8580
 143 265 149 278 159 287 c 1
 153 285 147 283 140 283 c 0
 112 283 90 305 90 333 c 0
 90 361 112 383 140 383 c 0x46
 148 383 155 381 162 378 c 1
 151 387 143 401 143 417 c 0
 143 445 165 467 193 467 c 0
 202 467 211 464 218 460 c 1
 225 464 234 467 243 467 c 0
 254 467 264 464 272 458 c 1
 280 464 289 467 300 467 c 0
 309 467 318 464 325 460 c 1
 332 464 341 467 350 467 c 0
 361 467 371 464 379 458 c 1
 387 464 396 467 407 467 c 0
 414 467 420 465 426 463 c 1
 416 472 410 485 410 500 c 1x2540
 410 515 416 528 426 537 c 1
 420 535 414 533 407 533 c 0
 396 533 386 536 378 542 c 1
 370 536 361 533 350 533 c 0
 341 533 332 536 325 540 c 1
 318 536 309 533 300 533 c 0
 289 533 280 536 272 542 c 1
 264 536 254 533 243 533 c 0
 234 533 225 536 218 540 c 1
 211 536 202 533 193 533 c 0
 165 533 143 555 143 583 c 0
 143 611 165 633 193 633 c 0
 202 633 211 630 218 626 c 1
 225 630 234 633 243 633 c 0
 254 633 264 630 272 624 c 1
 280 630 289 633 300 633 c 0
 309 633 318 630 325 626 c 1
 332 630 341 633 350 633 c 0
 361 633 370 630 378 624 c 1
 386 630 396 633 407 633 c 0
 416 633 425 630 432 626 c 1
 439 630 448 633 457 633 c 0
 485 633 507 611 507 583 c 0x2d80
 507 568 501 555 491 546 c 1
 497 548 503 550 510 550 c 0
 538 550 560 528 560 500 c 0x1440
 560 472 538 450 510 450 c 0
 503 450 497 452 491 454 c 1
 501 445 507 432 507 417 c 1x1480
 507 401 499 387 488 378 c 1
 495 381 502 383 510 383 c 0
 538 383 560 361 560 333 c 0x5440
 560 305 538 283 510 283 c 0
 503 283 497 285 491 287 c 1
 501 278 507 265 507 250 c 1x5480
507 750 m 0
 507 722 485 700 457 700 c 0
 448 700 439 703 432 707 c 1
 425 703 416 700 407 700 c 0
 379 700 357 722 357 750 c 0
 357 778 379 800 407 800 c 0
 416 800 425 797 432 793 c 1
 439 797 448 800 457 800 c 0
 485 800 507 778 507 750 c 0
293 750 m 0
 293 722 271 700 243 700 c 0
 234 700 225 703 218 707 c 1
 211 703 202 700 193 700 c 0
 165 700 143 722 143 750 c 0
 143 778 165 800 193 800 c 0
 202 800 211 797 218 793 c 1
 225 797 234 800 243 800 c 0
 271 800 293 778 293 750 c 0
224 296 m 1
 230 298 236 300 243 300 c 0
 254 300 264 297 272 291 c 1
 280 297 289 300 300 300 c 0
 309 300 318 297 325 293 c 1
 332 297 341 300 350 300 c 0
 361 300 371 297 379 291 c 1
 387 297 396 300 407 300 c 0
 414 300 420 298 426 296 c 1
 416 305 410 318 410 333 c 1
 410 349 418 363 429 372 c 1
 422 369 415 367 407 367 c 0
 396 367 387 370 379 376 c 1
 371 370 361 367 350 367 c 0
 341 367 332 370 325 374 c 1
 318 370 309 367 300 367 c 0
 289 367 280 370 272 376 c 1
 264 370 254 367 243 367 c 0
 235 367 228 369 221 372 c 1
 232 363 240 349 240 333 c 1xa640
 240 318 234 305 224 296 c 1
EndSplineSet
EndChar

StartChar: g
Encoding: 103 103 68
Width: 600
VWidth: 0
UnlinkRmOvrlpSave: 1
Flags: W
HStem: 200 100<98.4375 164.67 165.33 218.624 219.376 271.67 272.33 324.624 325.376 377.67 378.33 431.624> 367 100<224.336 271.624 272.376 324.67 325.33 378.624 379.376 425.715> 450 100<98.4375 158.719 491.281 551.562> 533 100<224.336 271.624 272.376 324.67 325.33 377.624 378.376 425.715> 617 100<488.328 551.562>
VStem: 90 150<463.667 536.333> 410 150<292.426 371.574 463.667 536.333 628.426 708.562>
LayerCount: 2
Back
Fore
SplineSet
560 250 m 0xae
 560 222 538 200 510 200 c 0
 501 200 492 203 485 207 c 1
 478 203 469 200 460 200 c 0
 449 200 440 203 432 209 c 1
 424 203 414 200 403 200 c 0
 394 200 385 203 378 207 c 1
 371 203 362 200 353 200 c 0
 343 200 333 204 325 209 c 1
 317 204 307 200 297 200 c 0
 288 200 279 203 272 207 c 1
 265 203 256 200 247 200 c 0
 236 200 227 203 219 209 c 1
 211 203 201 200 190 200 c 0
 181 200 172 203 165 207 c 1
 158 203 149 200 140 200 c 0
 112 200 90 222 90 250 c 0
 90 278 112 300 140 300 c 0
 149 300 158 297 165 293 c 1
 172 297 181 300 190 300 c 0
 201 300 211 297 219 291 c 1
 227 297 236 300 247 300 c 0
 256 300 265 297 272 293 c 1
 279 297 288 300 297 300 c 0
 307 300 317 296 325 291 c 1
 333 296 343 300 353 300 c 0
 362 300 371 297 378 293 c 1
 385 297 394 300 403 300 c 0
 414 300 424 297 432 291 c 0
 432 292 l 1
 419 301 410 316 410 333 c 0
 410 349 418 363 429 372 c 1
 422 369 415 367 407 367 c 0
 396 367 387 370 379 376 c 1
 371 370 361 367 350 367 c 0
 341 367 332 370 325 374 c 1
 318 370 309 367 300 367 c 0
 289 367 280 370 272 376 c 1
 264 370 254 367 243 367 c 0
 234 367 225 370 218 374 c 1
 211 370 202 367 193 367 c 0xc6
 165 367 143 389 143 417 c 0
 143 432 149 445 159 454 c 1
 153 452 147 450 140 450 c 0
 112 450 90 472 90 500 c 0
 90 528 112 550 140 550 c 0xa6
 147 550 153 548 159 546 c 1
 149 555 143 568 143 583 c 0
 143 611 165 633 193 633 c 0
 202 633 211 630 218 626 c 1
 225 630 234 633 243 633 c 0
 254 633 264 630 272 624 c 1
 280 630 289 633 300 633 c 0
 309 633 318 630 325 626 c 1
 332 630 341 633 350 633 c 0
 361 633 370 630 378 624 c 1
 386 630 396 633 407 633 c 0x96
 415 633 422 631 429 628 c 1
 418 637 410 651 410 667 c 1
 410 695 432 717 460 717 c 0
 469 717 478 714 485 710 c 1
 492 714 501 717 510 717 c 0
 538 717 560 695 560 667 c 0
 560 639 538 617 510 617 c 0
 502 617 495 619 488 622 c 1
 499 613 507 599 507 583 c 1
 507 568 501 555 491 546 c 1
 497 548 503 550 510 550 c 0
 538 550 560 528 560 500 c 0
 560 472 538 450 510 450 c 0
 503 450 497 452 491 454 c 1
 501 445 507 432 507 417 c 1
 507 401 499 387 488 378 c 1
 495 381 502 383 510 383 c 0
 538 383 560 361 560 333 c 0
 560 316 551 301 538 292 c 1
 551 283 560 267 560 250 c 0xae
224 463 m 1
 230 465 236 467 243 467 c 0
 254 467 264 464 272 458 c 1
 280 464 289 467 300 467 c 0
 309 467 318 464 325 460 c 1
 332 464 341 467 350 467 c 0
 361 467 371 464 379 458 c 1
 387 464 396 467 407 467 c 0
 414 467 420 465 426 463 c 1
 416 472 410 485 410 500 c 1
 410 515 416 528 426 537 c 1
 420 535 414 533 407 533 c 0
 396 533 386 536 378 542 c 1
 370 536 361 533 350 533 c 0
 341 533 332 536 325 540 c 1
 318 536 309 533 300 533 c 0
 289 533 280 536 272 542 c 1
 264 536 254 533 243 533 c 0xd6
 236 533 230 535 224 537 c 1
 234 528 240 515 240 500 c 1
 240 485 234 472 224 463 c 1
EndSplineSet
EndChar

StartChar: egrave
Encoding: 232 232 69
Width: 600
VWidth: 0
UnlinkRmOvrlpSave: 1
Flags: W
HStem: 200 100<224.336 271.624 272.376 324.67 325.33 378.624 379.376 431.67 432.33 498.562> 367 100<219.376 271.67 272.33 324.624 325.376 377.67 378.33 431.624> 533 100<224.336 271.624 272.376 321.672> 700 100<258.438 318.664>
VStem: 90 150<296.667 374.139 458.427 536.333> 250 150<713.667 791.562> 303 150<628.426 703.333> 410 150<458.427 536.333>
LayerCount: 2
Back
Fore
SplineSet
507 250 m 0xf9
 507 222 485 200 457 200 c 0
 448 200 439 203 432 207 c 1
 425 203 416 200 407 200 c 0
 396 200 387 203 379 209 c 1
 371 203 361 200 350 200 c 0
 341 200 332 203 325 207 c 1
 318 203 309 200 300 200 c 0
 289 200 280 203 272 209 c 1
 264 203 254 200 243 200 c 0
 234 200 225 203 218 207 c 1
 211 203 202 200 193 200 c 0
 165 200 143 222 143 250 c 0
 143 265 149 278 159 287 c 1
 153 285 147 283 140 283 c 0
 112 283 90 305 90 333 c 0
 90 351 99 366 113 375 c 1
 99 384 90 399 90 417 c 0
 90 434 99 449 112 458 c 1
 99 467 90 483 90 500 c 1
 90 528 112 550 140 550 c 0
 147 550 153 548 159 546 c 1
 149 555 143 568 143 583 c 0
 143 611 165 633 193 633 c 0
 202 633 211 630 218 626 c 1
 225 630 234 633 243 633 c 0
 254 633 264 630 272 624 c 1
 280 630 289 633 300 633 c 0
 308 633 315 631 322 628 c 1
 311 637 303 651 303 667 c 1xfa
 303 682 309 695 319 704 c 1
 313 702 307 700 300 700 c 0
 272 700 250 722 250 750 c 0
 250 778 272 800 300 800 c 0
 309 800 318 797 325 793 c 1
 332 797 341 800 350 800 c 0
 378 800 400 778 400 750 c 0xfc
 400 735 394 722 384 713 c 1
 390 715 396 717 403 717 c 0
 431 717 453 695 453 667 c 0xfa
 453 650 445 635 432 626 c 1
 439 630 448 633 457 633 c 0
 485 633 507 611 507 583 c 0
 507 568 501 555 491 546 c 1
 497 548 503 550 510 550 c 0
 538 550 560 528 560 500 c 0
 560 483 551 467 538 458 c 1
 551 449 560 434 560 417 c 0
 560 389 538 367 510 367 c 0
 501 367 492 370 485 374 c 1
 478 370 469 367 460 367 c 0
 449 367 440 370 432 376 c 1
 424 370 414 367 403 367 c 0
 394 367 385 370 378 374 c 1
 371 370 362 367 353 367 c 0
 343 367 333 371 325 376 c 1
 317 371 307 367 297 367 c 0
 288 367 279 370 272 374 c 1
 265 370 256 367 247 367 c 0
 236 367 227 370 219 376 c 0
 217 375 l 1
 231 366 240 351 240 333 c 1
 240 318 234 305 224 296 c 1
 230 298 236 300 243 300 c 0
 254 300 264 297 272 291 c 1
 280 297 289 300 300 300 c 0
 309 300 318 297 325 293 c 1
 332 297 341 300 350 300 c 0
 361 300 371 297 379 291 c 1
 387 297 396 300 407 300 c 0
 416 300 425 297 432 293 c 1
 439 297 448 300 457 300 c 0
 485 300 507 278 507 250 c 0xf9
218 458 m 1
 219 458 l 0
 227 464 236 467 247 467 c 0
 256 467 265 464 272 460 c 1
 279 464 288 467 297 467 c 0
 307 467 317 463 325 458 c 1
 333 463 343 467 353 467 c 0
 362 467 371 464 378 460 c 1
 385 464 394 467 403 467 c 0
 414 467 424 464 432 458 c 0
 419 467 410 483 410 500 c 0xf9
 410 515 416 528 426 537 c 1
 420 535 414 533 407 533 c 0
 396 533 386 536 378 542 c 1
 370 536 361 533 350 533 c 0
 341 533 332 536 325 540 c 1
 318 536 309 533 300 533 c 0
 289 533 280 536 272 542 c 1
 264 536 254 533 243 533 c 0
 236 533 230 535 224 537 c 1
 234 528 240 515 240 500 c 1
 240 483 231 467 218 458 c 1
EndSplineSet
EndChar

StartChar: k
Encoding: 107 107 70
Width: 600
VWidth: 0
UnlinkRmOvrlpSave: 1
Flags: W
HStem: 200 100<418.438 484.67 485.33 551.562> 283 100<311.438 377.67 378.33 444.562> 367 100<219.376 265.664> 533 100<384.336 444.562> 780 20G<126 144.5 185.5 204>
VStem: 90 150<208.438 291.573 292.426 374.139 458.427 541.573 542.426 624.139 625.861 707.574 708.427 791.562> 250 150<463.667 536.333> 303 150<291.438 374.562 546.667 624.562> 410 150<208.438 291.562>
LayerCount: 2
Back
Fore
SplineSet
560 250 m 0x9c80
 560 222 538 200 510 200 c 0
 501 200 492 203 485 207 c 1
 478 203 469 200 460 200 c 0
 432 200 410 222 410 250 c 0
 410 278 432 300 460 300 c 0
 469 300 478 297 485 293 c 1
 492 297 501 300 510 300 c 0
 538 300 560 278 560 250 c 0x9c80
240 250 m 0
 240 222 218 200 190 200 c 0
 181 200 172 203 165 207 c 1
 158 203 149 200 140 200 c 0
 112 200 90 222 90 250 c 0
 90 267 99 283 112 292 c 1
 99 301 90 316 90 333 c 1
 90 351 99 366 113 375 c 1
 99 384 90 399 90 417 c 0
 90 434 99 449 112 458 c 1
 99 467 90 483 90 500 c 1
 90 517 99 533 112 542 c 1
 99 551 90 566 90 583 c 0
 90 601 99 616 113 625 c 1
 99 634 90 649 90 667 c 0
 90 684 99 699 112 708 c 1
 99 717 90 733 90 750 c 0
 90 778 112 800 140 800 c 0
 149 800 158 797 165 793 c 1
 172 797 181 800 190 800 c 0
 218 800 240 778 240 750 c 0
 240 733 231 717 218 708 c 1
 231 699 240 684 240 667 c 0
 240 649 231 634 217 625 c 1
 231 616 240 601 240 583 c 1
 240 566 231 551 218 542 c 1
 231 533 240 517 240 500 c 0
 240 483 231 467 218 458 c 1
 219 458 l 0
 227 464 236 467 247 467 c 0
 254 467 260 465 266 463 c 1
 256 472 250 485 250 500 c 0xbe
 250 528 272 550 300 550 c 0
 307 550 313 548 319 546 c 1
 309 555 303 568 303 583 c 1
 303 611 325 633 353 633 c 0
 362 633 371 630 378 626 c 1
 385 630 394 633 403 633 c 0
 431 633 453 611 453 583 c 0xbd
 453 555 431 533 403 533 c 0
 396 533 390 535 384 537 c 1
 394 528 400 515 400 500 c 1
 400 472 378 450 350 450 c 0
 343 450 337 452 331 454 c 1
 341 445 347 432 347 417 c 1
 347 389 325 367 297 367 c 0
 288 367 279 370 272 374 c 1
 265 370 256 367 247 367 c 0xbe
 236 367 227 370 219 376 c 0
 217 375 l 1
 231 366 240 351 240 333 c 1
 240 316 231 301 218 292 c 1
 231 283 240 267 240 250 c 0
453 333 m 0x5d
 453 305 431 283 403 283 c 0
 394 283 385 286 378 290 c 1
 371 286 362 283 353 283 c 0
 325 283 303 305 303 333 c 0
 303 361 325 383 353 383 c 0
 362 383 371 380 378 376 c 1
 385 380 394 383 403 383 c 0
 431 383 453 361 453 333 c 0x5d
EndSplineSet
EndChar

StartChar: o
Encoding: 111 111 71
Width: 600
VWidth: 0
UnlinkRmOvrlpSave: 1
Flags: W
HStem: 200 100<224.336 271.624 272.376 324.67 325.33 378.624 379.376 425.664> 533 100<224.336 271.624 272.376 324.67 325.33 377.624 378.376 425.664>
VStem: 90 150<296.667 374.139 375.861 457.574 458.427 536.333> 410 150<296.667 374.139 375.861 457.574 458.427 536.333>
LayerCount: 2
Back
Fore
SplineSet
507 250 m 1
 507 222 485 200 457 200 c 0
 448 200 439 203 432 207 c 1
 425 203 416 200 407 200 c 0
 396 200 387 203 379 209 c 1
 371 203 361 200 350 200 c 0
 341 200 332 203 325 207 c 1
 318 203 309 200 300 200 c 0
 289 200 280 203 272 209 c 1
 264 203 254 200 243 200 c 0
 234 200 225 203 218 207 c 1
 211 203 202 200 193 200 c 0
 165 200 143 222 143 250 c 0
 143 265 149 278 159 287 c 1
 153 285 147 283 140 283 c 0
 112 283 90 305 90 333 c 0
 90 351 99 366 113 375 c 1
 99 384 90 399 90 417 c 0
 90 434 99 449 112 458 c 1
 99 467 90 483 90 500 c 1
 90 528 112 550 140 550 c 0
 147 550 153 548 159 546 c 1
 149 555 143 568 143 583 c 0
 143 611 165 633 193 633 c 0
 202 633 211 630 218 626 c 1
 225 630 234 633 243 633 c 0
 254 633 264 630 272 624 c 1
 280 630 289 633 300 633 c 0
 309 633 318 630 325 626 c 1
 332 630 341 633 350 633 c 0
 361 633 370 630 378 624 c 1
 386 630 396 633 407 633 c 0
 416 633 425 630 432 626 c 1
 439 630 448 633 457 633 c 0
 485 633 507 611 507 583 c 0
 507 568 501 555 491 546 c 1
 497 548 503 550 510 550 c 0
 538 550 560 528 560 500 c 0
 560 483 551 467 538 458 c 1
 551 449 560 434 560 417 c 0
 560 399 551 384 537 375 c 1
 551 366 560 351 560 333 c 0
 560 305 538 283 510 283 c 0
 503 283 497 285 491 287 c 1
 501 278 507 265 507 250 c 1
224 296 m 1
 230 298 236 300 243 300 c 0
 254 300 264 297 272 291 c 1
 280 297 289 300 300 300 c 0
 309 300 318 297 325 293 c 1
 332 297 341 300 350 300 c 0
 361 300 371 297 379 291 c 1
 387 297 396 300 407 300 c 0
 414 300 420 298 426 296 c 1
 416 305 410 318 410 333 c 1
 410 351 419 366 433 375 c 1
 419 384 410 399 410 417 c 1
 410 434 419 449 432 458 c 1
 419 467 410 483 410 500 c 0
 410 515 416 528 426 537 c 1
 420 535 414 533 407 533 c 0
 396 533 386 536 378 542 c 1
 370 536 361 533 350 533 c 0
 341 533 332 536 325 540 c 1
 318 536 309 533 300 533 c 0
 289 533 280 536 272 542 c 1
 264 536 254 533 243 533 c 0
 236 533 230 535 224 537 c 1
 234 528 240 515 240 500 c 1
 240 483 231 467 218 458 c 1
 231 449 240 434 240 417 c 0
 240 399 231 384 217 375 c 1
 231 366 240 351 240 333 c 1
 240 318 234 305 224 296 c 1
EndSplineSet
EndChar

StartChar: s
Encoding: 115 115 72
Width: 600
VWidth: 0
UnlinkRmOvrlpSave: 1
Flags: W
HStem: 200 100<151.438 217.67 218.33 271.624 272.376 324.67 325.33 378.624 379.376 425.664> 283 100<491.285 551.562> 367 100<224.336 271.624 272.376 324.67 325.33 378.624 379.376 428.672> 450 100<98.4375 158.719> 533 100<224.336 271.624 272.376 324.67 325.33 377.624 378.376 431.67 432.33 498.562>
VStem: 90 150<463.667 536.333> 410 150<296.667 371.574>
LayerCount: 2
Back
Fore
SplineSet
507 250 m 1x46
 507 222 485 200 457 200 c 0
 448 200 439 203 432 207 c 1
 425 203 416 200 407 200 c 0
 396 200 387 203 379 209 c 1
 371 203 361 200 350 200 c 0
 341 200 332 203 325 207 c 1
 318 203 309 200 300 200 c 0
 289 200 280 203 272 209 c 1
 264 203 254 200 243 200 c 0
 234 200 225 203 218 207 c 1
 211 203 202 200 193 200 c 0
 165 200 143 222 143 250 c 0
 143 278 165 300 193 300 c 0
 202 300 211 297 218 293 c 1
 225 297 234 300 243 300 c 0
 254 300 264 297 272 291 c 1
 280 297 289 300 300 300 c 0
 309 300 318 297 325 293 c 1
 332 297 341 300 350 300 c 0
 361 300 371 297 379 291 c 1
 387 297 396 300 407 300 c 0
 414 300 420 298 426 296 c 1
 416 305 410 318 410 333 c 1
 410 349 418 363 429 372 c 1
 422 369 415 367 407 367 c 0
 396 367 387 370 379 376 c 1
 371 370 361 367 350 367 c 0
 341 367 332 370 325 374 c 1
 318 370 309 367 300 367 c 0
 289 367 280 370 272 376 c 1
 264 370 254 367 243 367 c 0
 234 367 225 370 218 374 c 1
 211 370 202 367 193 367 c 0xa6
 165 367 143 389 143 417 c 0
 143 432 149 445 159 454 c 1
 153 452 147 450 140 450 c 0
 112 450 90 472 90 500 c 0
 90 528 112 550 140 550 c 0x16
 147 550 153 548 159 546 c 1
 149 555 143 568 143 583 c 0
 143 611 165 633 193 633 c 0
 202 633 211 630 218 626 c 1
 225 630 234 633 243 633 c 0
 254 633 264 630 272 624 c 1
 280 630 289 633 300 633 c 0
 309 633 318 630 325 626 c 1
 332 630 341 633 350 633 c 0
 361 633 370 630 378 624 c 1
 386 630 396 633 407 633 c 0
 416 633 425 630 432 626 c 1
 439 630 448 633 457 633 c 0
 485 633 507 611 507 583 c 0
 507 555 485 533 457 533 c 0
 448 533 439 536 432 540 c 1
 425 536 416 533 407 533 c 0
 396 533 386 536 378 542 c 1
 370 536 361 533 350 533 c 0
 341 533 332 536 325 540 c 1
 318 536 309 533 300 533 c 0
 289 533 280 536 272 542 c 1
 264 536 254 533 243 533 c 0
 236 533 230 535 224 537 c 1
 234 528 240 515 240 500 c 1
 240 485 234 472 224 463 c 1
 230 465 236 467 243 467 c 0
 254 467 264 464 272 458 c 1
 280 464 289 467 300 467 c 0
 309 467 318 464 325 460 c 1
 332 464 341 467 350 467 c 0
 361 467 371 464 379 458 c 1
 387 464 396 467 407 467 c 0
 416 467 425 464 432 460 c 1
 439 464 448 467 457 467 c 0x2e
 485 467 507 445 507 417 c 0
 507 401 499 387 488 378 c 1
 495 381 502 383 510 383 c 0
 538 383 560 361 560 333 c 0
 560 305 538 283 510 283 c 0
 503 283 497 285 491 287 c 1
 501 278 507 265 507 250 c 1x46
EndSplineSet
EndChar

StartChar: glyph73
Encoding: 373 373 73
Width: 600
VWidth: 0
UnlinkRmOvrlpSave: 1
Flags: W
HStem: 200 183<219.376 268.059 381.941 431.624> 617 100<151.438 213.718 436.282 498.562> 700 100<276.282 324.624 325.376 373.718>
VStem: 90 150<375.861 457.574 458.427 541.562> 143 150<208.438 286.575 625.438 704.574> 197 256<712.426 790.883> 250 150<378.426 458.562> 357 150<208.438 286.575 625.438 704.574> 410 150<375.861 457.574 458.427 541.562>
LayerCount: 2
Back
Fore
SplineSet
507 250 m 1x81
 507 222 485 200 457 200 c 0
 448 200 439 203 432 207 c 1
 425 203 416 200 407 200 c 0
 379 200 357 222 357 250 c 0
 357 265 364 279 374 288 c 1
 368 285 361 283 353 283 c 0
 343 283 333 287 325 292 c 1
 317 287 307 283 297 283 c 0
 289 283 282 285 276 288 c 1
 286 279 293 265 293 250 c 0
 293 222 271 200 243 200 c 0
 234 200 225 203 218 207 c 1
 211 203 202 200 193 200 c 0
 165 200 143 222 143 250 c 0x89
 143 265 149 278 159 287 c 1
 153 285 147 283 140 283 c 0
 112 283 90 305 90 333 c 0
 90 351 99 366 113 375 c 1
 99 384 90 399 90 417 c 0
 90 434 99 449 112 458 c 1
 99 467 90 483 90 500 c 1
 90 528 112 550 140 550 c 0
 149 550 158 547 165 543 c 1
 172 547 181 550 190 550 c 0
 218 550 240 528 240 500 c 0
 240 483 231 467 218 458 c 1
 231 449 240 434 240 417 c 0
 240 399 231 384 217 375 c 1
 219 374 l 0
 227 380 236 383 247 383 c 0
 255 383 262 381 269 378 c 1
 258 387 250 401 250 417 c 0
 250 445 272 467 300 467 c 0
 309 467 318 464 325 460 c 1
 332 464 341 467 350 467 c 0
 378 467 400 445 400 417 c 0
 400 401 392 387 381 378 c 1
 388 381 395 383 403 383 c 0
 414 383 424 380 432 374 c 0
 433 375 l 1
 419 384 410 399 410 417 c 1
 410 434 419 449 432 458 c 1
 419 467 410 483 410 500 c 0
 410 528 432 550 460 550 c 0
 469 550 478 547 485 543 c 1
 492 547 501 550 510 550 c 0
 538 550 560 528 560 500 c 0
 560 483 551 467 538 458 c 1
 551 449 560 434 560 417 c 0
 560 399 551 384 537 375 c 1
 551 366 560 351 560 333 c 0x9280
 560 305 538 283 510 283 c 0
 503 283 497 285 491 287 c 1
 501 278 507 265 507 250 c 1x81
507 667 m 0
 507 639 485 617 457 617 c 0
 448 617 439 620 432 624 c 1
 425 620 416 617 407 617 c 0xc1
 379 617 357 639 357 667 c 0
 357 682 364 696 374 705 c 1
 368 702 361 700 353 700 c 0
 343 700 333 704 325 709 c 1
 317 704 307 700 297 700 c 0xa1
 289 700 282 702 276 705 c 1
 286 696 293 682 293 667 c 0
 293 639 271 617 243 617 c 0
 234 617 225 620 218 624 c 1
 211 620 202 617 193 617 c 0
 165 617 143 639 143 667 c 0
 143 695 165 717 193 717 c 0xc9
 201 717 208 715 214 712 c 1
 204 721 197 735 197 750 c 1
 197 778 219 800 247 800 c 0
 256 800 265 797 272 793 c 1
 279 797 288 800 297 800 c 0
 307 800 317 796 325 791 c 1
 333 796 343 800 353 800 c 0
 362 800 371 797 378 793 c 1
 385 797 394 800 403 800 c 0xa4
 431 800 453 778 453 750 c 0
 453 735 446 721 436 712 c 1
 442 715 449 717 457 717 c 0xc4
 485 717 507 695 507 667 c 0
EndSplineSet
EndChar

StartChar: w
Encoding: 119 119 74
Width: 600
VWidth: 0
UnlinkRmOvrlpSave: 1
Flags: W
HStem: 200 183<219.376 268.059 381.941 431.624> 613 20G<126 144.5 185.5 204 446 464.5 505.5 524>
VStem: 90 150<375.861 457.574 458.427 541.573 542.426 624.562> 143 150<208.438 286.575> 250 150<378.426 458.562> 357 150<208.438 286.575> 410 150<375.861 457.574 458.427 541.573 542.426 624.562>
LayerCount: 2
Back
Fore
SplineSet
507 250 m 1xc4
 507 222 485 200 457 200 c 0
 448 200 439 203 432 207 c 1
 425 203 416 200 407 200 c 0
 379 200 357 222 357 250 c 0
 357 265 364 279 374 288 c 1
 368 285 361 283 353 283 c 0
 343 283 333 287 325 292 c 1
 317 287 307 283 297 283 c 0
 289 283 282 285 276 288 c 1
 286 279 293 265 293 250 c 0
 293 222 271 200 243 200 c 0
 234 200 225 203 218 207 c 1
 211 203 202 200 193 200 c 0
 165 200 143 222 143 250 c 0xd4
 143 265 149 278 159 287 c 1
 153 285 147 283 140 283 c 0
 112 283 90 305 90 333 c 0
 90 351 99 366 113 375 c 1
 99 384 90 399 90 417 c 0
 90 434 99 449 112 458 c 1
 99 467 90 483 90 500 c 1
 90 517 99 533 112 542 c 1
 99 551 90 566 90 583 c 0
 90 611 112 633 140 633 c 0
 149 633 158 630 165 626 c 1
 172 630 181 633 190 633 c 0
 218 633 240 611 240 583 c 0
 240 566 231 551 218 542 c 1
 231 533 240 517 240 500 c 0
 240 483 231 467 218 458 c 1
 231 449 240 434 240 417 c 0
 240 399 231 384 217 375 c 1
 219 374 l 0
 227 380 236 383 247 383 c 0
 255 383 262 381 269 378 c 1
 258 387 250 401 250 417 c 0
 250 445 272 467 300 467 c 0
 309 467 318 464 325 460 c 1
 332 464 341 467 350 467 c 0
 378 467 400 445 400 417 c 0
 400 401 392 387 381 378 c 1
 388 381 395 383 403 383 c 0
 414 383 424 380 432 374 c 0
 433 375 l 1
 419 384 410 399 410 417 c 1
 410 434 419 449 432 458 c 1
 419 467 410 483 410 500 c 0
 410 517 419 533 432 542 c 1
 419 551 410 566 410 583 c 0
 410 611 432 633 460 633 c 0
 469 633 478 630 485 626 c 1
 492 630 501 633 510 633 c 0
 538 633 560 611 560 583 c 0
 560 566 551 551 538 542 c 1
 551 533 560 517 560 500 c 0
 560 483 551 467 538 458 c 1
 551 449 560 434 560 417 c 0
 560 399 551 384 537 375 c 1
 551 366 560 351 560 333 c 0xea
 560 305 538 283 510 283 c 0
 503 283 497 285 491 287 c 1
 501 278 507 265 507 250 c 1xc4
EndSplineSet
EndChar

StartChar: oslash
Encoding: 248 248 75
Width: 600
VWidth: 0
UnlinkRmOvrlpSave: 1
Flags: W
HStem: 200 100<331.336 378.624 379.376 425.664> 533 100<224.336 271.624 272.376 318.664>
VStem: 90 257<296.667 371.574> 90 150<375.861 457.574 458.427 536.333> 250 150<378.426 453.333> 410 150<296.667 374.139 375.861 457.574>
LayerCount: 2
Back
Fore
SplineSet
507 250 m 1xd4
 507 222 485 200 457 200 c 0
 448 200 439 203 432 207 c 1
 425 203 416 200 407 200 c 0
 396 200 387 203 379 209 c 1
 371 203 361 200 350 200 c 0
 341 200 332 203 325 207 c 1
 318 203 309 200 300 200 c 0
 289 200 280 203 272 209 c 1
 264 203 254 200 243 200 c 0
 234 200 225 203 218 207 c 1
 211 203 202 200 193 200 c 0
 165 200 143 222 143 250 c 0
 143 265 149 278 159 287 c 1
 153 285 147 283 140 283 c 0
 112 283 90 305 90 333 c 0xe4
 90 351 99 366 113 375 c 1
 99 384 90 399 90 417 c 0
 90 434 99 449 112 458 c 1
 99 467 90 483 90 500 c 1
 90 528 112 550 140 550 c 0
 147 550 153 548 159 546 c 1
 149 555 143 568 143 583 c 0
 143 611 165 633 193 633 c 0
 202 633 211 630 218 626 c 1
 225 630 234 633 243 633 c 0
 254 633 264 630 272 624 c 1
 280 630 289 633 300 633 c 0
 309 633 318 630 325 626 c 1
 332 630 341 633 350 633 c 0
 361 633 370 630 378 624 c 1
 386 630 396 633 407 633 c 0
 416 633 425 630 432 626 c 1
 439 630 448 633 457 633 c 0
 485 633 507 611 507 583 c 0
 507 568 501 555 491 546 c 1
 497 548 503 550 510 550 c 0
 538 550 560 528 560 500 c 0
 560 483 551 467 538 458 c 1
 551 449 560 434 560 417 c 0
 560 399 551 384 537 375 c 1
 551 366 560 351 560 333 c 0
 560 305 538 283 510 283 c 0
 503 283 497 285 491 287 c 1
 501 278 507 265 507 250 c 1xd4
400 417 m 1xcc
 400 389 378 367 350 367 c 0
 342 367 335 369 328 372 c 1
 339 363 347 349 347 333 c 1xe4
 347 318 341 305 331 296 c 1
 337 298 343 300 350 300 c 0
 361 300 371 297 379 291 c 1
 387 297 396 300 407 300 c 0
 414 300 420 298 426 296 c 1
 416 305 410 318 410 333 c 1
 410 351 419 366 433 375 c 1
 419 384 410 399 410 417 c 1
 410 434 419 449 432 458 c 1
 432 459 l 0
 424 453 414 450 403 450 c 0
 396 450 390 452 384 454 c 1
 394 445 400 432 400 417 c 1xcc
217 375 m 1
 219 374 l 0
 227 380 236 383 247 383 c 0
 255 383 262 381 269 378 c 1
 258 387 250 401 250 417 c 0
 250 445 272 467 300 467 c 0
 307 467 313 465 319 463 c 1
 309 472 303 485 303 500 c 1
 303 515 309 528 319 537 c 1
 313 535 307 533 300 533 c 0
 289 533 280 536 272 542 c 1
 264 536 254 533 243 533 c 0
 236 533 230 535 224 537 c 1
 234 528 240 515 240 500 c 1
 240 483 231 467 218 458 c 1
 231 449 240 434 240 417 c 0xdc
 240 399 231 384 217 375 c 1
EndSplineSet
EndChar

StartChar: braceleft
Encoding: 123 123 76
Width: 600
VWidth: 0
UnlinkRmOvrlpSave: 1
Flags: W
HStem: 200 100<384.336 431.624 432.376 484.67 485.33 551.562> 450 100<98.4375 164.67 165.33 218.624 219.376 265.719> 700 100<384.336 431.624 432.376 484.67 485.33 551.562>
VStem: 250 150<296.667 374.139 375.861 453.333 546.667 624.139 625.861 703.333>
CounterMasks: 1 e0
LayerCount: 2
Back
Fore
SplineSet
560 250 m 0
 560 222 538 200 510 200 c 0
 501 200 492 203 485 207 c 1
 478 203 469 200 460 200 c 0
 449 200 440 203 432 209 c 1
 424 203 414 200 403 200 c 0
 394 200 385 203 378 207 c 1
 371 203 362 200 353 200 c 0
 325 200 303 222 303 250 c 0
 303 265 309 278 319 287 c 1
 313 285 307 283 300 283 c 0
 272 283 250 305 250 333 c 0
 250 351 259 366 273 375 c 1
 259 384 250 399 250 417 c 0
 250 432 256 445 266 454 c 1
 260 452 254 450 247 450 c 0
 236 450 227 453 219 459 c 1
 211 453 201 450 190 450 c 0
 181 450 172 453 165 457 c 1
 158 453 149 450 140 450 c 0
 112 450 90 472 90 500 c 0
 90 528 112 550 140 550 c 0
 149 550 158 547 165 543 c 1
 172 547 181 550 190 550 c 0
 201 550 211 547 219 541 c 1
 227 547 236 550 247 550 c 0
 254 550 260 548 266 546 c 1
 256 555 250 568 250 583 c 0
 250 601 259 616 273 625 c 1
 259 634 250 649 250 667 c 0
 250 695 272 717 300 717 c 0
 307 717 313 715 319 713 c 1
 309 722 303 735 303 750 c 1
 303 778 325 800 353 800 c 0
 362 800 371 797 378 793 c 1
 385 797 394 800 403 800 c 0
 414 800 424 797 432 791 c 1
 440 797 449 800 460 800 c 0
 469 800 478 797 485 793 c 1
 492 797 501 800 510 800 c 0
 538 800 560 778 560 750 c 0
 560 722 538 700 510 700 c 0
 501 700 492 703 485 707 c 1
 478 703 469 700 460 700 c 0
 449 700 440 703 432 709 c 1
 424 703 414 700 403 700 c 0
 396 700 390 702 384 704 c 1
 394 695 400 682 400 667 c 1
 400 649 391 634 377 625 c 1
 391 616 400 601 400 583 c 0
 400 555 378 533 350 533 c 0
 343 533 337 535 331 537 c 1
 341 528 347 515 347 500 c 1
 347 485 341 472 331 463 c 1
 337 465 343 467 350 467 c 0
 378 467 400 445 400 417 c 0
 400 399 391 384 377 375 c 1
 391 366 400 351 400 333 c 0
 400 318 394 305 384 296 c 1
 390 298 396 300 403 300 c 0
 414 300 424 297 432 291 c 1
 440 297 449 300 460 300 c 0
 469 300 478 297 485 293 c 1
 492 297 501 300 510 300 c 0
 538 300 560 278 560 250 c 0
EndSplineSet
EndChar

StartChar: udieresis
Encoding: 252 252 77
Width: 600
VWidth: 0
UnlinkRmOvrlpSave: 1
Flags: W
HStem: 200 100<205.438 271.67 272.33 324.624 325.376 377.67 378.33 431.624> 613 20G<126 144.5 185.5 204 446 464.5 505.5 524> 700 100<151.438 217.67 218.33 284.562 365.438 431.67 432.33 498.562>
VStem: 90 150<291.438 374.139 375.861 457.574 458.427 541.573 542.426 624.562> 143 150<708.438 791.562> 357 150<708.438 791.562> 410 150<292.426 374.139 375.861 457.574 458.427 541.573 542.426 624.562>
LayerCount: 2
Back
Fore
SplineSet
560 250 m 0xe2
 560 222 538 200 510 200 c 0
 501 200 492 203 485 207 c 1
 478 203 469 200 460 200 c 0
 449 200 440 203 432 209 c 1
 424 203 414 200 403 200 c 0
 394 200 385 203 378 207 c 1
 371 203 362 200 353 200 c 0
 343 200 333 204 325 209 c 1
 317 204 307 200 297 200 c 0
 288 200 279 203 272 207 c 1
 265 203 256 200 247 200 c 0
 219 200 197 222 197 250 c 0
 197 278 219 300 247 300 c 0
 256 300 265 297 272 293 c 1
 279 297 288 300 297 300 c 0
 307 300 317 296 325 291 c 1
 333 296 343 300 353 300 c 0
 362 300 371 297 378 293 c 1
 385 297 394 300 403 300 c 0
 414 300 424 297 432 291 c 0
 432 292 l 1
 419 301 410 316 410 333 c 0
 410 351 419 366 433 375 c 1
 419 384 410 399 410 417 c 1
 410 434 419 449 432 458 c 1
 419 467 410 483 410 500 c 0
 410 517 419 533 432 542 c 1
 419 551 410 566 410 583 c 0
 410 611 432 633 460 633 c 0
 469 633 478 630 485 626 c 1
 492 630 501 633 510 633 c 0
 538 633 560 611 560 583 c 0
 560 566 551 551 538 542 c 1
 551 533 560 517 560 500 c 0
 560 483 551 467 538 458 c 1
 551 449 560 434 560 417 c 0
 560 399 551 384 537 375 c 1
 551 366 560 351 560 333 c 0
 560 316 551 301 538 292 c 1
 551 283 560 267 560 250 c 0xe2
240 333 m 1xf0
 240 305 218 283 190 283 c 0
 181 283 172 286 165 290 c 1
 158 286 149 283 140 283 c 0
 112 283 90 305 90 333 c 0
 90 351 99 366 113 375 c 1
 99 384 90 399 90 417 c 0
 90 434 99 449 112 458 c 1
 99 467 90 483 90 500 c 1
 90 517 99 533 112 542 c 1
 99 551 90 566 90 583 c 0
 90 611 112 633 140 633 c 0
 149 633 158 630 165 626 c 1
 172 630 181 633 190 633 c 0
 218 633 240 611 240 583 c 0
 240 566 231 551 218 542 c 1
 231 533 240 517 240 500 c 0
 240 483 231 467 218 458 c 1
 231 449 240 434 240 417 c 0
 240 399 231 384 217 375 c 1
 231 366 240 351 240 333 c 1xf0
507 750 m 0xe4
 507 722 485 700 457 700 c 0
 448 700 439 703 432 707 c 1
 425 703 416 700 407 700 c 0
 379 700 357 722 357 750 c 0
 357 778 379 800 407 800 c 0
 416 800 425 797 432 793 c 1
 439 797 448 800 457 800 c 0
 485 800 507 778 507 750 c 0xe4
293 750 m 0xe8
 293 722 271 700 243 700 c 0
 234 700 225 703 218 707 c 1
 211 703 202 700 193 700 c 0
 165 700 143 722 143 750 c 0
 143 778 165 800 193 800 c 0
 202 800 211 797 218 793 c 1
 225 797 234 800 243 800 c 0
 271 800 293 778 293 750 c 0xe8
EndSplineSet
EndChar

StartChar: glyph78
Encoding: 776 776 78
Width: 600
VWidth: 0
UnlinkRmOvrlpSave: 1
Flags: W
HStem: 700 100<98.4375 164.67 165.33 231.562 312.438 378.67 379.33 445.562>
VStem: 90 150<708.438 791.562> 304 150<708.438 791.562>
LayerCount: 2
Back
Fore
SplineSet
454 750 m 0
 454 722 432 700 404 700 c 0
 395 700 386 703 379 707 c 1
 372 703 363 700 354 700 c 0
 326 700 304 722 304 750 c 0
 304 778 326 800 354 800 c 0
 363 800 372 797 379 793 c 1
 386 797 395 800 404 800 c 0
 432 800 454 778 454 750 c 0
240 750 m 0
 240 722 218 700 190 700 c 0
 181 700 172 703 165 707 c 1
 158 703 149 700 140 700 c 0
 112 700 90 722 90 750 c 0
 90 778 112 800 140 800 c 0
 149 800 158 797 165 793 c 1
 172 797 181 800 190 800 c 0
 218 800 240 778 240 750 c 0
EndSplineSet
EndChar

StartChar: glyph79
Encoding: 9786 9786 79
Width: 600
VWidth: 0
UnlinkRmOvrlpSave: 1
Flags: W
HStem: 283 100<221.328 271.624 272.376 324.67 325.33 378.624 379.376 428.672> 367 100<98.4375 161.672 488.328 551.562> 617 100<151.438 217.67 218.33 284.562 365.438 431.67 432.33 498.562>
VStem: 90 150<378.426 458.562> 143 150<625.438 708.562> 357 150<625.438 708.562> 410 150<378.426 458.562>
LayerCount: 2
Back
Fore
SplineSet
507 333 m 1x64
 507 305 485 283 457 283 c 0
 448 283 439 286 432 290 c 1
 425 286 416 283 407 283 c 0
 396 283 387 286 379 292 c 1
 371 286 361 283 350 283 c 0
 341 283 332 286 325 290 c 1
 318 286 309 283 300 283 c 0
 289 283 280 286 272 292 c 1
 264 286 254 283 243 283 c 0
 234 283 225 286 218 290 c 1
 211 286 202 283 193 283 c 0
 165 283 143 305 143 333 c 0xac
 143 349 151 363 162 372 c 1
 155 369 148 367 140 367 c 0
 112 367 90 389 90 417 c 0
 90 445 112 467 140 467 c 0
 149 467 158 464 165 460 c 1
 172 464 181 467 190 467 c 0x70
 218 467 240 445 240 417 c 0
 240 401 232 387 221 378 c 1
 228 381 235 383 243 383 c 0
 254 383 264 380 272 374 c 1
 280 380 289 383 300 383 c 0
 309 383 318 380 325 376 c 1
 332 380 341 383 350 383 c 0
 361 383 371 380 379 374 c 1
 387 380 396 383 407 383 c 0xb0
 415 383 422 381 429 378 c 1
 418 387 410 401 410 417 c 0
 410 445 432 467 460 467 c 0
 469 467 478 464 485 460 c 1
 492 464 501 467 510 467 c 0
 538 467 560 445 560 417 c 0x72
 560 389 538 367 510 367 c 0
 502 367 495 369 488 372 c 1
 499 363 507 349 507 333 c 1x64
507 667 m 0
 507 639 485 617 457 617 c 0
 448 617 439 620 432 624 c 1
 425 620 416 617 407 617 c 0
 379 617 357 639 357 667 c 0
 357 695 379 717 407 717 c 0
 416 717 425 714 432 710 c 1
 439 714 448 717 457 717 c 0
 485 717 507 695 507 667 c 0
293 667 m 0
 293 639 271 617 243 617 c 0
 234 617 225 620 218 624 c 1
 211 620 202 617 193 617 c 0
 165 617 143 639 143 667 c 0
 143 695 165 717 193 717 c 0
 202 717 211 714 218 710 c 1
 225 714 234 717 243 717 c 0
 271 717 293 695 293 667 c 0
EndSplineSet
EndChar

StartChar: glyph80
Encoding: 8595 8595 80
Width: 600
VWidth: 0
UnlinkRmOvrlpSave: 1
Flags: W
HStem: 200 21G<286 304.5 345.5 364> 200 21G<286 304.5 345.5 364> 283 100<221.328 271.624 379.376 428.672> 367 100<98.4375 161.672 488.328 551.562> 780 20G<286 304.5 345.5 364>
VStem: 90 150<378.426 458.562> 250 150<208.438 291.573 375.861 457.574 458.427 541.573 542.426 624.139 625.861 707.574 708.427 791.562> 410 150<378.426 458.562>
CounterMasks: 1 07
LayerCount: 2
Back
Fore
SplineSet
400 250 m 0x2f
 400 222 378 200 350 200 c 0
 341 200 332 203 325 207 c 1
 318 203 309 200 300 200 c 0
 272 200 250 222 250 250 c 0
 250 267 259 283 272 292 c 1
 264 286 254 283 243 283 c 0
 234 283 225 286 218 290 c 1
 211 286 202 283 193 283 c 0xaf
 165 283 143 305 143 333 c 0
 143 349 151 363 162 372 c 1
 155 369 148 367 140 367 c 0
 112 367 90 389 90 417 c 0
 90 445 112 467 140 467 c 0
 149 467 158 464 165 460 c 1
 172 464 181 467 190 467 c 0x1f
 218 467 240 445 240 417 c 0
 240 401 232 387 221 378 c 1
 228 381 235 383 243 383 c 0
 254 383 264 380 272 374 c 0
 273 375 l 1
 259 384 250 399 250 417 c 0
 250 434 259 449 272 458 c 1
 259 467 250 483 250 500 c 1
 250 517 259 533 272 542 c 1
 259 551 250 566 250 583 c 0
 250 601 259 616 273 625 c 1
 259 634 250 649 250 667 c 0
 250 684 259 699 272 708 c 1
 259 717 250 733 250 750 c 0
 250 778 272 800 300 800 c 0
 309 800 318 797 325 793 c 1
 332 797 341 800 350 800 c 0
 378 800 400 778 400 750 c 0
 400 733 391 717 378 708 c 1
 391 699 400 684 400 667 c 0
 400 649 391 634 377 625 c 1
 391 616 400 601 400 583 c 0
 400 566 391 551 378 542 c 1
 391 533 400 517 400 500 c 0
 400 483 391 467 378 458 c 1
 391 449 400 434 400 417 c 0
 400 399 391 384 377 375 c 1
 379 374 l 0
 387 380 396 383 407 383 c 0x2f
 415 383 422 381 429 378 c 1
 418 387 410 401 410 417 c 0
 410 445 432 467 460 467 c 0
 469 467 478 464 485 460 c 1
 492 464 501 467 510 467 c 0
 538 467 560 445 560 417 c 0
 560 389 538 367 510 367 c 0x1f
 502 367 495 369 488 372 c 1
 499 363 507 349 507 333 c 1
 507 305 485 283 457 283 c 0
 448 283 439 286 432 290 c 1
 425 286 416 283 407 283 c 0
 396 283 387 286 379 292 c 0
 378 292 l 1
 391 283 400 267 400 250 c 0x2f
EndSplineSet
EndChar

StartChar: quotedbl
Encoding: 34 34 81
Width: 600
VWidth: 0
UnlinkRmOvrlpSave: 1
Flags: W
HStem: 533 267<113.902 164.67 165.33 216.862 219.138 270.67 271.33 322.098>
VStem: 90 256<542.117 623.695 626.305 707.574 709.311 790.883>
LayerCount: 2
Back
Fore
SplineSet
346 583 m 0
 346 555 324 533 296 533 c 0
 287 533 278 536 271 540 c 1
 264 536 255 533 246 533 c 0
 236 533 226 537 218 542 c 1
 210 537 200 533 190 533 c 0
 181 533 172 536 165 540 c 1
 158 536 149 533 140 533 c 0
 112 533 90 555 90 583 c 0
 90 601 99 616 113 625 c 1
 99 634 90 649 90 667 c 0
 90 684 99 699 112 708 c 1
 99 717 90 733 90 750 c 0
 90 778 112 800 140 800 c 0
 149 800 158 797 165 793 c 1
 172 797 181 800 190 800 c 0
 200 800 210 796 218 791 c 1
 226 796 236 800 246 800 c 0
 255 800 264 797 271 793 c 1
 278 797 287 800 296 800 c 0
 324 800 346 778 346 750 c 0
 346 733 337 717 324 708 c 1
 337 699 346 684 346 667 c 0
 346 649 337 634 323 625 c 1
 337 616 346 601 346 583 c 0
217 625 m 1
 218 624 l 0
 219 625 l 1
 218 626 l 0
 217 625 l 1
218 708 m 1
 218 709 l 0
 218 708 l 1
EndSplineSet
EndChar

StartChar: ampersand
Encoding: 38 38 82
Width: 600
VWidth: 0
UnlinkRmOvrlpSave: 1
Flags: W
HStem: 200 100<224.336 271.624 272.376 318.664 436.282 498.562> 283 100<98.4375 158.715> 367 100<432.33 498.562> 613 20G<239 248.5 294.5 304> 617 100<98.4375 158.715 384.285 444.562> 700 100<224.336 271.624 272.376 318.664>
VStem: 90 150<296.667 371.574 628.426 703.333> 143 257<541.438 621.574 713.425 790.883> 197 150<463.425 536.575> 303 150<296.425 371.574 628.426 703.333>
LayerCount: 2
Back
Fore
SplineSet
507 250 m 0xa840
 507 222 485 200 457 200 c 0
 448 200 439 203 432 207 c 1
 425 203 416 200 407 200 c 0
 396 200 387 203 379 209 c 1
 371 203 361 200 350 200 c 0
 341 200 332 203 325 207 c 1
 318 203 309 200 300 200 c 0
 289 200 280 203 272 209 c 1
 264 203 254 200 243 200 c 0
 234 200 225 203 218 207 c 1
 211 203 202 200 193 200 c 0
 165 200 143 222 143 250 c 0xa9
 143 265 149 278 159 287 c 1
 153 285 147 283 140 283 c 0
 112 283 90 305 90 333 c 0x42
 90 361 112 383 140 383 c 0
 148 383 155 381 162 378 c 1
 151 387 143 401 143 417 c 0x41
 143 445 165 467 193 467 c 0
 201 467 208 465 214 462 c 1
 204 471 197 485 197 500 c 1x2080
 197 515 204 529 214 538 c 1
 208 535 201 533 193 533 c 0
 165 533 143 555 143 583 c 0x21
 143 599 151 613 162 622 c 1
 155 619 148 617 140 617 c 0
 112 617 90 639 90 667 c 0
 90 695 112 717 140 717 c 0x2a
 147 717 153 715 159 713 c 1
 149 722 143 735 143 750 c 0
 143 778 165 800 193 800 c 0
 202 800 211 797 218 793 c 1
 225 797 234 800 243 800 c 0
 254 800 264 797 272 791 c 1
 280 797 289 800 300 800 c 0
 309 800 318 797 325 793 c 1
 332 797 341 800 350 800 c 0
 378 800 400 778 400 750 c 0x05
 400 735 394 722 384 713 c 1
 390 715 396 717 403 717 c 0
 431 717 453 695 453 667 c 0x0840
 453 639 431 617 403 617 c 0
 395 617 388 619 381 622 c 1
 392 613 400 599 400 583 c 1x09
 400 555 378 533 350 533 c 0
 343 533 337 535 331 537 c 1
 341 528 347 515 347 500 c 1x0880
 347 485 341 472 331 463 c 1
 337 465 343 467 350 467 c 0
 361 467 371 464 379 458 c 1
 387 464 396 467 407 467 c 0
 416 467 425 464 432 460 c 1
 439 464 448 467 457 467 c 0
 485 467 507 445 507 417 c 0
 507 389 485 367 457 367 c 0
 448 367 439 370 432 374 c 1
 445 365 453 350 453 333 c 1
 453 318 446 304 436 295 c 1
 442 298 449 300 457 300 c 0
 485 300 507 278 507 250 c 0xa840
224 296 m 1
 230 298 236 300 243 300 c 0
 254 300 264 297 272 291 c 1
 280 297 289 300 300 300 c 0
 307 300 313 298 319 296 c 1
 309 305 303 318 303 333 c 1
 303 349 311 363 322 372 c 1
 315 369 308 367 300 367 c 0
 289 367 280 370 272 376 c 1
 264 370 254 367 243 367 c 0
 235 367 228 369 221 372 c 1
 232 363 240 349 240 333 c 1xa240
 240 318 234 305 224 296 c 1
221 628 m 1
 228 631 235 633 243 633 c 0
 254 633 264 630 272 624 c 1
 280 630 289 633 300 633 c 0
 308 633 315 631 322 628 c 1
 311 637 303 651 303 667 c 1
 303 682 309 695 319 704 c 1
 313 702 307 700 300 700 c 0
 289 700 280 703 272 709 c 1
 264 703 254 700 243 700 c 0x1640
 236 700 230 702 224 704 c 1
 234 695 240 682 240 667 c 1
 240 651 232 637 221 628 c 1
EndSplineSet
EndChar

